<svg width="1580" height="415" viewBox="0 0 1580 415" fill="none" xmlns="http://www.w3.org/2000/svg">
<path d="M19.7843 191.259L14.6415 191.988C14.5082 190.877 14.4193 189.752 14.3748 188.614L19.5354 187.334C19.5443 188.659 19.6287 189.97 19.7799 191.254L19.7843 191.259Z" fill="white"/>
<path d="M90.7207 164.354L85.3379 165.687C78.7327 156.571 67.9983 150.641 55.8814 150.641C37.5328 150.641 22.3579 164.238 19.8865 181.902L14.5082 183.236C16.4062 162.051 34.2036 145.445 55.8814 145.445C70.4741 145.445 83.311 152.97 90.7207 164.354Z" fill="white"/>
<path d="M46.4271 224.022C46.4271 225.462 45.2581 226.627 43.8224 226.627C43.6135 226.627 43.409 226.605 43.2134 226.556C43.2134 226.556 43.209 226.556 43.2045 226.556C43.0801 226.516 42.9556 226.48 42.8356 226.436C42.8356 226.436 42.8356 226.436 42.8312 226.436C29.4253 222.004 19.042 210.923 15.5839 197.099L20.7533 196.366C23.9047 208.198 32.8746 217.657 44.4091 221.489C44.5558 221.538 44.698 221.586 44.8447 221.631C45.7737 222.026 46.4227 222.951 46.4227 224.027L46.4271 224.022Z" fill="white"/>
<path d="M100.771 162.189C100.704 162.189 100.633 162.189 100.566 162.189C99.9038 162.198 99.2593 162.269 98.6282 162.389C98.6282 162.389 98.6282 162.389 98.6237 162.389L97.4858 162.669H97.4769L19.8865 181.902L14.5082 183.236L4.53825 185.707C4.39602 185.752 4.25378 185.8 4.11599 185.858C1.70685 186.796 0 189.139 0 191.877C0 195.441 2.89364 198.335 6.4629 198.335C6.50735 198.335 6.55624 198.335 6.60069 198.335C6.79627 198.335 6.9874 198.317 7.17409 198.3L7.56968 198.242H7.60969L66.1758 189.916H66.1847C66.2336 189.903 66.2825 189.894 66.3314 189.894H66.3492C66.3981 189.885 66.4425 189.885 66.4959 189.885C67.336 189.885 68.0249 190.552 68.0827 191.392C68.0827 191.428 68.0827 191.463 68.0827 191.503C68.0827 191.543 68.0827 191.574 68.0827 191.614V215.199C68.0783 215.319 68.0738 215.444 68.0738 215.564C68.0738 217.47 68.825 219.204 70.0474 220.48C71.3408 221.831 73.1632 222.675 75.1812 222.675C76.3458 222.675 77.4481 222.395 78.4171 221.898C78.8972 221.586 79.3683 221.271 79.8306 220.942C90.4717 213.417 97.4191 201.02 97.4191 186.996C97.4191 186.067 97.388 185.147 97.3258 184.236C97.1924 182.178 96.908 180.164 96.4813 178.2C96.0145 176.022 95.37 173.906 94.5744 171.866C94.201 170.914 93.7965 169.977 93.3565 169.061L98.886 167.692C99.3705 167.567 99.8772 167.501 100.402 167.501C103.753 167.501 106.469 170.217 106.469 173.568C106.469 176.528 104.344 178.995 101.54 179.529C101.602 179.52 101.664 179.511 101.731 179.506L101.411 179.551H101.402C100.655 179.706 100.024 180.187 99.6638 180.831C99.4549 181.204 99.3349 181.636 99.3349 182.093C99.3349 182.813 99.6283 183.467 100.104 183.938C100.575 184.4 101.22 184.689 101.931 184.689C102.02 184.689 102.109 184.689 102.197 184.676C102.22 184.676 102.237 184.671 102.26 184.667C102.291 184.663 102.322 184.658 102.353 184.654C103.029 184.56 103.686 184.405 104.322 184.191C108.811 182.702 112.047 178.471 112.047 173.479C112.047 167.247 106.993 162.193 100.762 162.193L100.771 162.189ZM88.1915 170.328C88.6627 171.239 89.0983 172.177 89.4939 173.132C90.3962 175.315 91.0896 177.608 91.5563 179.982C91.9963 182.249 92.2319 184.587 92.2319 186.983C92.2319 196.984 88.1915 206.043 81.653 212.617C80.1507 214.123 78.5238 215.501 76.777 216.728C76.5458 217.008 76.2347 217.226 75.8791 217.342C75.6791 217.408 75.4702 217.444 75.2524 217.444C74.1589 217.444 73.2699 216.555 73.2699 215.461V191.245C73.2699 187.774 70.5985 184.929 67.1982 184.658C67.0204 184.645 66.8426 184.636 66.6648 184.636C66.5314 184.636 66.4025 184.636 66.2736 184.649L6.43179 193.148L6.31177 193.166C6.27177 193.17 6.22732 193.175 6.18287 193.175C5.49391 193.175 4.93385 192.614 4.93385 191.926C4.93385 191.37 5.30278 190.894 5.8095 190.734H5.81394C5.85839 190.717 5.90729 190.708 5.95618 190.699L88.2004 170.323" fill="white"/>
<path d="M165.866 172.374L148.282 216.993H137.6L157.074 167.69C159.128 162.514 162.908 160.542 168.742 160.542C174.494 160.542 178.274 162.514 180.246 167.69L198.981 216.993H188.217L171.372 172.374C170.879 171.059 169.975 170.484 168.66 170.484C167.345 170.484 166.442 171.059 165.866 172.374Z" fill="white"/>
<path d="M220.606 172.697H245.187V181.254H220.69C216.579 181.254 214.902 182.932 214.902 186.288C214.902 189.392 216.244 191.07 221.194 191.07H231.596C243.845 191.07 246.949 196.691 246.949 203.57C246.949 211.456 242.838 216.993 232.435 216.993H206.68V208.352H232.435C236.546 208.352 238.224 206.926 238.224 203.486C238.224 199.963 236.378 198.536 231.932 198.536H221.445C209.197 198.536 206.177 192.412 206.177 185.617C206.177 177.647 210.287 172.697 220.606 172.697Z" fill="white"/>
<path d="M252.984 172.697H259.025V162.21H268.001V172.697H280.25V181.254H268.001V202.228C268.001 207.178 269.763 208.855 273.958 208.855H280.082V216.993H272.112C262.968 216.993 259.025 213.302 259.025 201.724V181.254H252.984V172.697Z" fill="white"/>
<path d="M300.804 172.697H319.009V181.254H303.405C299.462 181.254 297.7 183.1 297.7 186.959V216.993H288.807V185.617C288.807 176.724 292.079 172.697 300.804 172.697Z" fill="white"/>
<path d="M344.839 172.697H354.151C365.897 172.697 373.363 179.912 373.363 194.845C373.363 209.778 365.897 216.993 354.151 216.993H344.839C333.01 216.993 325.627 209.778 325.627 194.845C325.627 179.912 333.01 172.697 344.839 172.697ZM353.312 181.254H345.678C337.96 181.254 334.604 185.281 334.604 194.845C334.604 204.409 337.96 208.352 345.678 208.352H353.312C360.947 208.352 364.387 204.409 364.387 194.845C364.387 185.281 360.947 181.254 353.312 181.254Z" fill="white"/>
<path d="M379.563 172.697H385.603V162.21H394.58V172.697H406.828V181.254H394.58V202.228C394.58 207.178 396.342 208.855 400.536 208.855H406.661V216.993H398.691C389.546 216.993 385.603 213.302 385.603 201.724V181.254H379.563V172.697Z" fill="white"/>
<path d="M429.983 172.697H444.329C454.816 172.697 459.262 177.731 459.262 186.288C459.262 194.426 455.152 199.04 444.245 199.04H423.188V202.228C423.188 205.751 425.117 208.352 429.983 208.352H457.081V216.993H429.983C418.909 216.993 414.547 210.785 414.547 202.396V187.295C414.547 178.905 418.909 172.697 429.983 172.697ZM423.188 187.378V192.077H443.994C448.776 192.077 450.537 190.063 450.537 186.791C450.537 183.435 448.608 181.254 444.245 181.254H429.983C425.117 181.254 423.188 183.939 423.188 187.378Z" fill="white"/>
<path d="M487.312 172.697H510.131V181.254H488.151C480.432 181.254 477.077 185.281 477.077 194.845C477.077 204.409 480.432 208.352 488.151 208.352H510.131V216.993H487.312C475.483 216.993 468.1 209.778 468.1 194.845C468.1 179.912 475.483 172.697 487.312 172.697Z" fill="white"/>
<path d="M520.665 153.485H529.558V172.697H545.162C560.095 172.697 567.478 179.912 567.478 192.077V216.993H558.501V192.077C558.501 185.281 554.39 181.254 545.162 181.254H529.558V216.993H520.665V153.485Z" fill="white"/>
<mask id="path-3-outside-1_2_330" maskUnits="userSpaceOnUse" x="610.422" y="-0.555908" width="970" height="416" fill="black">
<rect fill="white" x="610.422" y="-0.555908" width="970" height="416"/>
<path d="M924.077 53.1583L907.683 117.664C906.447 123.316 907.752 127.996 910.699 131.604L952.98 163.179C967.846 172.464 998.137 167.91 1004.77 145.089L967.283 117.664L983.984 53.1583L1021.47 80.5837H1034.49C1040.83 80.5837 1046.27 78.5929 1050.68 75.4226L1013.15 48.0361C1026.69 38.3638 1030.67 17.614 1021.47 9.03529C1018.91 6.64696 1015.32 5.20196 1010.64 5.20196H921.932C884.547 7.80901 881.483 53.1583 908.908 53.1583H924.077Z"/>
<path d="M983.984 53.1583L967.283 117.664L1004.77 145.089L1021.47 80.5837L983.984 53.1583Z"/>
<path d="M1059.27 36.7642L1021.47 9.03529C1030.67 17.614 1026.69 38.3638 1013.15 48.0361L1050.68 75.4226C1064.03 65.8462 1068.04 45.5076 1059.27 36.7642Z"/>
<path d="M1474.99 128.925L1537.65 38.3747L1572.02 78.769C1579.53 65.3737 1578.54 55.6661 1573.53 49.7434L1537.15 7.34697C1527.2 -1.04653 1507.43 1.27705 1499.04 14.7796L1485.41 33.2403L1478.17 43.046L1465.38 16.6189C1464.84 14.5522 1463.97 12.731 1462.83 11.1609L1458.95 7.36295C1446.84 -1.06065 1423.47 5.96546 1424.58 31.1736L1448.82 86.2526L1439.36 106.862C1435.03 116.091 1436.9 123.704 1441.59 128.925L1477.77 171.097C1486.54 178.728 1501.88 179.616 1508.7 170.291L1474.99 128.925Z"/>
<path d="M1465.38 16.6189L1478.17 43.046L1485.41 33.2403L1462.83 11.1609C1463.97 12.731 1464.84 14.5522 1465.38 16.6189Z"/>
<path d="M1509.35 169.319L1572.02 78.769L1537.65 38.3747L1474.99 128.925L1508.7 170.291C1508.93 169.979 1509.15 169.655 1509.35 169.319Z"/>
<path d="M1412.32 205.147L1369.91 167.934C1378.22 175.828 1361.66 203.982 1343.57 197.238L1385.86 234.58C1404.4 242.146 1421.56 212.624 1412.32 205.147Z"/>
<path d="M1369.54 167.61C1358.8 155.962 1339.96 145.684 1320.97 146.466C1283.73 148 1249.25 195.801 1286.65 221.694L1305.49 233.798C1308.7 236.707 1303.95 244.52 1299.52 241.919L1281.13 232.573C1259.67 221.694 1240.98 252.08 1256 263.982C1272.91 277.377 1283.34 280.736 1303.04 281.908C1313 282.206 1321.88 280.022 1329.43 276.213L1372.07 313.828C1399.5 300.116 1409.7 265.022 1391.79 249.273L1361.95 223.095L1349.01 211.735L1319.28 189.06C1317.13 186.912 1320.81 181.702 1324.03 184.004L1340.58 195.801C1341.58 196.391 1342.58 196.867 1343.57 197.238C1361.66 203.982 1378.22 175.828 1369.91 167.934L1369.54 167.61Z"/>
<path d="M1298.79 301.519C1315.7 314.915 1326.13 318.274 1345.83 319.445C1355.72 319.742 1364.54 317.589 1372.07 313.828L1329.43 276.213C1321.88 280.022 1313 282.206 1303.04 281.908C1283.34 280.736 1272.91 277.377 1256 263.982L1298.79 301.519Z"/>
<path d="M1366.82 221.541L1383.37 233.339C1384.2 233.83 1385.03 234.242 1385.86 234.58L1343.57 197.238C1342.58 196.867 1341.58 196.391 1340.58 195.801L1324.03 184.004C1320.81 181.702 1317.13 186.912 1319.28 189.06L1349.01 211.735L1361.95 223.095C1362.89 221.418 1364.93 220.195 1366.82 221.541Z"/>
<path d="M887.72 316.228L884.656 282.674L887.72 280.885L864.738 261.377H816.169L841.909 283.747L857.603 297.781L859.529 296.77L887.72 316.228Z"/>
<path d="M921.121 261.377H877.302L894.358 277.008L921.121 261.377Z"/>
<path d="M841.909 283.747L822.451 316.228L857.603 297.781L841.909 283.747Z"/>
<path d="M882.664 189.826L864.738 261.377L887.72 280.885L894.358 277.008L877.302 261.377L892.676 200.86L882.664 189.826Z"/>
<path d="M855.961 95.5988H903.764C908.31 95.5988 912.359 94.4886 915.868 92.606L877.105 41.9735H798.046L855.961 95.5988Z"/>
<path fill-rule="evenodd" clip-rule="evenodd" d="M870.101 5.20196H743.085C701.564 5.20256 676.59 45.9572 696.815 78.592L731.594 135.282H654.221C610.186 135.282 602.552 193.871 627.671 218.272L678.998 264.66C684.907 268.746 692.17 271.183 700.755 271.183H776.201L794.106 333.85C796.288 340.861 800.14 346.759 805.182 351.623L849.085 391.306C872.804 418.378 930.602 417.5 956.733 399.671C961.63 396.33 965.415 392.394 967.655 387.935L970.135 383.183L913.57 347.944L998.053 152.595C979.901 133.08 937.55 128.841 906.026 174.289L855.961 95.5988L798.046 41.9735H877.105L915.868 92.606C931.251 84.3532 936.25 61.257 927.184 51.7801L925.858 50.5733L878.79 7.73339C876.528 6.13214 873.643 5.20196 870.101 5.20196ZM877.302 261.377H921.121L894.358 277.008L887.72 280.885L884.656 282.674L887.72 316.228L859.529 296.77L857.603 297.781L822.451 316.228L841.909 283.747L816.169 261.377H864.738L882.664 189.826L892.676 200.86L877.302 261.377Z"/>
<path d="M1049.93 230.275C1055.85 218.811 1053.91 207.078 1047.03 197.946C1041.71 191.716 1024.48 173.923 998.053 152.595L913.57 347.944L970.135 383.183L1049.93 230.275Z"/>
<path d="M1502.71 276.852L1466.82 244.176C1475.16 253.321 1470.46 273.492 1453.2 278.78L1500.85 320.851C1517.57 314.918 1521.71 294.636 1512.76 286.003L1502.71 276.852Z"/>
<path d="M1514.79 230.629L1478.96 198.114C1486.83 207.903 1480.12 228.854 1463.16 233.491L1511.12 275.496C1527.97 269.791 1533.83 247.625 1523.99 238.972L1514.79 230.629Z"/>
<path d="M1537.15 193.043L1490.65 150.648C1498.24 159.67 1491.77 181.702 1474.65 186.883L1522.76 229.396C1539.38 223.953 1544.73 201.968 1537.15 193.043Z"/>
<path d="M1377.69 172.053L1356.85 254.023C1354.92 262.281 1355.9 269.631 1360.07 274.4L1408.33 318.516C1411.41 321.047 1415.72 322.51 1421.31 322.51H1490.72C1494.49 322.51 1497.87 321.908 1500.85 320.851L1453.2 278.78C1470.46 273.492 1475.16 253.321 1466.82 244.176L1502.71 276.852C1505.75 276.848 1508.56 276.361 1511.12 275.496L1463.16 233.491C1480.12 228.854 1486.83 207.903 1478.96 198.114L1514.79 230.629C1517.68 230.629 1520.34 230.188 1522.76 229.396L1474.65 186.883C1491.77 181.702 1498.24 159.67 1490.65 150.648L1488.59 148.769C1486.76 147.503 1484.43 146.772 1481.57 146.772H1408.79C1390.82 150.059 1383.53 155.052 1377.69 172.053Z"/>
<path d="M1042.56 174.612C1050.64 182.772 1067.17 181.646 1077.7 171.775L1030.82 129.652C1021.73 137.908 1008.4 139.8 999.77 134.995L1042.56 174.612Z"/>
<path d="M1109.37 19.8558L1125.05 110.869L1171.47 153.316L1155.91 62.2963C1155.32 59.1613 1153.89 56.4904 1151.86 54.292L1105.12 11.6346C1107.27 13.8734 1108.76 16.6169 1109.37 19.8558Z"/>
<path d="M1125.05 110.869L1109.37 19.8558C1108.76 16.6169 1107.27 13.8734 1105.12 11.6346L1103.31 9.98417C1090.9 0.0495627 1063.72 2.94851 1052.69 19.8558L994.001 106.576C990.003 116.842 990.679 124.509 994.001 129.652L999.77 134.995C1008.4 139.8 1021.73 137.908 1030.82 129.652L1077.7 171.775C1079.18 170.387 1080.55 168.827 1081.75 167.095L1096.12 146.283L1129.7 176.911C1142.88 189.629 1177.42 176.729 1171.47 153.316L1125.05 110.869Z"/>
<path d="M1144.19 276.852L1108.3 244.176C1116.64 253.321 1111.93 273.492 1094.68 278.78L1142.33 320.851C1159.05 314.918 1163.19 294.636 1154.24 286.003L1144.19 276.852Z"/>
<path d="M1156.27 230.629L1120.44 198.114C1128.31 207.903 1121.6 228.854 1104.64 233.491L1152.59 275.496C1169.45 269.791 1175.31 247.625 1165.46 238.972L1156.27 230.629Z"/>
<path d="M1178.63 193.043L1132.13 150.648C1139.71 159.67 1133.25 181.702 1116.13 186.883L1164.24 229.396C1180.86 223.953 1186.21 201.968 1178.63 193.043Z"/>
<path d="M1019.17 172.053L998.332 254.023C996.395 262.281 997.382 269.631 1001.55 274.4L1049.81 318.516C1052.89 321.047 1057.19 322.51 1062.79 322.51H1132.2C1135.97 322.51 1139.35 321.908 1142.33 320.851L1094.68 278.78C1111.93 273.492 1116.64 253.321 1108.3 244.176L1144.19 276.852C1147.23 276.848 1150.04 276.361 1152.59 275.496L1104.64 233.491C1121.6 228.854 1128.31 207.903 1120.44 198.114L1156.27 230.629C1159.16 230.629 1161.82 230.188 1164.24 229.396L1116.13 186.883C1133.25 181.702 1139.71 159.67 1132.13 150.648L1130.07 148.769C1128.24 147.503 1125.9 146.772 1123.05 146.772H1050.27C1032.29 150.059 1025.01 155.052 1019.17 172.053Z"/>
<path d="M1157.92 27.8776L1136.78 112.759C1135.13 120.305 1137.08 126.332 1141.07 130.278L1189.33 174.208C1197.85 180.592 1212.86 179.249 1223.55 166.383L1175.53 125.628C1180.53 120.293 1184.74 112.646 1187.19 102.34L1190.25 88.8572H1203.74L1205.42 117.202C1205.84 125.762 1210.56 130.912 1216.91 133.02L1232.78 148.322L1256.9 171.569C1269.51 183.85 1301.68 172.862 1300.68 145.853L1300.22 124.556C1302.29 123.183 1304.25 121.761 1306.08 120.299L1258.12 78.9657C1285.73 57.9747 1287.99 28.0425 1274.65 12.5713L1269.46 7.85617C1264.62 4.43579 1258.56 2.44409 1251.54 2.44409H1184.43C1173.55 2.44409 1161.14 13.3222 1157.92 27.8776Z"/>
<path d="M1190.25 88.8572L1187.19 102.34C1184.74 112.646 1180.53 120.293 1175.53 125.628L1223.55 166.383C1227.32 161.849 1230.56 155.884 1232.78 148.322L1216.91 133.02C1210.56 130.912 1205.84 125.762 1205.42 117.202L1203.74 88.8572H1190.25Z"/>
<path d="M1306.08 120.299C1332.8 99.0104 1334.35 69.1944 1320.49 54.2301L1274.65 12.5713C1287.99 28.0425 1285.73 57.9747 1258.12 78.9657L1306.08 120.299Z"/>
<path d="M1289.99 27.8776L1268.85 112.759C1267.2 120.305 1269.16 126.332 1273.14 130.278L1321.4 174.208C1329.93 180.592 1344.93 179.249 1355.62 166.383L1307.6 125.628C1312.6 120.293 1316.81 112.646 1319.26 102.34L1322.32 88.8572H1335.81L1337.49 117.202C1337.91 125.762 1342.63 130.912 1348.98 133.02L1364.85 148.322L1388.97 171.569C1401.58 183.85 1433.75 172.862 1432.75 145.853L1432.29 124.556C1434.36 123.183 1436.32 121.761 1438.15 120.299L1390.2 78.9657C1417.81 57.9747 1420.06 28.0425 1406.72 12.5713L1401.53 7.85617C1396.69 4.43579 1390.63 2.44409 1383.61 2.44409H1316.5C1305.62 2.44409 1293.21 13.3222 1289.99 27.8776Z"/>
<path d="M1322.32 88.8572L1319.26 102.34C1316.81 112.646 1312.6 120.293 1307.6 125.628L1355.62 166.383C1359.39 161.849 1362.63 155.884 1364.85 148.322L1348.98 133.02C1342.63 130.912 1337.91 125.762 1337.49 117.202L1335.81 88.8572H1322.32Z"/>
<path d="M1438.15 120.299C1464.87 99.0104 1466.42 69.1944 1452.56 54.2301L1406.72 12.5713C1420.06 28.0425 1417.81 57.9747 1390.2 78.9657L1438.15 120.299Z"/>
<path d="M1141.07 172.512L1119.93 257.394C1118.27 264.94 1120.23 270.967 1124.21 274.913L1172.48 318.843C1181 325.227 1196 323.884 1206.7 311.018L1158.68 270.263C1163.67 264.927 1167.89 257.281 1170.33 246.975L1173.4 233.492H1186.88L1188.57 261.837C1188.98 270.396 1193.7 275.547 1200.06 277.655L1215.93 292.956L1240.04 316.204C1252.66 328.484 1284.82 317.497 1283.82 290.488L1283.36 269.191C1285.44 267.817 1287.39 266.396 1289.23 264.934L1241.27 223.6C1268.88 202.61 1271.14 172.677 1257.8 157.206L1252.61 152.491C1247.76 149.071 1241.71 147.079 1234.68 147.079H1167.58C1156.7 147.079 1144.29 157.957 1141.07 172.512Z"/>
<path d="M1173.4 233.492L1170.33 246.975C1167.89 257.281 1163.67 264.927 1158.68 270.263L1206.7 311.018C1210.47 306.484 1213.7 300.519 1215.93 292.956L1200.06 277.655C1193.7 275.547 1188.98 270.396 1188.57 261.837L1186.88 233.492H1173.4Z"/>
<path d="M1289.23 264.934C1315.95 243.645 1317.5 213.829 1303.63 198.865L1257.8 157.206C1271.14 172.677 1268.88 202.61 1241.27 223.6L1289.23 264.934Z"/>
</mask>
<path d="M967.283 117.664L966.1 117.358L965.892 118.161L966.561 118.65L967.283 117.664ZM983.984 53.1583L984.705 52.172L983.252 51.1086L982.801 52.852L983.984 53.1583ZM1013.15 48.0361L1012.44 47.0416L1011.06 48.0255L1012.43 49.0234L1013.15 48.0361ZM1478.17 43.046L1477.07 43.5784L1477.95 45.3993L1479.15 43.772L1478.17 43.046ZM1537.65 38.3747L1538.58 37.5828L1537.55 36.3715L1536.65 37.6793L1537.65 38.3747ZM1474.99 128.925L1473.98 128.229L1473.46 128.985L1474.04 129.697L1474.99 128.925ZM1465.38 16.6189L1464.19 16.9262L1464.22 17.0428L1464.28 17.1513L1465.38 16.6189ZM1462.83 11.1609L1461.84 11.8765V11.8765L1462.83 11.1609ZM1508.7 170.291L1509.65 169.519V169.519L1508.7 170.291ZM1303.04 281.908L1302.97 283.128L1302.99 283.129L1303 283.129L1303.04 281.908ZM1349.01 211.735L1349.81 210.817L1349.78 210.789L1349.75 210.764L1349.01 211.735ZM1319.28 189.06L1318.42 189.925L1318.48 189.982L1318.54 190.031L1319.28 189.06ZM1324.03 184.004L1323.32 184.998L1323.32 184.999L1324.03 184.004ZM1340.58 195.801L1339.87 196.796L1339.91 196.827L1339.96 196.854L1340.58 195.801ZM1329.43 276.213L1330.24 275.296L1329.62 274.749L1328.88 275.121L1329.43 276.213ZM1369.91 167.934L1369.06 168.82V168.82L1369.91 167.934ZM1361.95 223.095L1363.02 223.692L1363.5 222.829L1362.76 222.177L1361.95 223.095ZM877.302 261.377L876.117 261.077L875.937 261.785L876.476 262.278L877.302 261.377ZM921.121 261.377L921.738 262.433L925.637 260.155H921.121V261.377ZM884.656 282.674L884.04 281.619L883.368 282.011L883.439 282.785L884.656 282.674ZM887.72 316.228L887.026 317.234L889.175 318.717L888.937 316.117L887.72 316.228ZM859.529 296.77L860.223 295.764L859.615 295.345L858.961 295.688L859.529 296.77ZM822.451 316.228L821.402 315.6L819.167 319.332L823.019 317.31L822.451 316.228ZM841.909 283.747L842.724 282.836L842.717 282.83L842.711 282.824L841.909 283.747ZM816.169 261.377V260.155H812.9L815.367 262.3L816.169 261.377ZM882.664 189.826L883.569 189.005L882.034 187.313L881.479 189.529L882.664 189.826ZM892.676 200.86L893.86 201.161L894.022 200.525L893.581 200.039L892.676 200.86ZM894.358 277.008L894.974 278.063V278.063L894.358 277.008ZM776.201 271.183L775.147 270.565L774.034 272.465L776.235 272.405L776.201 271.183ZM906.026 174.289L906.487 173.157L905.58 172.788L905.022 173.593L906.026 174.289ZM877.105 41.9735L878.075 41.2306L877.708 40.7514H877.105V41.9735ZM798.046 41.9735V40.7514H794.927L797.216 42.8702L798.046 41.9735ZM913.57 347.944L912.448 347.458L912.031 348.424L912.924 348.981L913.57 347.944ZM1463.16 233.491L1462.84 232.312L1460.64 232.911L1462.35 234.41L1463.16 233.491ZM1453.2 278.78L1452.84 277.611L1450.75 278.251L1452.39 279.696L1453.2 278.78ZM1466.82 244.176L1467.64 243.272L1465.92 244.999L1466.82 244.176ZM1478.96 198.114L1479.79 197.209L1478.01 198.879L1478.96 198.114ZM1474.65 186.883L1474.3 185.714L1472.2 186.348L1473.84 187.799L1474.65 186.883ZM1125.05 110.869L1123.85 111.077L1123.92 111.489L1124.23 111.771L1125.05 110.869ZM1109.37 19.8558L1110.58 19.6483L1110.57 19.6394L1110.57 19.6305L1109.37 19.8558ZM1105.12 11.6346L1106 10.7891V10.7891L1105.12 11.6346ZM999.77 134.995L999.176 136.062V136.062L999.77 134.995ZM1104.64 233.491L1104.31 232.312L1102.12 232.911L1103.83 234.41L1104.64 233.491ZM1094.68 278.78L1094.32 277.611L1092.23 278.251L1093.87 279.696L1094.68 278.78ZM1108.3 244.176L1109.12 243.272L1107.4 244.999L1108.3 244.176ZM1120.44 198.114L1121.26 197.209L1119.49 198.879L1120.44 198.114ZM1116.13 186.883L1115.77 185.714L1113.68 186.348L1115.32 187.799L1116.13 186.883ZM1187.19 102.34L1188.38 102.622L1188.38 102.611L1187.19 102.34ZM1190.25 88.8572V87.6352H1189.28L1189.06 88.5864L1190.25 88.8572ZM1203.74 88.8572L1204.96 88.7847L1204.89 87.6352H1203.74V88.8572ZM1205.42 117.202L1206.64 117.143L1206.64 117.129L1205.42 117.202ZM1175.53 125.628L1174.64 124.793L1173.76 125.73L1174.74 126.56L1175.53 125.628ZM1258.12 78.9657L1257.38 77.9928L1256.18 78.9061L1257.33 79.8914L1258.12 78.9657ZM1216.91 133.02L1217.76 132.14L1217.56 131.948L1217.29 131.86L1216.91 133.02ZM1232.78 148.322L1231.93 149.201L1233.39 150.6L1233.95 148.667L1232.78 148.322ZM1274.65 12.5713L1273.72 13.3694V13.3694L1274.65 12.5713ZM1319.26 102.34L1320.45 102.622L1320.45 102.611L1319.26 102.34ZM1322.32 88.8572V87.6352H1321.35L1321.13 88.5864L1322.32 88.8572ZM1335.81 88.8572L1337.03 88.7847L1336.96 87.6352H1335.81V88.8572ZM1337.49 117.202L1338.71 117.143L1338.71 117.129L1337.49 117.202ZM1307.6 125.628L1306.71 124.793L1305.84 125.73L1306.81 126.56L1307.6 125.628ZM1390.2 78.9657L1389.46 77.9928L1388.25 78.9061L1389.4 79.8914L1390.2 78.9657ZM1348.98 133.02L1349.83 132.14L1349.63 131.948L1349.37 131.86L1348.98 133.02ZM1364.85 148.322L1364.01 149.201L1365.46 150.6L1366.03 148.667L1364.85 148.322ZM1406.72 12.5713L1405.8 13.3694V13.3694L1406.72 12.5713ZM1170.33 246.975L1171.52 247.257L1171.53 247.246L1170.33 246.975ZM1173.4 233.492V232.27H1172.42L1172.21 233.221L1173.4 233.492ZM1186.88 233.492L1188.1 233.42L1188.03 232.27H1186.88V233.492ZM1188.57 261.837L1189.79 261.777L1189.79 261.764L1188.57 261.837ZM1158.68 270.263L1157.79 269.428L1156.91 270.365L1157.89 271.195L1158.68 270.263ZM1241.27 223.6L1240.53 222.628L1239.33 223.541L1240.47 224.526L1241.27 223.6ZM1200.06 277.655L1200.9 276.775L1200.7 276.583L1200.44 276.495L1200.06 277.655ZM1215.93 292.956L1215.08 293.836L1216.53 295.235L1217.1 293.302L1215.93 292.956ZM1257.8 157.206L1256.87 158.004V158.004L1257.8 157.206ZM967.283 117.664L968.466 117.97L985.167 53.4646L983.984 53.1583L982.801 52.852L966.1 117.358L967.283 117.664ZM1013.15 48.0361L1013.86 49.0306C1020.91 43.9941 1025.44 36.1046 1027.03 28.3719C1028.62 20.6785 1027.33 12.8344 1022.3 8.14153L1021.47 9.03529L1020.63 9.92904C1024.8 13.8149 1026.13 20.6351 1024.64 27.8794C1023.16 35.0843 1018.93 42.4059 1012.44 47.0416L1013.15 48.0361ZM1013.15 48.0361L1012.43 49.0234L1049.96 76.4098L1050.68 75.4226L1051.41 74.4353L1013.87 47.0488L1013.15 48.0361ZM983.984 53.1583L983.262 54.1446L1020.75 81.5699L1021.47 80.5837L1022.19 79.5974L984.705 52.172L983.984 53.1583ZM967.283 117.664L966.561 118.65L1004.04 146.076L1004.77 145.089L1005.49 144.103L968.005 116.678L967.283 117.664ZM1465.38 16.6189L1464.28 17.1513L1477.07 43.5784L1478.17 43.046L1479.27 42.5136L1466.48 16.0865L1465.38 16.6189ZM1478.17 43.046L1479.15 43.772L1486.39 33.9663L1485.41 33.2403L1484.43 32.5143L1477.18 42.32L1478.17 43.046ZM1537.65 38.3747L1536.72 39.1666L1571.09 79.5609L1572.02 78.769L1572.95 77.9771L1538.58 37.5828L1537.65 38.3747ZM1465.38 16.6189L1466.56 16.3115C1465.98 14.0993 1465.05 12.1394 1463.82 10.4453L1462.83 11.1609L1461.84 11.8765C1462.88 13.3225 1463.69 15.0051 1464.19 16.9262L1465.38 16.6189ZM1508.7 170.291L1509.65 169.519L1475.93 128.153L1474.99 128.925L1474.04 129.697L1507.75 171.063L1508.7 170.291ZM1508.7 170.291L1507.75 171.063L1508.41 171.869L1509.35 171.097L1510.3 170.325L1509.65 169.519L1508.7 170.291ZM1462.83 11.1609L1463.82 10.4453C1462.66 8.83226 1461.24 7.46899 1459.65 6.35988L1458.95 7.36295L1458.25 8.36601C1459.63 9.32613 1460.84 10.4982 1461.84 11.8765L1462.83 11.1609ZM1256 263.982L1255.24 264.939C1263.75 271.681 1270.7 275.953 1278.05 278.674C1285.4 281.395 1293.07 282.539 1302.97 283.128L1303.04 281.908L1303.11 280.688C1293.32 280.105 1285.92 278.983 1278.9 276.382C1271.88 273.783 1265.16 269.677 1256.76 263.024L1256 263.982ZM1319.28 189.06L1320.14 188.195C1319.94 187.986 1319.82 187.667 1319.88 187.189C1319.94 186.697 1320.18 186.128 1320.58 185.639C1320.99 185.149 1321.47 184.823 1321.93 184.704C1322.35 184.595 1322.81 184.637 1323.32 184.998L1324.03 184.004L1324.74 183.009C1323.64 182.22 1322.43 182.05 1321.32 182.338C1320.25 182.615 1319.35 183.294 1318.7 184.088C1318.04 184.882 1317.57 185.875 1317.45 186.891C1317.32 187.922 1317.55 189.06 1318.42 189.925L1319.28 189.06ZM1340.58 195.801L1339.96 196.854C1341.02 197.479 1342.08 197.986 1343.14 198.383L1343.57 197.238L1344 196.093C1343.07 195.748 1342.14 195.304 1341.2 194.749L1340.58 195.801ZM1343.57 197.238L1342.76 198.154L1385.05 235.496L1385.86 234.58L1386.67 233.664L1344.38 196.322L1343.57 197.238ZM1303.04 281.908L1303 283.129C1313.17 283.434 1322.25 281.203 1329.98 277.304L1329.43 276.213L1328.88 275.121C1321.51 278.84 1312.83 280.978 1303.08 280.686L1303.04 281.908ZM1329.43 276.213L1328.63 277.129L1371.26 314.745L1372.07 313.828L1372.88 312.912L1330.24 275.296L1329.43 276.213ZM1369.91 167.934L1369.06 168.82C1370.71 170.379 1371.27 173.103 1370.64 176.572C1370.01 179.999 1368.25 183.876 1365.66 187.344C1360.43 194.346 1352.29 199.184 1344 196.093L1343.57 197.238L1343.14 198.383C1352.94 202.036 1362.12 196.17 1367.62 188.806C1370.39 185.093 1372.34 180.873 1373.04 177.011C1373.74 173.192 1373.26 169.436 1370.75 167.048L1369.91 167.934ZM1369.91 167.934L1370.75 167.048C1370.61 166.914 1370.46 166.784 1370.31 166.66L1369.54 167.61L1368.77 168.559C1368.87 168.643 1368.97 168.73 1369.06 168.82L1369.91 167.934ZM1361.95 223.095L1362.76 222.177L1349.81 210.817L1349.01 211.735L1348.2 212.654L1361.15 224.014L1361.95 223.095ZM1362.07 226.597L1362.93 225.732C1362.61 225.407 1362.47 224.671 1363.02 223.692L1361.95 223.095L1360.89 222.498C1360.1 223.901 1359.75 226.004 1361.21 227.462L1362.07 226.597ZM877.302 261.377V262.6H921.121V261.377V260.155H877.302V261.377ZM884.656 282.674L883.439 282.785L886.503 316.339L887.72 316.228L888.937 316.117L885.873 282.563L884.656 282.674ZM887.72 316.228L888.415 315.223L860.223 295.764L859.529 296.77L858.835 297.776L887.026 317.234L887.72 316.228ZM822.451 316.228L823.499 316.856L842.957 284.375L841.909 283.747L840.861 283.119L821.402 315.6L822.451 316.228ZM841.909 283.747L842.711 282.824L816.971 260.455L816.169 261.377L815.367 262.3L841.107 284.669L841.909 283.747ZM816.169 261.377V262.6H864.738V261.377V260.155H816.169V261.377ZM864.738 261.377L865.924 261.674L883.85 190.123L882.664 189.826L881.479 189.529L863.553 261.08L864.738 261.377ZM878.792 374.297L877.625 374.66C877.633 374.686 877.721 374.956 877.031 375.614C876.376 376.237 875.288 376.933 873.82 377.682C870.902 379.172 866.853 380.691 862.775 382.197C858.746 383.686 854.674 385.166 851.855 386.548C850.468 387.228 849.241 387.95 848.483 388.723C848.103 389.111 847.729 389.623 847.616 390.257C847.49 390.965 847.726 391.608 848.166 392.111L849.085 391.306L850.004 390.5C849.975 390.467 850.046 390.553 850.022 390.685C850.012 390.743 850.008 390.659 850.229 390.434C850.672 389.982 851.569 389.41 852.931 388.742C855.608 387.43 859.532 386.001 863.622 384.49C867.664 382.997 871.859 381.427 874.931 379.86C876.457 379.08 877.8 378.256 878.717 377.383C879.598 376.544 880.397 375.342 879.959 373.934L878.792 374.297ZM892.676 200.86L891.491 200.559L876.117 261.077L877.302 261.377L878.486 261.678L893.86 201.161L892.676 200.86ZM882.664 189.826L881.759 190.647L891.771 201.682L892.676 200.86L893.581 200.039L883.569 189.005L882.664 189.826ZM887.72 280.885L887.104 279.829L884.04 281.619L884.656 282.674L885.272 283.73L888.337 281.94L887.72 280.885ZM864.738 261.377L863.947 262.309L886.93 281.816L887.72 280.885L888.511 279.953L865.529 260.446L864.738 261.377ZM921.121 261.377L920.505 260.322L893.742 275.953L894.358 277.008L894.974 278.063L921.738 262.433L921.121 261.377ZM894.358 277.008L893.742 275.953L887.104 279.829L887.72 280.885L888.337 281.94L894.974 278.063L894.358 277.008ZM877.302 261.377L876.476 262.278L893.532 277.909L894.358 277.008L895.184 276.107L878.127 260.476L877.302 261.377ZM859.529 296.77L858.961 295.688L857.035 296.699L857.603 297.781L858.171 298.863L860.097 297.852L859.529 296.77ZM857.603 297.781L857.035 296.699L821.883 315.146L822.451 316.228L823.019 317.31L858.171 298.863L857.603 297.781ZM841.909 283.747L841.094 284.658L856.788 298.692L857.603 297.781L858.418 296.87L842.724 282.836L841.909 283.747ZM906.026 174.289L905.022 173.593C904.633 174.154 904.417 174.79 904.454 175.472C904.49 176.139 904.762 176.726 905.121 177.22C905.813 178.171 906.99 178.993 908.299 179.723C910.95 181.202 914.818 182.661 918.549 184.12C922.353 185.608 926.029 187.102 928.528 188.683C929.783 189.477 930.617 190.219 931.043 190.888C931.423 191.485 931.462 191.973 931.204 192.518L932.308 193.041L933.413 193.564C934.083 192.149 933.866 190.77 933.104 189.575C932.389 188.452 931.195 187.478 929.835 186.617C927.101 184.888 923.192 183.312 919.44 181.844C915.615 180.348 911.955 178.964 909.49 177.588C908.24 176.891 907.461 176.281 907.098 175.782C906.93 175.552 906.898 175.409 906.895 175.339C906.892 175.284 906.898 175.176 907.03 174.986L906.026 174.289ZM959.23 195.952L959.691 194.82L906.487 173.157L906.026 174.289L905.565 175.421L958.77 197.084L959.23 195.952ZM927.184 51.7801L928.067 50.9353C927.616 50.4638 927.132 50.0223 926.615 49.6142L925.858 50.5733L925.1 51.5323C925.526 51.8687 925.926 52.2336 926.301 52.6249L927.184 51.7801ZM776.201 271.183L776.235 272.405L848.796 270.411L848.762 269.189L848.728 267.967L776.168 269.962L776.201 271.183ZM802.228 226.749L801.174 226.131L775.147 270.565L776.201 271.183L777.256 271.801L803.283 227.366L802.228 226.749ZM877.105 41.9735L876.135 42.7164L914.898 93.3489L915.868 92.606L916.839 91.8632L878.075 41.2306L877.105 41.9735ZM855.961 95.5988L856.792 94.7021L798.876 41.0768L798.046 41.9735L797.216 42.8702L855.131 96.4955L855.961 95.5988ZM798.046 41.9735V43.1956H877.105V41.9735V40.7514H798.046V41.9735ZM913.57 347.944L912.924 348.981L969.489 384.22L970.135 383.183L970.781 382.146L914.216 346.906L913.57 347.944ZM913.57 347.944L914.692 348.429L999.174 153.081L998.053 152.595L996.931 152.11L912.448 347.458L913.57 347.944ZM1463.16 233.491L1462.35 234.41L1510.31 276.416L1511.12 275.496L1511.92 274.577L1463.96 232.571L1463.16 233.491ZM1453.2 278.78L1452.39 279.696L1500.04 321.768L1500.85 320.851L1501.66 319.935L1454.01 277.864L1453.2 278.78ZM1502.71 276.852L1503.53 275.948L1467.64 243.272L1466.82 244.176L1466 245.079L1501.89 277.755L1502.71 276.852ZM1466.82 244.176L1465.92 244.999C1469.71 249.156 1470.64 255.982 1468.45 262.537C1466.27 269.045 1461.06 275.094 1452.84 277.611L1453.2 278.78L1453.56 279.948C1462.6 277.178 1468.36 270.498 1470.77 263.312C1473.16 256.172 1472.27 248.341 1467.72 243.352L1466.82 244.176ZM1514.79 230.629L1515.61 229.724L1479.79 197.209L1478.96 198.114L1478.14 199.019L1513.97 231.534L1514.79 230.629ZM1478.96 198.114L1478.01 198.879C1481.57 203.313 1481.95 210.487 1479.24 217.281C1476.54 224.028 1470.89 230.111 1462.84 232.312L1463.16 233.491L1463.48 234.669C1472.39 232.234 1478.57 225.523 1481.51 218.188C1484.42 210.9 1484.22 202.704 1479.92 197.348L1478.96 198.114ZM1490.65 150.648L1489.72 151.434C1493.1 155.461 1493.51 162.688 1490.78 169.766C1488.07 176.776 1482.42 183.254 1474.3 185.714L1474.65 186.883L1475 188.053C1484 185.331 1490.14 178.203 1493.06 170.646C1495.94 163.157 1495.79 154.857 1491.59 149.862L1490.65 150.648ZM1474.65 186.883L1473.84 187.799L1521.95 230.311L1522.76 229.396L1523.57 228.48L1475.46 185.968L1474.65 186.883ZM1125.05 110.869L1126.25 110.662L1110.58 19.6483L1109.37 19.8558L1108.17 20.0633L1123.85 111.077L1125.05 110.869ZM1030.82 129.652L1031.65 130.557C1033.33 129.031 1034.87 127.296 1036.22 125.352L1035.22 124.655L1034.21 123.957C1032.97 125.744 1031.55 127.342 1030 128.748L1030.82 129.652ZM1030.82 129.652L1030.01 130.561L1076.89 172.684L1077.7 171.775L1078.52 170.866L1031.64 128.743L1030.82 129.652ZM1125.05 110.869L1124.23 111.771L1170.64 154.217L1171.47 153.316L1172.29 152.414L1125.88 109.968L1125.05 110.869ZM1109.37 19.8558L1110.57 19.6305C1109.92 16.1449 1108.3 13.1892 1106 10.7891L1105.12 11.6346L1104.24 12.48C1106.23 14.5576 1107.61 17.0889 1108.17 20.0811L1109.37 19.8558ZM999.77 134.995L999.176 136.062C1008.34 141.167 1022.24 139.1 1031.65 130.557L1030.82 129.652L1030 128.748C1021.23 136.716 1008.46 138.433 1000.37 133.927L999.77 134.995ZM994.001 129.652L992.974 130.315C994.557 132.767 996.693 134.68 999.176 136.062L999.77 134.995L1000.37 133.927C998.203 132.723 996.376 131.078 995.027 128.989L994.001 129.652ZM1105.12 11.6346L1106 10.7891C1105.4 10.1641 1104.76 9.57783 1104.08 9.0302L1103.31 9.98417L1102.55 10.9382C1103.15 11.4217 1103.72 11.9359 1104.24 12.48L1105.12 11.6346ZM1125.5 169.71L1124.33 170.036C1125.21 173.212 1126.78 175.789 1128.86 177.79L1129.7 176.911L1130.55 176.031C1128.8 174.341 1127.45 172.149 1126.68 169.383L1125.5 169.71ZM1104.64 233.491L1103.83 234.41L1151.79 276.416L1152.59 275.496L1153.4 274.577L1105.44 232.571L1104.64 233.491ZM1094.68 278.78L1093.87 279.696L1141.52 321.768L1142.33 320.851L1143.14 319.935L1095.49 277.864L1094.68 278.78ZM1144.19 276.852L1145.01 275.948L1109.12 243.272L1108.3 244.176L1107.48 245.079L1143.36 277.755L1144.19 276.852ZM1108.3 244.176L1107.4 244.999C1111.19 249.156 1112.12 255.982 1109.93 262.537C1107.75 269.045 1102.54 275.094 1094.32 277.611L1094.68 278.78L1095.04 279.948C1104.08 277.178 1109.84 270.498 1112.25 263.312C1114.63 256.172 1113.75 248.341 1109.2 243.352L1108.3 244.176ZM1156.27 230.629L1157.09 229.724L1121.26 197.209L1120.44 198.114L1119.62 199.019L1155.45 231.534L1156.27 230.629ZM1120.44 198.114L1119.49 198.879C1123.05 203.313 1123.43 210.487 1120.71 217.281C1118.02 224.028 1112.36 230.111 1104.31 232.312L1104.64 233.491L1104.96 234.669C1113.87 232.234 1120.05 225.523 1122.98 218.188C1125.9 210.9 1125.7 202.704 1121.39 197.348L1120.44 198.114ZM1132.13 150.648L1131.2 151.434C1134.58 155.461 1134.98 162.688 1132.25 169.766C1129.55 176.776 1123.9 183.254 1115.77 185.714L1116.13 186.883L1116.48 188.053C1125.48 185.331 1131.62 178.203 1134.53 170.646C1137.42 163.157 1137.26 154.857 1133.07 149.862L1132.13 150.648ZM1116.13 186.883L1115.32 187.799L1163.43 230.311L1164.24 229.396L1165.05 228.48L1116.94 185.968L1116.13 186.883ZM1187.19 102.34L1188.38 102.611L1191.44 89.1281L1190.25 88.8572L1189.06 88.5864L1186 102.069L1187.19 102.34ZM1190.25 88.8572V90.0793H1203.74V88.8572V87.6352H1190.25V88.8572ZM1203.74 88.8572L1202.52 88.9298L1204.2 117.275L1205.42 117.202L1206.64 117.129L1204.96 88.7847L1203.74 88.8572ZM1175.53 125.628L1176.43 126.463C1181.58 120.95 1185.89 113.104 1188.38 102.622L1187.19 102.34L1186 102.058C1183.59 112.189 1179.47 119.635 1174.64 124.793L1175.53 125.628ZM1175.53 125.628L1174.74 126.56L1222.76 167.315L1223.55 166.383L1224.34 165.452L1176.32 124.696L1175.53 125.628ZM1258.12 78.9657L1257.33 79.8914L1305.28 121.225L1306.08 120.299L1306.88 119.374L1258.92 78.04L1258.12 78.9657ZM1205.42 117.202L1204.2 117.261C1204.64 126.342 1209.71 131.918 1216.52 134.18L1216.91 133.02L1217.29 131.86C1211.4 129.906 1207.03 125.181 1206.64 117.143L1205.42 117.202ZM1251.95 159.642L1250.73 159.702C1251 165.188 1252.96 169.439 1256.05 172.444L1256.9 171.569L1257.75 170.693C1255.15 168.165 1253.42 164.521 1253.18 159.583L1251.95 159.642ZM1216.91 133.02L1216.06 133.9L1231.93 149.201L1232.78 148.322L1233.63 147.442L1217.76 132.14L1216.91 133.02ZM1258.12 78.9657L1258.86 79.9385C1286.86 58.6529 1289.51 27.9297 1275.58 11.7733L1274.65 12.5713L1273.72 13.3694C1286.47 28.1553 1284.61 57.2965 1257.38 77.9928L1258.12 78.9657ZM1274.65 12.5713L1275.58 11.7733C1273.98 9.92593 1272.17 8.27474 1270.17 6.85773L1269.46 7.85617L1268.76 8.85462C1270.6 10.154 1272.26 11.6697 1273.72 13.3694L1274.65 12.5713ZM1232.78 148.322L1233.95 148.667C1234.3 147.502 1234.62 146.301 1234.91 145.063L1233.72 144.781L1232.53 144.498C1232.25 145.695 1231.94 146.854 1231.61 147.976L1232.78 148.322ZM1319.26 102.34L1320.45 102.611L1323.52 89.1281L1322.32 88.8572L1321.13 88.5864L1318.07 102.069L1319.26 102.34ZM1322.32 88.8572V90.0793H1335.81V88.8572V87.6352H1322.32V88.8572ZM1335.81 88.8572L1334.59 88.9298L1336.27 117.275L1337.49 117.202L1338.71 117.129L1337.03 88.7847L1335.81 88.8572ZM1307.6 125.628L1308.5 126.463C1313.66 120.95 1317.96 113.104 1320.45 102.622L1319.26 102.34L1318.07 102.058C1315.66 112.189 1311.54 119.635 1306.71 124.793L1307.6 125.628ZM1307.6 125.628L1306.81 126.56L1354.83 167.315L1355.62 166.383L1356.41 165.452L1308.4 124.696L1307.6 125.628ZM1390.2 78.9657L1389.4 79.8914L1437.35 121.225L1438.15 120.299L1438.95 119.374L1390.99 78.04L1390.2 78.9657ZM1337.49 117.202L1336.27 117.261C1336.71 126.342 1341.78 131.918 1348.6 134.18L1348.98 133.02L1349.37 131.86C1343.48 129.906 1339.1 125.181 1338.71 117.143L1337.49 117.202ZM1384.03 159.642L1382.8 159.702C1383.07 165.188 1385.03 169.439 1388.12 172.444L1388.97 171.569L1389.82 170.693C1387.23 168.165 1385.49 164.521 1385.25 159.583L1384.03 159.642ZM1348.98 133.02L1348.13 133.9L1364.01 149.201L1364.85 148.322L1365.7 147.442L1349.83 132.14L1348.98 133.02ZM1390.2 78.9657L1390.93 79.9385C1418.93 58.6529 1421.58 27.9297 1407.65 11.7733L1406.72 12.5713L1405.8 13.3694C1418.55 28.1553 1416.68 57.2965 1389.46 77.9928L1390.2 78.9657ZM1406.72 12.5713L1407.65 11.7733C1406.05 9.92593 1404.25 8.27474 1402.24 6.85773L1401.53 7.85617L1400.83 8.85462C1402.67 10.154 1404.33 11.6697 1405.8 13.3694L1406.72 12.5713ZM1364.85 148.322L1366.03 148.667C1366.37 147.502 1366.69 146.301 1366.98 145.063L1365.79 144.781L1364.6 144.498C1364.32 145.695 1364.01 146.854 1363.68 147.976L1364.85 148.322ZM1170.33 246.975L1171.53 247.246L1174.59 233.763L1173.4 233.492L1172.21 233.221L1169.14 246.704L1170.33 246.975ZM1173.4 233.492V234.714H1186.88V233.492V232.27H1173.4V233.492ZM1186.88 233.492L1185.66 233.565L1187.35 261.909L1188.57 261.837L1189.79 261.764L1188.1 233.42L1186.88 233.492ZM1158.68 270.263L1159.57 271.098C1164.73 265.585 1169.03 257.739 1171.52 247.257L1170.33 246.975L1169.15 246.693C1166.74 256.824 1162.61 264.27 1157.79 269.428L1158.68 270.263ZM1158.68 270.263L1157.89 271.195L1205.91 311.95L1206.7 311.018L1207.49 310.086L1159.47 269.331L1158.68 270.263ZM1241.27 223.6L1240.47 224.526L1288.43 265.86L1289.23 264.934L1290.02 264.008L1242.07 222.675L1241.27 223.6ZM1188.57 261.837L1187.35 261.896C1187.79 270.977 1192.86 276.553 1199.67 278.815L1200.06 277.655L1200.44 276.495C1194.55 274.541 1190.18 269.816 1189.79 261.777L1188.57 261.837ZM1235.1 304.277L1233.88 304.337C1234.15 309.823 1236.11 314.074 1239.19 317.079L1240.04 316.204L1240.9 315.328C1238.3 312.8 1236.56 309.155 1236.32 304.218L1235.1 304.277ZM1200.06 277.655L1199.21 278.535L1215.08 293.836L1215.93 292.956L1216.78 292.077L1200.9 276.775L1200.06 277.655ZM1241.27 223.6L1242.01 224.573C1270.01 203.288 1272.65 172.565 1258.72 156.408L1257.8 157.206L1256.87 158.004C1269.62 172.79 1267.75 201.931 1240.53 222.628L1241.27 223.6ZM1257.8 157.206L1258.72 156.408C1257.13 154.561 1255.32 152.91 1253.31 151.493L1252.61 152.491L1251.9 153.489C1253.74 154.789 1255.41 156.305 1256.87 158.004L1257.8 157.206ZM1215.93 292.956L1217.1 293.302C1217.44 292.137 1217.76 290.936 1218.06 289.698L1216.87 289.415L1215.68 289.133C1215.4 290.33 1215.09 291.489 1214.76 292.611L1215.93 292.956ZM1537.65 38.3747L1536.65 37.6793L1473.98 128.229L1474.99 128.925L1475.99 129.62L1538.66 39.0701L1537.65 38.3747ZM1349.01 211.735L1349.75 210.764L1320.02 188.088L1319.28 189.06L1318.54 190.031L1348.26 212.707L1349.01 211.735ZM1324.03 184.004L1323.32 184.999L1339.87 196.796L1340.58 195.801L1341.29 194.806L1324.74 183.009L1324.03 184.004ZM924.077 53.1583L926.446 53.7603L927.22 50.7141H924.077V53.1583ZM907.683 117.664L905.314 117.062L905.304 117.102L905.295 117.142L907.683 117.664ZM921.932 5.20196V2.75781H921.847L921.762 2.76373L921.932 5.20196ZM1004.77 145.089L1007.11 145.771L1007.12 145.737L1007.13 145.702L1004.77 145.089ZM1021.47 80.5837V78.1395H1019.57L1019.1 79.9711L1021.47 80.5837ZM910.699 131.604L908.806 133.151L908.996 133.383L909.237 133.563L910.699 131.604ZM952.98 163.179L951.517 165.137L951.599 165.198L951.685 165.252L952.98 163.179ZM1021.47 9.03529L1019.8 10.8228L1019.91 10.9209L1020.02 11.006L1021.47 9.03529ZM1059.27 36.7642L1060.99 35.0324L1060.86 34.9025L1060.71 34.7935L1059.27 36.7642ZM1050.68 75.4226L1049.26 73.4368L1050.68 75.4226ZM1572.02 78.769L1574.03 80.1598L1574.1 80.0647L1574.15 79.9638L1572.02 78.769ZM1509.35 169.319L1507.35 167.928L1507.31 167.977L1507.28 168.027L1509.35 169.319ZM1499.04 14.7796L1501.01 16.2316L1501.07 16.1526L1501.12 16.0692L1499.04 14.7796ZM1439.36 106.862L1441.57 107.9L1441.57 107.891L1441.58 107.881L1439.36 106.862ZM1424.58 31.1736L1422.14 31.2808L1422.16 31.7386L1422.34 32.158L1424.58 31.1736ZM1448.82 86.2526L1451.04 87.2724L1451.5 86.2738L1451.05 85.2682L1448.82 86.2526ZM1477.77 171.097L1475.92 172.688L1476.03 172.824L1476.17 172.941L1477.77 171.097ZM1441.59 128.925L1443.45 127.333L1443.43 127.311L1443.41 127.29L1441.59 128.925ZM1537.15 7.34697L1539.01 5.75542L1538.88 5.60556L1538.73 5.47829L1537.15 7.34697ZM1573.53 49.7434L1575.4 48.165L1575.39 48.1584L1575.39 48.1518L1573.53 49.7434ZM1458.95 7.36295L1460.66 5.61547L1460.51 5.47312L1460.34 5.35681L1458.95 7.36295ZM1485.41 33.2403L1483.7 34.9877L1485.71 36.9506L1487.37 34.6923L1485.41 33.2403ZM1462.83 11.1609L1464.54 9.41347V9.41345L1462.83 11.1609ZM1508.7 170.291L1510.67 171.734V171.734L1508.7 170.291ZM1412.32 205.147L1410.71 206.985L1410.75 207.016L1410.78 207.047L1412.32 205.147ZM1298.79 301.519L1297.18 303.357L1297.23 303.397L1297.27 303.435L1298.79 301.519ZM1345.83 319.445L1345.68 321.885L1345.72 321.887L1345.76 321.888L1345.83 319.445ZM1391.79 249.273L1393.41 247.438L1393.41 247.436L1391.79 249.273ZM1366.82 221.541L1365.4 223.531L1365.4 223.531L1366.82 221.541ZM1383.37 233.339L1381.95 235.329L1382.03 235.39L1382.12 235.443L1383.37 233.339ZM1369.54 167.61L1367.74 169.266L1367.83 169.362L1367.92 169.447L1369.54 167.61ZM1320.97 146.466L1320.87 144.024V144.024L1320.97 146.466ZM1286.65 221.694L1285.25 223.704L1285.29 223.728L1285.33 223.751L1286.65 221.694ZM1305.49 233.798L1307.13 231.987L1306.98 231.851L1306.81 231.742L1305.49 233.798ZM1299.52 241.919L1300.75 239.81L1300.69 239.773L1300.62 239.74L1299.52 241.919ZM1281.13 232.573L1282.24 230.394L1282.24 230.393L1281.13 232.573ZM1256 263.982L1257.62 262.144L1257.57 262.104L1257.52 262.066L1256 263.982ZM1385.86 234.58L1384.93 236.843V236.843L1385.86 234.58ZM1372.07 313.828L1373.16 316.014V316.014L1372.07 313.828ZM1369.91 167.934L1371.52 166.097L1371.52 166.097L1369.91 167.934ZM1361.95 223.095L1359.82 221.901L1358.86 223.628L1360.34 224.933L1361.95 223.095ZM743.085 5.20196V2.75781H743.085L743.085 5.20196ZM696.815 78.592L698.898 77.3138L698.892 77.3045L696.815 78.592ZM731.594 135.282V137.726H735.961L733.678 134.003L731.594 135.282ZM794.106 333.85L791.756 334.522L791.764 334.549L791.772 334.577L794.106 333.85ZM967.655 387.935L965.488 386.804L965.479 386.821L965.471 386.838L967.655 387.935ZM1049.93 230.275L1052.1 231.406L1052.1 231.396L1049.93 230.275ZM855.961 95.5988V93.1547H851.509L853.899 96.9108L855.961 95.5988ZM678.998 264.66L677.359 266.473L677.477 266.579L677.608 266.67L678.998 264.66ZM627.671 218.272L625.968 220.025L626 220.056L626.032 220.085L627.671 218.272ZM849.085 391.306L850.923 389.695L850.83 389.588L850.724 389.492L849.085 391.306ZM805.182 351.623L803.486 353.382L803.514 353.41L803.544 353.436L805.182 351.623ZM878.79 7.73339L880.435 5.92585L880.325 5.82501L880.202 5.73845L878.79 7.73339ZM927.184 51.7801L928.95 50.0905L928.891 50.0294L928.829 49.9726L927.184 51.7801ZM998.053 152.595L996.263 154.26L996.382 154.388L996.518 154.497L998.053 152.595ZM1047.03 197.946L1048.98 196.476L1048.94 196.417L1048.89 196.36L1047.03 197.946ZM956.733 399.671L955.355 397.652V397.652L956.733 399.671ZM776.201 271.183L778.552 270.512L778.045 268.739H776.201V271.183ZM906.026 174.289L903.964 175.601L905.938 178.704L908.035 175.682L906.026 174.289ZM925.858 50.5733L924.213 52.3808V52.3808L925.858 50.5733ZM915.868 92.606L917.024 94.7598L915.868 92.606ZM970.135 383.183L972.302 384.314V384.314L970.135 383.183ZM1377.69 172.053L1375.38 171.259L1375.35 171.354L1375.32 171.451L1377.69 172.053ZM1356.85 254.023L1354.49 253.421L1354.48 253.443L1354.47 253.465L1356.85 254.023ZM1408.79 146.772V144.328H1408.57L1408.35 144.368L1408.79 146.772ZM1514.79 230.629V228.185H1508.46L1513.15 232.439L1514.79 230.629ZM1488.59 148.769L1490.24 146.963L1490.12 146.851L1489.98 146.757L1488.59 148.769ZM1537.15 193.043L1539.01 191.46L1538.91 191.342L1538.8 191.237L1537.15 193.043ZM1523.99 238.972L1522.34 240.782L1522.36 240.795L1522.37 240.808L1523.99 238.972ZM1511.12 275.496L1511.9 277.811L1511.12 275.496ZM1512.76 286.003L1514.46 284.244L1514.43 284.219L1514.4 284.196L1512.76 286.003ZM1500.85 320.851L1501.67 323.155V323.155L1500.85 320.851ZM1360.07 274.4L1358.23 276.009L1358.32 276.112L1358.43 276.204L1360.07 274.4ZM1408.33 318.516L1406.69 320.32L1406.73 320.363L1406.78 320.403L1408.33 318.516ZM1502.71 276.852L1502.7 274.408L1496.4 274.416L1501.06 278.659L1502.71 276.852ZM1490.65 150.648L1489.01 152.454V152.454L1490.65 150.648ZM1522.76 229.396L1523.52 231.718L1522.76 229.396ZM994.001 106.576L991.976 105.206L991.823 105.433L991.723 105.689L994.001 106.576ZM1052.69 19.8558L1054.71 21.2257L1054.72 21.2086L1054.74 21.1914L1052.69 19.8558ZM1081.75 167.095L1083.76 168.49L1083.76 168.484L1081.75 167.095ZM1171.47 153.316L1169.06 153.728L1169.08 153.823L1169.1 153.917L1171.47 153.316ZM1155.91 62.2963L1158.31 61.8843L1158.31 61.865L1158.31 61.8456L1155.91 62.2963ZM994.001 129.652L991.947 130.978L992.114 131.237L992.34 131.446L994.001 129.652ZM1042.56 174.612L1044.3 172.892L1044.26 172.855L1044.22 172.819L1042.56 174.612ZM1103.31 9.98417L1104.96 8.1789L1104.9 8.12562L1104.84 8.07622L1103.31 9.98417ZM1151.86 54.292L1153.65 52.6313L1153.58 52.556L1153.51 52.4867L1151.86 54.292ZM1077.7 171.775L1076.03 169.991V169.991L1077.7 171.775ZM1105.12 11.6346L1103.47 13.4398V13.4398L1105.12 11.6346ZM999.77 134.995L998.11 136.788V136.788L999.77 134.995ZM1129.7 176.911L1131.4 175.152L1131.38 175.128L1131.35 175.105L1129.7 176.911ZM1096.12 146.283L1097.77 144.477L1095.7 142.591L1094.11 144.894L1096.12 146.283ZM1019.17 172.053L1016.86 171.259L1016.82 171.354L1016.8 171.451L1019.17 172.053ZM998.332 254.023L995.963 253.421L995.957 253.443L995.952 253.465L998.332 254.023ZM1050.27 146.772V144.328H1050.05L1049.83 144.368L1050.27 146.772ZM1156.27 230.629V228.185H1149.94L1154.63 232.439L1156.27 230.629ZM1130.07 148.769L1131.72 146.963L1131.59 146.851L1131.46 146.757L1130.07 148.769ZM1178.63 193.043L1180.49 191.46L1180.39 191.342L1180.27 191.237L1178.63 193.043ZM1165.46 238.972L1163.82 240.782L1163.83 240.795L1163.85 240.808L1165.46 238.972ZM1152.59 275.496L1153.38 277.811L1152.59 275.496ZM1154.24 286.003L1155.93 284.244L1155.91 284.219L1155.88 284.196L1154.24 286.003ZM1142.33 320.851L1143.14 323.155V323.155L1142.33 320.851ZM1001.55 274.4L999.711 276.009L999.801 276.112L999.902 276.204L1001.55 274.4ZM1049.81 318.516L1048.16 320.32L1048.21 320.363L1048.26 320.403L1049.81 318.516ZM1144.19 276.852L1144.18 274.408L1137.88 274.416L1142.54 278.659L1144.19 276.852ZM1132.13 150.648L1130.48 152.454V152.454L1132.13 150.648ZM1164.24 229.396L1165 231.718L1164.24 229.396ZM1157.92 27.8776L1160.3 28.4684L1160.3 28.4369L1160.31 28.4052L1157.92 27.8776ZM1136.78 112.759L1134.41 112.168L1134.4 112.202L1134.39 112.235L1136.78 112.759ZM1300.68 145.853L1298.23 145.906L1298.23 145.925L1298.23 145.944L1300.68 145.853ZM1300.22 124.556L1298.87 122.518L1297.74 123.262L1297.77 124.609L1300.22 124.556ZM1141.07 130.278L1139.35 132.015L1139.38 132.051L1139.42 132.086L1141.07 130.278ZM1189.33 174.208L1187.69 176.016L1187.77 176.095L1187.87 176.165L1189.33 174.208ZM1223.55 166.383L1221.67 164.821V164.821L1223.55 166.383ZM1320.49 54.2301L1322.28 52.5688L1322.21 52.4919L1322.13 52.4214L1320.49 54.2301ZM1269.46 7.85617L1271.11 6.04747L1270.99 5.94614L1270.87 5.85928L1269.46 7.85617ZM1306.08 120.299L1307.6 122.211L1306.08 120.299ZM1256.9 171.569L1258.6 169.818L1258.59 169.809L1256.9 171.569ZM1232.78 148.322L1234.48 146.562L1231.58 143.764L1230.44 147.631L1232.78 148.322ZM1274.65 12.5713L1273.01 14.38V14.38L1274.65 12.5713ZM1289.99 27.8776L1292.37 28.4684L1292.37 28.4369L1292.38 28.4052L1289.99 27.8776ZM1268.85 112.759L1266.48 112.168L1266.47 112.202L1266.46 112.235L1268.85 112.759ZM1432.75 145.853L1430.3 145.906L1430.3 145.925L1430.31 145.944L1432.75 145.853ZM1432.29 124.556L1430.94 122.518L1429.82 123.262L1429.85 124.609L1432.29 124.556ZM1273.14 130.278L1271.42 132.015L1271.46 132.051L1271.49 132.086L1273.14 130.278ZM1321.4 174.208L1319.76 176.016L1319.84 176.095L1319.94 176.165L1321.4 174.208ZM1355.62 166.383L1353.74 164.821V164.821L1355.62 166.383ZM1452.56 54.2301L1454.35 52.5688L1454.28 52.4919L1454.2 52.4214L1452.56 54.2301ZM1401.53 7.85617L1403.18 6.04747L1403.07 5.94614L1402.94 5.85928L1401.53 7.85617ZM1438.15 120.299L1439.67 122.211L1438.15 120.299ZM1388.97 171.569L1390.67 169.818L1390.67 169.809L1388.97 171.569ZM1364.85 148.322L1366.55 146.562L1363.65 143.764L1362.51 147.631L1364.85 148.322ZM1406.72 12.5713L1405.08 14.38V14.38L1406.72 12.5713ZM1141.07 172.512L1143.44 173.103L1143.45 173.072L1143.46 173.04L1141.07 172.512ZM1119.93 257.394L1117.55 256.803L1117.55 256.836L1117.54 256.87L1119.93 257.394ZM1283.82 290.488L1281.38 290.541L1281.38 290.56L1281.38 290.578L1283.82 290.488ZM1283.36 269.191L1282.01 267.153L1280.89 267.897L1280.92 269.244L1283.36 269.191ZM1124.21 274.913L1122.49 276.649L1122.53 276.686L1122.57 276.721L1124.21 274.913ZM1172.48 318.843L1170.83 320.651L1170.92 320.729L1171.01 320.8L1172.48 318.843ZM1206.7 311.018L1204.82 309.456V309.456L1206.7 311.018ZM1303.63 198.865L1305.42 197.204L1305.35 197.127L1305.28 197.056L1303.63 198.865ZM1252.61 152.491L1254.25 150.682L1254.14 150.581L1254.02 150.494L1252.61 152.491ZM1289.23 264.934L1290.75 266.846L1289.23 264.934ZM1240.04 316.204L1241.75 314.453L1241.74 314.444L1240.04 316.204ZM1215.93 292.956L1217.63 291.197L1214.72 288.399L1213.58 292.266L1215.93 292.956ZM1257.8 157.206L1256.15 159.015V159.015L1257.8 157.206ZM924.077 53.1583L921.708 52.5562L905.314 117.062L907.683 117.664L910.052 118.266L926.446 53.7603L924.077 53.1583ZM1010.64 5.20196V2.75781H921.932V5.20196V7.64611H1010.64V5.20196ZM921.932 5.20196L921.762 2.76373C901.949 4.14542 890.91 16.9677 888.708 29.7425C887.615 36.0816 888.691 42.5117 892.109 47.4273C895.581 52.419 901.305 55.6024 908.908 55.6024V53.1583V50.7141C902.799 50.7141 898.621 48.2289 896.123 44.6361C893.571 40.9673 892.607 35.8972 893.525 30.573C895.344 20.0214 904.53 8.86555 922.102 7.64018L921.932 5.20196ZM908.908 53.1583V55.6024H924.077V53.1583V50.7141H908.908V53.1583ZM1004.77 145.089L1007.13 145.702L1023.83 81.1963L1021.47 80.5837L1019.1 79.9711L1002.4 144.477L1004.77 145.089ZM1021.47 80.5837V83.0278H1034.49V80.5837V78.1395H1021.47V80.5837ZM907.683 117.664L905.295 117.142C903.906 123.498 905.372 128.946 908.806 133.151L910.699 131.604L912.592 130.058C910.132 127.047 908.989 123.133 910.07 118.186L907.683 117.664ZM952.98 163.179L951.685 165.252C959.817 170.331 971.841 171.501 982.612 168.53C993.456 165.538 1003.5 158.205 1007.11 145.771L1004.77 145.089L1002.42 144.408C999.402 154.795 990.988 161.149 981.312 163.818C971.564 166.507 961.009 165.312 954.275 161.106L952.98 163.179ZM910.699 131.604L909.237 133.563L951.517 165.137L952.98 163.179L954.442 161.22L912.162 129.646L910.699 131.604ZM1021.47 9.03529L1023.13 7.24778C1020.06 4.38178 1015.86 2.75781 1010.64 2.75781V5.20196V7.64611C1014.79 7.64611 1017.75 8.91214 1019.8 10.8228L1021.47 9.03529ZM1021.47 9.03529L1020.02 11.006L1057.82 38.7349L1059.27 36.7642L1060.71 34.7935L1022.91 7.06457L1021.47 9.03529ZM1034.49 80.5837V83.0278C1041.37 83.0278 1047.3 80.8605 1052.11 77.4083L1050.68 75.4226L1049.26 73.4368C1045.24 76.3253 1040.29 78.1395 1034.49 78.1395V80.5837ZM1050.68 75.4226L1052.11 77.4083C1059.34 72.2232 1063.98 64.1857 1065.66 56.2913C1067.33 48.4722 1066.19 40.2132 1060.99 35.0324L1059.27 36.7642L1057.54 38.496C1061.12 42.0587 1062.36 48.3407 1060.88 55.2708C1059.42 62.1256 1055.38 69.0456 1049.26 73.4368L1050.68 75.4226ZM1572.02 78.769L1570.01 77.3781L1507.35 167.928L1509.35 169.319L1511.36 170.71L1574.03 80.1598L1572.02 78.769ZM1439.36 106.862L1441.58 107.881L1451.04 87.2724L1448.82 86.2526L1446.6 85.2329L1437.13 105.842L1439.36 106.862ZM1424.58 31.1736L1422.34 32.158L1446.58 87.2371L1448.82 86.2526L1451.05 85.2682L1426.82 30.1892L1424.58 31.1736ZM1441.59 128.925L1443.41 127.29C1439.4 122.827 1437.64 116.273 1441.57 107.9L1439.36 106.862L1437.14 105.824C1432.41 115.909 1434.4 124.581 1439.78 130.559L1441.59 128.925ZM1477.77 171.097L1479.63 169.505L1443.45 127.333L1441.59 128.925L1439.74 130.516L1475.92 172.688L1477.77 171.097ZM1499.04 14.7796L1501.12 16.0692C1504.88 10.0132 1511.25 6.38634 1517.92 5.26242C1524.62 4.13196 1531.28 5.58749 1535.58 9.21566L1537.15 7.34697L1538.73 5.47829C1533.08 0.712959 1524.87 -0.866468 1517.1 0.442121C1509.3 1.75725 1501.59 6.04347 1496.97 13.49L1499.04 14.7796ZM1573.53 49.7434L1571.67 51.3217C1575.76 56.162 1577.12 64.6616 1569.89 77.5741L1572.02 78.769L1574.15 79.9638C1581.93 66.0859 1581.32 55.1701 1575.4 48.165L1573.53 49.7434ZM1537.15 7.34697L1535.3 8.93853L1571.68 51.3349L1573.53 49.7434L1575.39 48.1518L1539.01 5.75542L1537.15 7.34697ZM1458.95 7.36295L1460.34 5.35681C1453.46 0.567718 1443.6 0.25861 1435.66 4.50044C1427.55 8.83077 1421.55 17.8079 1422.14 31.2808L1424.58 31.1736L1427.02 31.0664C1426.51 19.3311 1431.63 12.1912 1437.96 8.8123C1444.45 5.34494 1452.33 5.73458 1457.55 9.36908L1458.95 7.36295ZM1485.41 33.2403L1487.37 34.6923L1501.01 16.2316L1499.04 14.7796L1497.08 13.3276L1483.44 31.7883L1485.41 33.2403ZM1462.83 11.1609L1464.54 9.41345L1460.66 5.61547L1458.95 7.36295L1457.24 9.11042L1461.12 12.9084L1462.83 11.1609ZM1477.77 171.097L1476.17 172.941C1481.02 177.165 1487.63 179.485 1493.96 179.497C1500.31 179.508 1506.68 177.184 1510.67 171.734L1508.7 170.291L1506.73 168.848C1503.89 172.723 1499.19 174.618 1493.97 174.608C1488.74 174.599 1483.29 172.66 1479.38 169.253L1477.77 171.097ZM1509.35 169.319L1507.28 168.027C1507.1 168.311 1506.92 168.585 1506.73 168.848L1508.7 170.291L1510.67 171.734C1510.94 171.372 1511.19 170.998 1511.43 170.611L1509.35 169.319ZM1462.83 11.1609L1461.12 12.9084L1483.7 34.9877L1485.41 33.2403L1487.12 31.4928L1464.54 9.41347L1462.83 11.1609ZM1298.79 301.519L1297.27 303.435C1305.84 310.221 1312.9 314.575 1320.41 317.358C1327.92 320.14 1335.73 321.293 1345.68 321.885L1345.83 319.445L1345.97 317.006C1336.23 316.426 1328.97 315.314 1322.11 312.774C1315.26 310.236 1308.65 306.213 1300.31 299.604L1298.79 301.519ZM1366.82 221.541L1365.4 223.531L1381.95 235.329L1383.37 233.339L1384.79 231.349L1368.24 219.551L1366.82 221.541ZM1369.54 167.61L1371.33 165.954C1360.23 153.899 1340.72 143.206 1320.87 144.024L1320.97 146.466L1321.07 148.908C1339.19 148.162 1357.38 158.026 1367.74 169.266L1369.54 167.61ZM1320.97 146.466L1320.87 144.024C1301.31 144.829 1282.66 157.71 1273.69 173.753C1269.18 181.816 1267.03 190.836 1268.59 199.659C1270.16 208.53 1275.44 216.91 1285.25 223.704L1286.65 221.694L1288.04 219.685C1279.15 213.532 1274.72 206.227 1273.4 198.805C1272.08 191.334 1273.86 183.454 1277.95 176.138C1286.18 161.424 1303.38 149.637 1321.07 148.908L1320.97 146.466ZM1286.65 221.694L1285.33 223.751L1304.17 235.855L1305.49 233.798L1306.81 231.742L1287.97 219.638L1286.65 221.694ZM1305.49 233.798L1303.85 235.61C1303.97 235.715 1304.13 235.947 1304.1 236.52C1304.06 237.115 1303.81 237.867 1303.34 238.56C1302.88 239.257 1302.32 239.704 1301.86 239.89C1301.48 240.045 1301.15 240.043 1300.75 239.81L1299.52 241.919L1298.28 244.027C1300.1 245.095 1302.03 245.092 1303.69 244.422C1305.27 243.785 1306.53 242.584 1307.4 241.289C1308.27 239.99 1308.88 238.406 1308.98 236.8C1309.07 235.172 1308.62 233.336 1307.13 231.987L1305.49 233.798ZM1299.52 241.919L1300.62 239.74L1282.24 230.394L1281.13 232.573L1280.02 234.752L1298.41 244.097L1299.52 241.919ZM1281.13 232.573L1282.24 230.393C1270.14 224.261 1258.87 229.895 1252.89 238.321C1247.04 246.572 1245.51 258.788 1254.49 265.897L1256 263.982L1257.52 262.066C1251.47 257.274 1251.78 248.347 1256.88 241.149C1261.86 234.126 1270.66 230.006 1280.03 234.753L1281.13 232.573ZM1383.37 233.339L1382.12 235.443C1383.05 235.993 1383.99 236.458 1384.93 236.843L1385.86 234.58L1386.78 232.317C1386.07 232.025 1385.34 231.667 1384.61 231.234L1383.37 233.339ZM1385.86 234.58L1384.93 236.843C1395.75 241.255 1405.75 234.693 1411.47 226.959C1414.38 223.025 1416.43 218.514 1417.1 214.355C1417.76 210.276 1417.16 205.921 1413.86 203.248L1412.32 205.147L1410.78 207.047C1412.1 208.112 1412.82 210.251 1412.28 213.574C1411.75 216.817 1410.08 220.615 1407.54 224.051C1402.36 231.055 1394.51 235.471 1386.78 232.317L1385.86 234.58ZM1345.83 319.445L1345.76 321.888C1356.06 322.197 1365.28 319.954 1373.16 316.014L1372.07 313.828L1370.98 311.642C1363.81 315.224 1355.39 317.286 1345.9 317.002L1345.83 319.445ZM1372.07 313.828L1373.16 316.014C1387.5 308.846 1397.35 296.095 1401.28 283.017C1405.19 269.974 1403.31 256.142 1393.41 247.438L1391.79 249.273L1390.18 251.109C1398.19 258.153 1400.16 269.742 1396.59 281.611C1393.04 293.445 1384.07 305.098 1370.98 311.642L1372.07 313.828ZM1256 263.982L1254.39 265.819L1297.18 303.357L1298.79 301.519L1300.4 299.682L1257.62 262.144L1256 263.982ZM1412.32 205.147L1413.93 203.31L1371.52 166.097L1369.91 167.934L1368.29 169.772L1410.71 206.985L1412.32 205.147ZM1369.54 167.61L1367.92 169.447L1368.29 169.772L1369.91 167.934L1371.52 166.097L1371.15 165.772L1369.54 167.61ZM1391.79 249.273L1393.41 247.436L1363.57 221.258L1361.95 223.095L1360.34 224.933L1390.18 251.11L1391.79 249.273ZM1361.95 223.095L1364.09 224.289C1364.34 223.844 1364.69 223.555 1364.94 223.452C1365.05 223.409 1365.12 223.409 1365.15 223.412C1365.17 223.414 1365.25 223.425 1365.4 223.531L1366.82 221.541L1368.24 219.552C1366.57 218.36 1364.7 218.282 1363.12 218.917C1361.65 219.509 1360.51 220.67 1359.82 221.901L1361.95 223.095ZM870.101 5.20196V2.75781H743.085V5.20196V7.64611H870.101V5.20196ZM743.085 5.20196L743.085 2.75781C699.988 2.75843 673.33 45.3358 694.737 79.8795L696.815 78.592L698.892 77.3045C679.851 46.5786 703.14 7.64668 743.086 7.64611L743.085 5.20196ZM696.815 78.592L694.731 79.8701L729.511 136.56L731.594 135.282L733.678 134.003L698.898 77.3138L696.815 78.592ZM731.594 135.282V132.837H654.221V135.282V137.726H731.594V135.282ZM855.961 95.5988V98.043H903.764V95.5988V93.1547H855.961V95.5988ZM678.998 264.66L677.608 266.67C683.934 271.045 691.684 273.627 700.755 273.627V271.183V268.739C692.656 268.739 685.881 266.448 680.388 262.649L678.998 264.66ZM654.221 135.282V132.837C630.81 132.837 617.107 148.538 612.637 167.053C608.205 185.41 612.667 207.104 625.968 220.025L627.671 218.272L629.374 216.519C617.557 205.039 613.276 185.237 617.389 168.2C621.465 151.32 633.597 137.726 654.221 137.726V135.282ZM678.998 264.66L680.637 262.846L629.31 216.459L627.671 218.272L626.032 220.085L677.359 266.473L678.998 264.66ZM794.106 333.85L791.772 334.577C794.087 342.012 798.172 348.257 803.486 353.382L805.182 351.623L806.879 349.864C802.108 345.261 798.49 339.711 796.44 333.124L794.106 333.85ZM849.085 391.306L850.724 389.492L806.821 349.81L805.182 351.623L803.544 353.436L847.446 393.119L849.085 391.306ZM878.79 7.73339L880.202 5.73845C877.48 3.81151 874.087 2.75781 870.101 2.75781V5.20196V7.64611C873.198 7.64611 875.576 8.45276 877.378 9.72832L878.79 7.73339ZM1049.93 230.275L1052.1 231.396C1058.5 219.014 1056.37 206.279 1048.98 196.476L1047.03 197.946L1045.08 199.417C1051.45 207.877 1053.2 218.608 1047.76 229.154L1049.93 230.275ZM998.053 152.595L996.518 154.497C1022.85 175.752 1039.97 193.441 1045.17 199.532L1047.03 197.946L1048.89 196.36C1043.45 189.991 1026.1 172.094 999.588 150.693L998.053 152.595ZM849.085 391.306L847.247 392.916C859.73 407.164 880.893 413.817 901.894 414.768C922.912 415.719 944.472 410.995 958.11 401.69L956.733 399.671L955.355 397.652C942.862 406.176 922.458 410.805 902.115 409.885C881.754 408.963 862.159 402.519 850.923 389.695L849.085 391.306ZM956.733 399.671L958.11 401.69C963.247 398.186 967.364 393.96 969.839 389.032L967.655 387.935L965.471 386.838C963.466 390.828 960.013 394.475 955.355 397.652L956.733 399.671ZM700.755 271.183V273.627H776.201V271.183V268.739H700.755V271.183ZM776.201 271.183L773.851 271.855L791.756 334.522L794.106 333.85L796.456 333.179L778.552 270.512L776.201 271.183ZM998.053 152.595L999.842 150.931C980.428 130.058 936.256 126.418 904.018 172.896L906.026 174.289L908.035 175.682C938.844 131.263 979.373 136.101 996.263 154.26L998.053 152.595ZM906.026 174.289L908.088 172.977L858.023 94.2868L855.961 95.5988L853.899 96.9108L903.964 175.601L906.026 174.289ZM927.184 51.7801L928.829 49.9726L927.503 48.7657L925.858 50.5733L924.213 52.3808L925.539 53.5877L927.184 51.7801ZM925.858 50.5733L927.503 48.7657L880.435 5.92585L878.79 7.73339L877.145 9.54093L924.213 52.3808L925.858 50.5733ZM903.764 95.5988V98.043C908.722 98.043 913.167 96.829 917.024 94.7598L915.868 92.606L914.713 90.4523C911.552 92.1483 907.898 93.1547 903.764 93.1547V95.5988ZM915.868 92.606L917.024 94.7598C925.444 90.242 930.893 81.7578 933.063 73.2565C935.208 64.85 934.304 55.6873 928.95 50.0905L927.184 51.7801L925.418 53.4697C929.13 57.3499 930.259 64.4737 928.326 72.0477C926.417 79.5269 921.675 86.7172 914.713 90.4523L915.868 92.606ZM967.655 387.935L969.822 389.066L972.302 384.314L970.135 383.183L967.968 382.052L965.488 386.804L967.655 387.935ZM970.135 383.183L972.302 384.314L1052.1 231.406L1049.93 230.275L1047.76 229.144L967.968 382.052L970.135 383.183ZM1377.69 172.053L1375.32 171.451L1354.49 253.421L1356.85 254.023L1359.22 254.625L1380.06 172.655L1377.69 172.053ZM1481.57 146.772V144.328H1408.79V146.772V149.217H1481.57V146.772ZM1408.79 146.772L1408.35 144.368C1399.27 146.029 1392.46 148.185 1387.18 152.351C1381.85 156.55 1378.37 162.553 1375.38 171.259L1377.69 172.053L1380 172.847C1382.85 164.552 1385.93 159.558 1390.21 156.189C1394.52 152.786 1400.34 150.802 1409.23 149.177L1408.79 146.772ZM1421.31 322.51V324.954H1490.72V322.51V320.066H1421.31V322.51ZM1488.59 148.769L1489.98 146.757C1487.69 145.175 1484.86 144.328 1481.57 144.328V146.772V149.217C1483.99 149.217 1485.83 149.831 1487.2 150.78L1488.59 148.769ZM1511.12 275.496L1511.9 277.811C1521.18 274.671 1527.35 267.035 1529.89 259.083C1532.4 251.233 1531.53 242.348 1525.6 237.136L1523.99 238.972L1522.37 240.808C1526.29 244.25 1527.41 250.774 1525.23 257.597C1523.09 264.317 1517.91 270.616 1510.33 273.181L1511.12 275.496ZM1490.72 322.51V324.954C1494.76 324.954 1498.41 324.31 1501.67 323.155L1500.85 320.851L1500.03 318.548C1497.33 319.506 1494.23 320.066 1490.72 320.066V322.51ZM1500.85 320.851L1501.67 323.155C1510.84 319.9 1516.58 312.694 1518.78 305.122C1520.96 297.639 1519.77 289.37 1514.46 284.244L1512.76 286.003L1511.06 287.762C1514.7 291.269 1515.92 297.457 1514.09 303.757C1512.28 309.967 1507.58 315.869 1500.03 318.548L1500.85 320.851ZM1356.85 254.023L1354.47 253.465C1352.44 262.127 1353.34 270.413 1358.23 276.009L1360.07 274.4L1361.91 272.792C1358.47 268.85 1357.39 262.435 1359.23 254.581L1356.85 254.023ZM1408.33 318.516L1406.78 320.403C1410.39 323.374 1415.29 324.954 1421.31 324.954V322.51V320.066C1416.14 320.066 1412.43 318.719 1409.89 316.628L1408.33 318.516ZM1512.76 286.003L1514.4 284.196L1504.35 275.045L1502.71 276.852L1501.06 278.659L1511.11 287.81L1512.76 286.003ZM1502.71 276.852L1502.71 279.296C1506.02 279.292 1509.09 278.763 1511.9 277.811L1511.12 275.496L1510.33 273.181C1508.03 273.96 1505.49 274.404 1502.7 274.408L1502.71 276.852ZM1523.99 238.972L1525.63 237.162L1516.43 228.819L1514.79 230.629L1513.15 232.439L1522.34 240.782L1523.99 238.972ZM1537.15 193.043L1538.8 191.237L1492.3 148.842L1490.65 150.648L1489.01 152.454L1535.5 194.849L1537.15 193.043ZM1488.59 148.769L1486.95 150.575L1489.01 152.454L1490.65 150.648L1492.3 148.842L1490.24 146.963L1488.59 148.769ZM1514.79 230.629V233.073C1517.94 233.073 1520.85 232.593 1523.52 231.718L1522.76 229.396L1522 227.073C1519.83 227.782 1517.43 228.185 1514.79 228.185V230.629ZM1522.76 229.396L1523.52 231.718C1532.72 228.706 1538.69 221.157 1541.35 213.309C1543.96 205.587 1543.58 196.836 1539.01 191.46L1537.15 193.043L1535.29 194.626C1538.3 198.175 1539.04 204.88 1536.72 211.742C1534.44 218.479 1529.42 224.643 1522 227.073L1522.76 229.396ZM1052.69 19.8558L1050.66 18.4859L991.976 105.206L994.001 106.576L996.025 107.945L1054.71 21.2257L1052.69 19.8558ZM1171.47 153.316L1173.88 152.904L1158.31 61.8843L1155.91 62.2963L1153.5 62.7083L1169.06 153.728L1171.47 153.316ZM994.001 106.576L991.723 105.689C987.554 116.396 988.056 124.952 991.947 130.978L994.001 129.652L996.054 128.326C993.302 124.066 992.452 117.288 996.278 107.462L994.001 106.576ZM1103.31 9.98417L1104.84 8.07622C1097.93 2.54029 1087.25 0.774639 1077.09 2.4424C1066.88 4.11845 1056.63 9.34758 1050.64 18.5202L1052.69 19.8558L1054.74 21.1914C1059.78 13.4567 1068.64 8.78274 1077.88 7.26615C1087.17 5.74126 1096.29 7.49345 1101.79 11.8921L1103.31 9.98417ZM1155.91 62.2963L1158.31 61.8456C1157.63 58.2344 1155.98 55.1496 1153.65 52.6313L1151.86 54.292L1150.07 55.9527C1151.81 57.8312 1153 60.0881 1153.5 62.747L1155.91 62.2963ZM1042.56 174.612L1040.82 176.333C1045.5 181.054 1052.43 182.926 1059.4 182.392C1066.39 181.856 1073.69 178.889 1079.37 173.558L1077.7 171.775L1076.03 169.991C1071.19 174.532 1064.95 177.064 1059.03 177.518C1053.08 177.975 1047.7 176.331 1044.3 172.892L1042.56 174.612ZM1077.7 171.775L1079.37 173.558C1080.98 172.057 1082.45 170.367 1083.76 168.49L1081.75 167.095L1079.74 165.7C1078.64 167.287 1077.39 168.718 1076.03 169.991L1077.7 171.775ZM1105.12 11.6346L1106.77 9.82928L1104.96 8.1789L1103.31 9.98417L1101.67 11.7894L1103.47 13.4398L1105.12 11.6346ZM994.001 129.652L992.34 131.446L998.11 136.788L999.77 134.995L1001.43 133.201L995.661 127.859L994.001 129.652ZM1105.12 11.6346L1103.47 13.4398L1150.21 56.0973L1151.86 54.292L1153.51 52.4867L1106.77 9.82927L1105.12 11.6346ZM999.77 134.995L998.11 136.788L1040.9 176.406L1042.56 174.612L1044.22 172.819L1001.43 133.201L999.77 134.995ZM1129.7 176.911L1128.01 178.67C1131.84 182.372 1137.11 184.093 1142.52 184.324C1147.95 184.555 1153.71 183.309 1158.81 180.867C1168.97 176.009 1177.2 165.957 1173.84 152.714L1171.47 153.316L1169.1 153.917C1171.68 164.088 1165.62 172.192 1156.71 176.458C1152.27 178.578 1147.3 179.635 1142.73 179.44C1138.15 179.245 1134.15 177.808 1131.4 175.152L1129.7 176.911ZM1096.12 146.283L1094.48 148.089L1128.06 178.717L1129.7 176.911L1131.35 175.105L1097.77 144.477L1096.12 146.283ZM1081.75 167.095L1083.76 168.484L1098.13 147.672L1096.12 146.283L1094.11 144.894L1079.74 165.707L1081.75 167.095ZM1019.17 172.053L1016.8 171.451L995.963 253.421L998.332 254.023L1000.7 254.625L1021.54 172.655L1019.17 172.053ZM1123.05 146.772V144.328H1050.27V146.772V149.217H1123.05V146.772ZM1050.27 146.772L1049.83 144.368C1040.74 146.029 1033.94 148.185 1028.66 152.351C1023.33 156.55 1019.85 162.553 1016.86 171.259L1019.17 172.053L1021.48 172.847C1024.33 164.552 1027.41 159.558 1031.68 156.189C1036 152.786 1041.82 150.802 1050.71 149.177L1050.27 146.772ZM1062.79 322.51V324.954H1132.2V322.51V320.066H1062.79V322.51ZM1130.07 148.769L1131.46 146.757C1129.17 145.175 1126.33 144.328 1123.05 144.328V146.772V149.217C1125.47 149.217 1127.31 149.831 1128.68 150.78L1130.07 148.769ZM1152.59 275.496L1153.38 277.811C1162.65 274.671 1168.83 267.035 1171.37 259.083C1173.87 251.233 1173.01 242.348 1167.08 237.136L1165.46 238.972L1163.85 240.808C1167.77 244.25 1168.89 250.774 1166.71 257.597C1164.57 264.317 1159.39 270.616 1151.81 273.181L1152.59 275.496ZM1132.2 322.51V324.954C1136.23 324.954 1139.89 324.31 1143.14 323.155L1142.33 320.851L1141.51 318.548C1138.81 319.506 1135.71 320.066 1132.2 320.066V322.51ZM1142.33 320.851L1143.14 323.155C1152.32 319.9 1158.05 312.694 1160.26 305.122C1162.43 297.639 1161.25 289.37 1155.93 284.244L1154.24 286.003L1152.54 287.762C1156.17 291.269 1157.4 297.457 1155.56 303.757C1153.76 309.967 1149.06 315.869 1141.51 318.548L1142.33 320.851ZM998.332 254.023L995.952 253.465C993.921 262.127 994.818 270.413 999.711 276.009L1001.55 274.4L1003.39 272.792C999.945 268.85 998.869 262.435 1000.71 254.581L998.332 254.023ZM1049.81 318.516L1048.26 320.403C1051.87 323.374 1056.77 324.954 1062.79 324.954V322.51V320.066C1057.62 320.066 1053.91 318.719 1051.36 316.628L1049.81 318.516ZM1154.24 286.003L1155.88 284.196L1145.83 275.045L1144.19 276.852L1142.54 278.659L1152.59 287.81L1154.24 286.003ZM1144.19 276.852L1144.19 279.296C1147.49 279.292 1150.57 278.763 1153.38 277.811L1152.59 275.496L1151.81 273.181C1149.51 273.96 1146.96 274.404 1144.18 274.408L1144.19 276.852ZM1165.46 238.972L1167.11 237.162L1157.91 228.819L1156.27 230.629L1154.63 232.439L1163.82 240.782L1165.46 238.972ZM1178.63 193.043L1180.27 191.237L1133.78 148.842L1132.13 150.648L1130.48 152.454L1176.98 194.849L1178.63 193.043ZM1130.07 148.769L1128.42 150.575L1130.48 152.454L1132.13 150.648L1133.78 148.842L1131.72 146.963L1130.07 148.769ZM1156.27 230.629V233.073C1159.41 233.073 1162.33 232.593 1165 231.718L1164.24 229.396L1163.48 227.073C1161.31 227.782 1158.91 228.185 1156.27 228.185V230.629ZM1164.24 229.396L1165 231.718C1174.2 228.706 1180.17 221.157 1182.82 213.309C1185.44 205.587 1185.06 196.836 1180.49 191.46L1178.63 193.043L1176.76 194.626C1179.78 198.175 1180.52 204.88 1178.19 211.742C1175.91 218.479 1170.9 224.643 1163.48 227.073L1164.24 229.396ZM1157.92 27.8776L1155.55 27.2868L1134.41 112.168L1136.78 112.759L1139.15 113.35L1160.3 28.4684L1157.92 27.8776ZM1251.54 2.44409V-5.50747e-05H1184.43V2.44409V4.88824H1251.54V2.44409ZM1184.43 2.44409V-5.50747e-05C1178.2 -5.50747e-05 1171.81 3.0848 1166.64 7.9155C1161.43 12.7716 1157.26 19.5613 1155.54 27.3501L1157.92 27.8776L1160.31 28.4052C1161.81 21.6385 1165.45 15.7114 1169.97 11.4896C1174.52 7.24244 1179.78 4.88824 1184.43 4.88824V2.44409ZM1300.68 145.853L1303.12 145.8L1302.66 124.504L1300.22 124.556L1297.77 124.609L1298.23 145.906L1300.68 145.853ZM1136.78 112.759L1134.39 112.235C1132.58 120.496 1134.7 127.408 1139.35 132.015L1141.07 130.278L1142.79 128.542C1139.47 125.256 1137.67 120.114 1139.17 113.282L1136.78 112.759ZM1141.07 130.278L1139.42 132.086L1187.69 176.016L1189.33 174.208L1190.98 172.401L1142.71 128.471L1141.07 130.278ZM1189.33 174.208L1187.87 176.165C1197.66 183.502 1214.1 181.574 1225.43 167.946L1223.55 166.383L1221.67 164.821C1211.61 176.925 1198.05 177.681 1190.8 172.252L1189.33 174.208ZM1269.46 7.85617L1270.87 5.85928C1265.59 2.13271 1259.04 -5.50747e-05 1251.54 -5.50747e-05V2.44409V4.88824C1258.09 4.88824 1263.64 6.73887 1268.05 9.85307L1269.46 7.85617ZM1300.22 124.556L1301.57 126.594C1303.7 125.182 1305.71 123.718 1307.6 122.211L1306.08 120.299L1304.56 118.388C1302.78 119.804 1300.88 121.183 1298.87 122.518L1300.22 124.556ZM1306.08 120.299L1307.6 122.211C1335.09 100.314 1337.39 68.8771 1322.28 52.5688L1320.49 54.2301L1318.69 55.8914C1331.31 69.5117 1330.51 97.7066 1304.56 118.388L1306.08 120.299ZM1256.9 171.569L1255.19 173.32C1262.51 180.443 1274.93 180.489 1284.96 175.645C1295.17 170.711 1303.66 160.4 1303.12 145.763L1300.68 145.853L1298.23 145.944C1298.69 158.315 1291.61 167.003 1282.83 171.244C1273.86 175.577 1263.9 174.976 1258.6 169.818L1256.9 171.569ZM1232.78 148.322L1231.09 150.081L1255.2 173.329L1256.9 171.569L1258.59 169.809L1234.48 146.562L1232.78 148.322ZM1274.65 12.5713L1276.29 10.7626L1271.11 6.04747L1269.46 7.85617L1267.82 9.66488L1273.01 14.38L1274.65 12.5713ZM1320.49 54.2301L1322.13 52.4214L1276.29 10.7626L1274.65 12.5713L1273.01 14.38L1318.84 56.0388L1320.49 54.2301ZM1223.55 166.383L1225.43 167.946C1229.44 163.127 1232.82 156.856 1235.13 149.012L1232.78 148.322L1230.44 147.631C1228.29 154.912 1225.21 160.571 1221.67 164.821L1223.55 166.383ZM1289.99 27.8776L1287.62 27.2868L1266.48 112.168L1268.85 112.759L1271.22 113.35L1292.37 28.4684L1289.99 27.8776ZM1383.61 2.44409V-5.50747e-05H1316.5V2.44409V4.88824H1383.61V2.44409ZM1316.5 2.44409V-5.50747e-05C1310.28 -5.50747e-05 1303.89 3.0848 1298.71 7.91551C1293.5 12.7716 1289.33 19.5613 1287.61 27.3501L1289.99 27.8776L1292.38 28.4052C1293.88 21.6385 1297.52 15.7114 1302.04 11.4896C1306.59 7.24243 1311.85 4.88824 1316.5 4.88824V2.44409ZM1432.75 145.853L1435.19 145.8L1434.73 124.504L1432.29 124.556L1429.85 124.609L1430.3 145.906L1432.75 145.853ZM1268.85 112.759L1266.46 112.235C1264.65 120.496 1266.77 127.408 1271.42 132.015L1273.14 130.278L1274.86 128.542C1271.54 125.256 1269.74 120.114 1271.24 113.282L1268.85 112.759ZM1273.14 130.278L1271.49 132.086L1319.76 176.016L1321.4 174.208L1323.05 172.401L1274.78 128.471L1273.14 130.278ZM1321.4 174.208L1319.94 176.165C1329.73 183.502 1346.18 181.574 1357.5 167.946L1355.62 166.383L1353.74 164.821C1343.68 176.925 1330.12 177.681 1322.87 172.252L1321.4 174.208ZM1401.53 7.85617L1402.94 5.85928C1397.66 2.13271 1391.11 -5.50747e-05 1383.61 -5.50747e-05V2.44409V4.88824C1390.16 4.88824 1395.71 6.73887 1400.12 9.85307L1401.53 7.85617ZM1432.29 124.556L1433.64 126.594C1435.77 125.182 1437.78 123.718 1439.67 122.211L1438.15 120.299L1436.63 118.388C1434.85 119.804 1432.96 121.183 1430.94 122.518L1432.29 124.556ZM1438.15 120.299L1439.67 122.211C1467.16 100.314 1469.46 68.8771 1454.35 52.5688L1452.56 54.2301L1450.76 55.8914C1463.39 69.5117 1462.59 97.7066 1436.63 118.388L1438.15 120.299ZM1388.97 171.569L1387.26 173.32C1394.58 180.443 1407.01 180.489 1417.03 175.645C1427.24 170.711 1435.73 160.4 1435.19 145.763L1432.75 145.853L1430.31 145.944C1430.76 158.315 1423.68 167.003 1414.9 171.244C1405.94 175.577 1395.97 174.976 1390.67 169.818L1388.97 171.569ZM1364.85 148.322L1363.16 150.081L1387.27 173.329L1388.97 171.569L1390.67 169.809L1366.55 146.562L1364.85 148.322ZM1406.72 12.5713L1408.37 10.7626L1403.18 6.04747L1401.53 7.85617L1399.89 9.66488L1405.08 14.38L1406.72 12.5713ZM1452.56 54.2301L1454.2 52.4214L1408.37 10.7626L1406.72 12.5713L1405.08 14.38L1450.91 56.0388L1452.56 54.2301ZM1355.62 166.383L1357.5 167.946C1361.51 163.127 1364.89 156.856 1367.2 149.012L1364.85 148.322L1362.51 147.631C1360.37 154.912 1357.28 160.571 1353.74 164.821L1355.62 166.383ZM1141.07 172.512L1138.7 171.922L1117.55 256.803L1119.93 257.394L1122.3 257.984L1143.44 173.103L1141.07 172.512ZM1234.68 147.079V144.635H1167.58V147.079V149.523H1234.68V147.079ZM1167.58 147.079V144.635C1161.35 144.635 1154.96 147.72 1149.78 152.55C1144.58 157.406 1140.41 164.196 1138.68 171.985L1141.07 172.512L1143.46 173.04C1144.95 166.273 1148.59 160.346 1153.12 156.124C1157.67 151.877 1162.92 149.523 1167.58 149.523V147.079ZM1283.82 290.488L1286.27 290.435L1285.81 269.138L1283.36 269.191L1280.92 269.244L1281.38 290.541L1283.82 290.488ZM1119.93 257.394L1117.54 256.87C1115.73 265.131 1117.84 272.043 1122.49 276.649L1124.21 274.913L1125.93 273.177C1122.62 269.89 1120.82 264.749 1122.31 257.917L1119.93 257.394ZM1124.21 274.913L1122.57 276.721L1170.83 320.651L1172.48 318.843L1174.12 317.036L1125.86 273.106L1124.21 274.913ZM1172.48 318.843L1171.01 320.8C1180.81 328.137 1197.25 326.209 1208.58 312.581L1206.7 311.018L1204.82 309.456C1194.76 321.56 1181.19 322.316 1173.94 316.887L1172.48 318.843ZM1252.61 152.491L1254.02 150.494C1248.74 146.768 1242.19 144.635 1234.68 144.635V147.079V149.523C1241.23 149.523 1246.79 151.374 1251.2 154.488L1252.61 152.491ZM1283.36 269.191L1284.71 271.229C1286.85 269.817 1288.86 268.353 1290.75 266.846L1289.23 264.934L1287.7 263.022C1285.93 264.439 1284.03 265.818 1282.01 267.153L1283.36 269.191ZM1289.23 264.934L1290.75 266.846C1318.23 244.949 1320.54 213.512 1305.42 197.204L1303.63 198.865L1301.84 200.526C1314.46 214.147 1313.66 242.341 1287.7 263.022L1289.23 264.934ZM1240.04 316.204L1238.34 317.955C1245.66 325.078 1258.08 325.123 1268.1 320.28C1278.31 315.346 1286.81 305.035 1286.27 290.398L1283.82 290.488L1281.38 290.578C1281.84 302.95 1274.75 311.637 1265.98 315.879C1257.01 320.211 1247.05 319.61 1241.75 314.453L1240.04 316.204ZM1215.93 292.956L1214.23 294.716L1238.35 317.963L1240.04 316.204L1241.74 314.444L1217.63 291.197L1215.93 292.956ZM1257.8 157.206L1259.44 155.397L1254.25 150.682L1252.61 152.491L1250.96 154.3L1256.15 159.015L1257.8 157.206ZM1303.63 198.865L1305.28 197.056L1259.44 155.397L1257.8 157.206L1256.15 159.015L1301.99 200.674L1303.63 198.865ZM1206.7 311.018L1208.58 312.581C1212.58 307.762 1215.96 301.491 1218.27 293.647L1215.93 292.956L1213.58 292.266C1211.44 299.547 1208.35 305.206 1204.82 309.456L1206.7 311.018ZM1360.07 274.4L1358.43 276.204L1406.69 320.32L1408.33 318.516L1409.98 316.712L1361.72 272.596L1360.07 274.4ZM1001.55 274.4L999.902 276.204L1048.16 320.32L1049.81 318.516L1051.46 316.712L1003.2 272.596L1001.55 274.4Z" fill="white" mask="url(#path-3-outside-1_2_330)"/>
<path d="M870.101 4.73992H743.085C701.564 4.74052 676.59 45.4951 696.815 78.1299L731.594 134.819H654.221C598.604 134.819 601.055 228.281 654.221 228.281H764.076L794.106 333.388C809.274 382.113 905.033 377.057 921.121 345.032L1003.4 187.372C1025.31 144.934 939.507 98.8162 894.155 194.573L877.302 260.915H921.121L884.656 282.212L887.72 315.766L859.529 296.308L822.451 315.766L841.909 283.285L816.169 260.915H864.738L882.664 189.364C886.188 175.27 881.94 167.346 874.544 155.044L809.428 52.6962H857.231C887.107 52.6962 895.534 4.73992 870.101 4.73992Z" fill="white"/>
<path d="M924.032 52.6962L907.638 117.202C901.509 145.24 957.893 149.377 967.239 117.202L983.939 52.6962H996.962C1028.06 52.6962 1037.56 4.73992 1010.6 4.73992H921.887C884.503 7.34697 881.438 52.6962 908.864 52.6962H924.032Z" fill="white"/>
<path fill-rule="evenodd" clip-rule="evenodd" d="M1157.68 27.8778L1136.54 112.759C1130.26 141.41 1176.07 148.151 1186.95 102.34L1190.01 88.8573H1203.5L1205.18 117.202C1206.56 145.547 1255.13 136.507 1253.9 103.413L1253.44 82.1158C1297.42 53.005 1286.69 2.44409 1251.3 2.44409H1184.19C1173.31 2.44409 1160.9 13.3223 1157.68 27.8778ZM1201.04 42.1267C1199.04 44.8618 1199.01 46.8257 1198.75 50.2471H1219.74C1224.18 48.4085 1224.64 42.4332 1219.74 42.1267H1201.04Z" fill="white"/>
<path fill-rule="evenodd" clip-rule="evenodd" d="M1290.22 27.8778L1269.07 112.759C1262.79 141.41 1308.6 148.151 1319.48 102.34L1322.54 88.8573H1336.03L1337.71 117.202C1339.09 145.547 1387.66 136.507 1386.43 103.413L1385.97 82.1158C1429.95 53.005 1419.22 2.44409 1383.83 2.44409H1316.72C1305.84 2.44409 1293.43 13.3223 1290.22 27.8778ZM1333.58 42.1267C1331.57 44.8618 1331.54 46.8257 1331.28 50.2471H1352.27C1356.71 48.4085 1357.17 42.4332 1352.27 42.1267H1333.58Z" fill="white"/>
<path d="M1478.17 43.046L1499.04 14.7796C1513.03 -7.7423 1558.69 0.837237 1537.65 38.3747L1474.99 128.925C1464.3 146.085 1427.14 132.909 1439.36 106.862L1448.82 86.2526L1424.58 31.1736C1423.19 -0.380716 1460.16 -3.44595 1465.38 16.6189L1478.17 43.046Z" fill="white"/>
<path fill-rule="evenodd" clip-rule="evenodd" d="M1141.73 173.318L1120.59 258.199C1114.31 286.85 1160.12 293.591 1171 247.78L1174.06 234.297H1187.54L1189.23 262.642C1190.61 290.987 1239.18 281.947 1237.95 248.852L1237.49 227.556C1281.47 198.445 1270.74 147.884 1235.35 147.884H1168.24C1157.36 147.884 1144.95 158.762 1141.73 173.318ZM1185.09 187.567C1183.08 190.302 1183.06 192.265 1182.8 195.687H1203.79C1208.23 193.848 1208.69 187.873 1203.79 187.567H1185.09Z" fill="white"/>
<path d="M1019.17 172.095L998.332 254.065C994.954 268.469 1000.47 280.111 1016.26 280.111H1085.66C1116.61 280.111 1120.9 239.662 1097 239.662H1049.81L1050.73 234.453H1097.61C1125.8 234.453 1133.77 193.085 1108.49 193.085H1061.46L1062.22 188.029H1108.49C1136.52 188.029 1144.49 146.814 1123.05 146.814H1050.27C1032.29 150.1 1025.01 155.094 1019.17 172.095Z" fill="white"/>
<path d="M1369.11 167.039C1358.38 155.391 1339.53 145.113 1320.54 145.895C1283.3 147.429 1248.83 195.23 1286.22 221.123L1305.07 233.227C1308.28 236.135 1303.53 243.949 1299.09 241.348L1280.71 232.002C1259.25 221.123 1240.56 251.509 1255.58 263.411C1272.49 276.806 1282.92 280.165 1302.62 281.337C1348.58 282.713 1371.4 231.233 1348.58 211.164L1318.86 188.489C1316.7 186.341 1320.38 181.131 1323.61 183.433L1340.15 195.23C1359.6 206.718 1378.76 174.85 1369.11 167.039Z" fill="white"/>
<path d="M1377.99 172.095L1357.15 254.065C1353.78 268.469 1359.29 280.111 1375.08 280.111H1444.49C1475.43 280.111 1479.72 239.662 1455.82 239.662H1408.63L1409.55 234.453H1456.44C1484.62 234.453 1492.59 193.085 1467.31 193.085H1420.28L1421.04 188.029H1467.31C1495.35 188.029 1503.31 146.814 1481.87 146.814H1409.09C1391.12 150.1 1383.83 155.094 1377.99 172.095Z" fill="white"/>
<path fill-rule="evenodd" clip-rule="evenodd" d="M993.759 106.469C980.276 141.094 1019.96 146.15 1034.97 124.548L1056.54 93.3005H1071.59L1078.73 127.162C1085.23 150.603 1131.51 137.58 1124.69 110.768L1109.13 19.7488C1105.31 -0.630632 1066.24 -1.39671 1052.45 19.7488L993.759 106.469ZM1075.07 61.4537H1066.94L1072.91 52.4141L1075.07 61.4537Z" fill="white"/>
</svg>
