<svg width="337" height="196" viewBox="0 0 337 196" fill="none" xmlns="http://www.w3.org/2000/svg">
<path d="M77.5454 15.7448L75.778 15.9953C75.7321 15.6134 75.7016 15.227 75.6863 14.8359L77.4598 14.396C77.4629 14.8512 77.4919 15.3018 77.5438 15.7433L77.5454 15.7448Z" fill="white"/>
<path d="M101.924 6.49835L100.074 6.95662C97.8042 3.82355 94.1151 1.78575 89.9509 1.78575C83.645 1.78575 78.4298 6.45863 77.5805 12.5293L75.7321 12.9875C76.3844 5.70706 82.5009 0 89.9509 0C94.966 0 99.3776 2.5862 101.924 6.49835Z" fill="white"/>
<path d="M86.7017 27.0047C86.7017 27.4996 86.3 27.8998 85.8066 27.8998C85.7348 27.8998 85.6645 27.8922 85.5973 27.8754C85.5973 27.8754 85.5957 27.8754 85.5942 27.8754C85.5514 27.8616 85.5087 27.8494 85.4674 27.8341C85.4674 27.8341 85.4674 27.8341 85.4659 27.8341C80.8587 26.3111 77.2903 22.5029 76.1018 17.7521L77.8784 17.5C78.9614 21.5665 82.0441 24.8172 86.0082 26.1339C86.0586 26.1507 86.1075 26.1675 86.1579 26.1828C86.4772 26.3188 86.7002 26.6365 86.7002 27.0062L86.7017 27.0047Z" fill="white"/>
<path d="M105.378 5.75441C105.355 5.75441 105.331 5.75441 105.308 5.75441C105.08 5.75747 104.859 5.78191 104.642 5.82315C104.642 5.82315 104.642 5.82315 104.64 5.82315L104.249 5.91939H104.246L77.5805 12.5293L75.7321 12.9875L72.3058 13.8369C72.2569 13.8521 72.208 13.8689 72.1606 13.8888C71.3327 14.2111 70.7461 15.0162 70.7461 15.9572C70.7461 17.1823 71.7406 18.1767 72.9672 18.1767C72.9825 18.1767 72.9993 18.1767 73.0146 18.1767C73.0818 18.1767 73.1475 18.1706 73.2116 18.1645L73.3476 18.1447H73.3613L93.4888 15.2835H93.4918C93.5086 15.2789 93.5254 15.2759 93.5422 15.2759H93.5484C93.5652 15.2728 93.5804 15.2728 93.5988 15.2728C93.8875 15.2728 94.1243 15.5019 94.1441 15.7906C94.1441 15.8029 94.1441 15.8151 94.1441 15.8288C94.1441 15.8426 94.1441 15.8533 94.1441 15.867V23.9724C94.1426 24.0136 94.1411 24.0564 94.1411 24.0977C94.1411 24.753 94.3992 25.3487 94.8193 25.7872C95.2638 26.2516 95.8901 26.5418 96.5837 26.5418C96.9839 26.5418 97.3627 26.4456 97.6957 26.2745C97.8607 26.1675 98.0227 26.0591 98.1815 25.946C101.839 23.3598 104.226 19.0994 104.226 14.2799C104.226 13.9606 104.215 13.6444 104.194 13.3312C104.148 12.624 104.051 11.932 103.904 11.2568C103.743 10.5083 103.522 9.78113 103.249 9.07997C103.12 8.75306 102.981 8.43074 102.83 8.11606L104.73 7.64556C104.897 7.60279 105.071 7.57988 105.251 7.57988C106.403 7.57988 107.336 8.51323 107.336 9.66503C107.336 10.6824 106.606 11.5302 105.642 11.7135C105.664 11.7105 105.685 11.7074 105.708 11.7059L105.598 11.7212H105.595C105.338 11.7746 105.121 11.9396 104.998 12.1611C104.926 12.2894 104.885 12.4376 104.885 12.5949C104.885 12.8424 104.985 13.067 105.149 13.2289C105.311 13.3878 105.532 13.4871 105.777 13.4871C105.807 13.4871 105.838 13.4871 105.868 13.4825C105.876 13.4825 105.882 13.4809 105.89 13.4794C105.9 13.4779 105.911 13.4764 105.922 13.4748C106.154 13.4427 106.38 13.3893 106.599 13.316C108.141 12.8042 109.253 11.35 109.253 9.63448C109.253 7.49281 107.517 5.75594 105.375 5.75594L105.378 5.75441ZM101.055 8.55142C101.217 8.86458 101.367 9.1869 101.502 9.51533C101.813 10.2654 102.051 11.0536 102.211 11.8693C102.363 12.6484 102.443 13.4519 102.443 14.2753C102.443 17.7124 101.055 20.8256 98.8078 23.0849C98.2915 23.6027 97.7324 24.0763 97.1321 24.4979C97.0526 24.5941 96.9457 24.669 96.8235 24.7087C96.7548 24.7316 96.683 24.7438 96.6081 24.7438C96.2323 24.7438 95.9268 24.4383 95.9268 24.0625V15.7402C95.9268 14.5472 95.0087 13.5695 93.8401 13.4764C93.779 13.4718 93.7179 13.4687 93.6568 13.4687C93.611 13.4687 93.5667 13.4687 93.5224 13.4733L72.9565 16.394L72.9153 16.4002C72.9015 16.4017 72.8862 16.4032 72.871 16.4032C72.6342 16.4032 72.4417 16.2107 72.4417 15.974C72.4417 15.783 72.5685 15.6196 72.7426 15.5646H72.7442C72.7595 15.5585 72.7763 15.5554 72.7931 15.5523L101.058 8.5499" fill="white"/>
<path d="M127.75 9.25526L121.706 24.5893H118.035L124.728 7.6456C125.434 5.86651 126.733 5.18876 128.738 5.18876C130.715 5.18876 132.014 5.86651 132.691 7.6456L139.13 24.5893H135.431L129.642 9.25526C129.472 8.80342 129.162 8.60575 128.71 8.60575C128.258 8.60575 127.947 8.80342 127.75 9.25526Z" fill="white"/>
<path d="M146.562 9.36619H155.01V12.3071H146.591C145.178 12.3071 144.602 12.8837 144.602 14.037C144.602 15.1038 145.063 15.6804 146.764 15.6804H150.339C154.549 15.6804 155.615 17.6121 155.615 19.9764C155.615 22.6866 154.203 24.5895 150.627 24.5895H141.776V21.6198H150.627C152.04 21.6198 152.617 21.1296 152.617 19.9475C152.617 18.7366 151.982 18.2464 150.454 18.2464H146.85C142.641 18.2464 141.603 16.1417 141.603 13.8063C141.603 11.0673 143.016 9.36619 146.562 9.36619Z" fill="white"/>
<path d="M157.689 9.36619H159.765V5.7622H162.85V9.36619H167.06V12.3071H162.85V19.515C162.85 21.2161 163.456 21.7928 164.897 21.7928H167.002V24.5895H164.263C161.12 24.5895 159.765 23.3209 159.765 19.3421V12.3071H157.689V9.36619Z" fill="white"/>
<path d="M174.124 9.36619H180.38V12.3071H175.017C173.662 12.3071 173.057 12.9414 173.057 14.2676V24.5895H170.001V13.8063C170.001 10.7501 171.125 9.36619 174.124 9.36619Z" fill="white"/>
<path d="M189.257 9.36619H192.458C196.494 9.36619 199.06 11.8457 199.06 16.9778C199.06 22.1099 196.494 24.5895 192.458 24.5895H189.257C185.192 24.5895 182.655 22.1099 182.655 16.9778C182.655 11.8457 185.192 9.36619 189.257 9.36619ZM192.169 12.3071H189.546C186.893 12.3071 185.74 13.691 185.74 16.9778C185.74 20.2647 186.893 21.6198 189.546 21.6198H192.169C194.793 21.6198 195.975 20.2647 195.975 16.9778C195.975 13.691 194.793 12.3071 192.169 12.3071Z" fill="white"/>
<path d="M201.191 9.36619H203.267V5.7622H206.352V9.36619H210.561V12.3071H206.352V19.515C206.352 21.2161 206.957 21.7928 208.399 21.7928H210.503V24.5895H207.764C204.622 24.5895 203.267 23.3209 203.267 19.3421V12.3071H201.191V9.36619Z" fill="white"/>
<path d="M218.519 9.36619H223.449C227.053 9.36619 228.581 11.0961 228.581 14.037C228.581 16.8337 227.168 18.4194 223.42 18.4194H216.183V19.515C216.183 20.726 216.846 21.6198 218.519 21.6198H227.831V24.5895H218.519C214.713 24.5895 213.214 22.4559 213.214 19.5727V14.383C213.214 11.4998 214.713 9.36619 218.519 9.36619ZM216.183 14.4118V16.0264H223.334C224.977 16.0264 225.583 15.3344 225.583 14.21C225.583 13.0567 224.919 12.3071 223.42 12.3071H218.519C216.846 12.3071 216.183 13.2297 216.183 14.4118Z" fill="white"/>
<path d="M238.221 9.36619H246.063V12.3071H238.509C235.857 12.3071 234.703 13.691 234.703 16.9778C234.703 20.2647 235.857 21.6198 238.509 21.6198H246.063V24.5895H238.221C234.156 24.5895 231.618 22.1099 231.618 16.9778C231.618 11.8457 234.156 9.36619 238.221 9.36619Z" fill="white"/>
<path d="M249.683 2.76367H252.74V9.36619H258.102C263.234 9.36619 265.772 11.8457 265.772 16.0264V24.5895H262.687V16.0264C262.687 13.691 261.274 12.3071 258.102 12.3071H252.74V24.5895H249.683V2.76367Z" fill="white"/>
<mask id="path-3-outside-1_2_270" maskUnits="userSpaceOnUse" x="-0.557617" y="48.7979" width="337" height="147" fill="black">
<rect fill="white" x="-0.557617" y="48.7979" width="337" height="147"/>
<path d="M109.205 69.2268L103.571 91.3955C103.146 93.3379 103.595 94.9465 104.608 96.1864L119.138 107.038C124.247 110.229 134.658 108.664 136.936 100.821L124.054 91.3955L129.793 69.2268L142.675 78.6521H147.151C149.329 78.6521 151.198 77.9679 152.717 76.8784L139.816 67.4665C144.471 64.1424 145.837 57.0113 142.675 54.0631C141.795 53.2423 140.564 52.7456 138.955 52.7456H108.468C95.6201 53.6416 94.567 69.2268 103.992 69.2268H109.205Z"/>
<path d="M129.793 69.2268L124.054 91.3955L136.936 100.821L142.675 78.6521L129.793 69.2268Z"/>
<path d="M155.665 63.5927L142.675 54.0631C145.837 57.0113 144.471 64.1424 139.816 67.4665L152.717 76.8784C157.303 73.5873 158.682 66.5975 155.665 63.5927Z"/>
<path d="M298.537 95.2655L320.073 64.1461L331.884 78.0285C334.464 73.4249 334.125 70.0887 332.404 68.0532L319.902 53.4828C316.48 50.5982 309.686 51.3968 306.804 56.0372L302.118 62.3816L299.63 65.7515L295.234 56.6693C295.049 55.9591 294.749 55.3331 294.359 54.7936L293.024 53.4883C288.865 50.5934 280.833 53.008 281.213 61.6713L289.543 80.6004L286.291 87.6831C284.804 90.8549 285.447 93.4714 287.061 95.2655L299.494 109.759C302.508 112.381 307.778 112.687 310.122 109.482L298.537 95.2655Z"/>
<path d="M295.234 56.6693L299.63 65.7515L302.118 62.3816L294.359 54.7936C294.749 55.3331 295.049 55.9591 295.234 56.6693Z"/>
<path d="M310.348 109.148L331.884 78.0285L320.073 64.1461L298.537 95.2655L310.122 109.482C310.201 109.374 310.276 109.263 310.348 109.148Z"/>
<path d="M277.001 121.461L262.424 108.672C265.279 111.385 259.591 121.061 253.373 118.743L267.906 131.576C274.279 134.176 280.174 124.031 277.001 121.461Z"/>
<path d="M262.297 108.56C258.608 104.558 252.131 101.025 245.605 101.294C232.807 101.821 220.959 118.249 233.81 127.148L240.286 131.308C241.39 132.307 239.757 134.992 238.233 134.098L231.914 130.886C224.54 127.148 218.116 137.59 223.279 141.681C229.089 146.284 232.674 147.439 239.444 147.841C242.867 147.944 245.917 147.193 248.515 145.884L263.167 158.811C272.595 154.099 276.101 142.038 269.946 136.626L259.691 127.629L255.241 123.725L245.025 115.932C244.286 115.194 245.549 113.404 246.658 114.195L252.344 118.249C252.688 118.452 253.031 118.615 253.373 118.743C259.591 121.061 265.279 111.385 262.424 108.672L262.297 108.56Z"/>
<path d="M237.984 154.581C243.794 159.185 247.379 160.339 254.149 160.742C257.549 160.844 260.581 160.104 263.167 158.811L248.515 145.884C245.917 147.193 242.867 147.944 239.444 147.841C232.674 147.439 229.089 146.284 223.279 141.681L237.984 154.581Z"/>
<path d="M261.363 127.095L267.05 131.15C267.335 131.318 267.621 131.46 267.906 131.576L253.373 118.743C253.031 118.615 252.688 118.452 252.344 118.249L246.658 114.195C245.549 113.404 244.286 115.194 245.025 115.932L255.241 123.725L259.691 127.629C260.013 127.053 260.715 126.633 261.363 127.095Z"/>
<path d="M96.7106 159.636L95.6574 148.105L96.7106 147.49L88.8123 140.786H72.1205L80.9666 148.473L86.3601 153.296L87.022 152.949L96.7106 159.636Z"/>
<path d="M108.189 140.786H93.13L98.9917 146.157L108.189 140.786Z"/>
<path d="M80.9666 148.473L74.2794 159.636L86.3601 153.296L80.9666 148.473Z"/>
<path d="M94.9729 116.195L88.8123 140.786L96.7106 147.49L98.9917 146.157L93.13 140.786L98.4136 119.988L94.9729 116.195Z"/>
<path d="M85.7959 83.8124H102.224C103.787 83.8124 105.178 83.4308 106.384 82.7839L93.0624 65.3829H65.8922L85.7959 83.8124Z"/>
<path fill-rule="evenodd" clip-rule="evenodd" d="M90.6552 52.7456H47.0038C32.7342 52.7459 24.1513 66.752 31.1019 77.9676L43.0547 97.4502H16.4637C1.33005 97.4502 -1.29328 117.586 7.33934 125.972L24.9789 141.914C27.0097 143.318 29.5056 144.156 32.456 144.156H58.3848L64.538 165.692C65.2881 168.102 66.6118 170.129 68.3447 171.8L83.4328 185.438C91.5842 194.742 111.448 194.44 120.428 188.313C122.111 187.165 123.412 185.812 124.182 184.28L125.034 182.647L105.594 170.536L134.629 103.4C128.39 96.6934 113.835 95.2366 103.002 110.856L85.7959 83.8124L65.8922 65.3829H93.0624L106.384 82.7839C111.671 79.9476 113.389 72.0101 110.273 68.7532L109.817 68.3384L93.6416 53.6156C92.8641 53.0653 91.8725 52.7456 90.6552 52.7456ZM93.13 140.786H108.189L98.9917 146.157L96.7106 147.49L95.6574 148.105L96.7106 159.636L87.022 152.949L86.3601 153.296L74.2794 159.636L80.9666 148.473L72.1205 140.786H88.8123L94.9729 116.195L98.4136 119.988L93.13 140.786Z"/>
<path d="M152.458 130.097C154.492 126.157 153.825 122.125 151.46 118.986C149.634 116.845 143.711 110.73 134.629 103.4L105.594 170.536L125.034 182.647L152.458 130.097Z"/>
<path d="M308.064 146.104L295.73 134.874C298.597 138.017 296.98 144.949 291.049 146.766L307.425 161.225C313.173 159.186 314.594 152.216 311.518 149.249L308.064 146.104Z"/>
<path d="M312.217 130.218L299.904 119.044C302.606 122.408 300.3 129.608 294.472 131.202L310.953 145.638C316.745 143.677 318.76 136.059 315.376 133.086L312.217 130.218Z"/>
<path d="M319.9 117.301L303.921 102.731C306.527 105.832 304.306 113.404 298.421 115.184L314.955 129.794C320.667 127.924 322.507 120.368 319.9 117.301Z"/>
<path d="M265.099 110.087L257.938 138.258C257.272 141.096 257.612 143.622 259.045 145.261L275.63 160.422C276.688 161.292 278.167 161.795 280.091 161.795H303.944C305.241 161.795 306.402 161.588 307.425 161.225L291.049 146.766C296.98 144.949 298.597 138.017 295.73 134.874L308.064 146.104C309.11 146.102 310.075 145.935 310.953 145.638L294.472 131.202C300.3 129.608 302.606 122.408 299.904 119.044L312.217 130.218C313.21 130.218 314.123 130.067 314.955 129.794L298.421 115.184C304.306 113.404 306.527 105.832 303.921 102.731L303.213 102.085C302.582 101.65 301.78 101.399 300.8 101.399H275.788C269.61 102.529 267.107 104.245 265.099 110.087Z"/>
<path d="M149.924 110.967C152.703 113.771 158.382 113.384 162.002 109.992L145.891 95.5156C142.767 98.3527 138.184 99.0031 135.219 97.3515L149.924 110.967Z"/>
<path d="M172.885 57.7817L178.274 89.0605L194.227 103.648L188.878 72.3673C188.676 71.2899 188.187 70.372 187.487 69.6164L171.425 54.9563C172.162 55.7258 172.677 56.6686 172.885 57.7817Z"/>
<path d="M178.274 89.0605L172.885 57.7817C172.677 56.6686 172.162 55.7258 171.425 54.9563L170.803 54.3892C166.539 50.9749 157.196 51.9712 153.405 57.7817L133.236 87.5848C131.862 91.1131 132.094 93.748 133.236 95.5156L135.219 97.3515C138.184 99.0031 142.767 98.3527 145.891 95.5156L162.002 109.992C162.511 109.515 162.979 108.979 163.393 108.384L168.332 101.231L179.873 111.757C184.403 116.128 196.271 111.695 194.227 103.648L178.274 89.0605Z"/>
<path d="M184.85 146.104L172.517 134.874C175.383 138.017 173.766 144.949 167.836 146.766L184.211 161.225C189.959 159.186 191.38 152.216 188.304 149.249L184.85 146.104Z"/>
<path d="M189.003 130.218L176.69 119.044C179.393 122.408 177.087 129.608 171.258 131.202L187.739 145.638C193.532 143.677 195.547 136.059 192.162 133.086L189.003 130.218Z"/>
<path d="M196.686 117.301L180.707 102.731C183.313 105.832 181.092 113.404 175.207 115.184L191.741 129.794C197.453 127.924 199.293 120.368 196.686 117.301Z"/>
<path d="M141.885 110.087L134.724 138.258C134.059 141.096 134.398 143.622 135.831 145.261L152.417 160.422C153.474 161.292 154.954 161.795 156.877 161.795H180.73C182.027 161.795 183.188 161.588 184.211 161.225L167.836 146.766C173.766 144.949 175.383 138.017 172.517 134.874L184.85 146.104C185.896 146.102 186.861 145.935 187.739 145.638L171.258 131.202C177.087 129.608 179.393 122.408 176.69 119.044L189.003 130.218C189.997 130.218 190.91 130.067 191.741 129.794L175.207 115.184C181.092 113.404 183.313 105.832 180.707 102.731L179.999 102.085C179.369 101.65 178.567 101.399 177.586 101.399H152.575C146.396 102.529 143.893 104.245 141.885 110.087Z"/>
<path d="M189.571 60.5386L182.305 89.7097C181.736 92.3032 182.41 94.3744 183.779 95.7307L200.365 110.828C203.295 113.022 208.451 112.561 212.126 108.139L195.623 94.1326C197.339 92.2989 198.788 89.6711 199.629 86.1292L200.682 81.4955H205.316L205.895 91.2367C206.038 94.1784 207.66 95.9485 209.843 96.673L215.298 101.932L223.586 109.921C227.921 114.142 238.975 110.366 238.632 101.083L238.474 93.7642C239.187 93.2921 239.858 92.8035 240.489 92.3012L224.007 78.0961C233.496 70.8821 234.272 60.5953 229.687 55.2783L227.904 53.6578C226.238 52.4823 224.158 51.7979 221.744 51.7979H198.681C194.943 51.7979 190.677 55.5363 189.571 60.5386Z"/>
<path d="M200.682 81.4955L199.629 86.1292C198.788 89.6711 197.339 92.2989 195.623 94.1326L212.126 108.139C213.422 106.581 214.533 104.531 215.298 101.932L209.843 96.673C207.66 95.9485 206.038 94.1784 205.895 91.2367L205.316 81.4955H200.682Z"/>
<path d="M240.489 92.3012C249.671 84.9848 250.205 74.738 245.439 69.5952L229.687 55.2783C234.272 60.5953 233.496 70.8821 224.007 78.0961L240.489 92.3012Z"/>
<path d="M234.96 60.5386L227.694 89.7097C227.125 92.3032 227.799 94.3744 229.168 95.7307L245.754 110.828C248.684 113.022 253.84 112.561 257.515 108.139L241.012 94.1326C242.728 92.2989 244.177 89.6711 245.018 86.1292L246.071 81.4955H250.705L251.284 91.2367C251.427 94.1784 253.049 95.9485 255.232 96.673L260.687 101.932L268.975 109.921C273.31 114.142 284.364 110.366 284.021 101.083L283.863 93.7642C284.576 93.2921 285.247 92.8035 285.878 92.3012L269.396 78.0961C278.885 70.8821 279.661 60.5953 275.076 55.2783L273.293 53.6578C271.627 52.4823 269.547 51.7979 267.133 51.7979H244.07C240.331 51.7979 236.066 55.5363 234.96 60.5386Z"/>
<path d="M246.071 81.4955L245.018 86.1292C244.177 89.6711 242.728 92.2989 241.012 94.1326L257.515 108.139C258.811 106.581 259.922 104.531 260.687 101.932L255.232 96.673C253.049 95.9485 251.427 94.1784 251.284 91.2367L250.705 81.4955H246.071Z"/>
<path d="M285.878 92.3012C295.06 84.9848 295.594 74.738 290.828 69.5952L275.076 55.2783C279.661 60.5953 278.885 70.8821 269.396 78.0961L285.878 92.3012Z"/>
<path d="M183.779 110.245L176.513 139.416C175.944 142.01 176.618 144.081 177.987 145.437L194.573 160.535C197.503 162.729 202.659 162.267 206.334 157.846L189.831 143.839C191.547 142.006 192.996 139.378 193.837 135.836L194.89 131.202H199.524L200.103 140.943C200.246 143.885 201.868 145.655 204.051 146.38L209.506 151.638L217.794 159.628C222.129 163.848 233.183 160.072 232.839 150.79L232.682 143.471C233.395 142.999 234.066 142.51 234.697 142.008L218.215 127.803C227.704 120.589 228.48 110.302 223.895 104.985L222.112 103.365C220.446 102.189 218.366 101.505 215.952 101.505H192.889C189.15 101.505 184.885 105.243 183.779 110.245Z"/>
<path d="M194.89 131.202L193.837 135.836C192.996 139.378 191.547 142.006 189.831 143.839L206.334 157.846C207.629 156.287 208.741 154.237 209.506 151.638L204.051 146.38C201.868 145.655 200.246 143.885 200.103 140.943L199.524 131.202H194.89Z"/>
<path d="M234.697 142.008C243.879 134.692 244.413 124.445 239.647 119.302L223.895 104.985C228.48 110.302 227.704 120.589 218.215 127.803L234.697 142.008Z"/>
</mask>
<path d="M124.054 91.3955L122.871 91.0893L122.663 91.8921L123.332 92.3818L124.054 91.3955ZM129.793 69.2268L130.515 68.2406L129.062 67.1772L128.61 68.9205L129.793 69.2268ZM139.816 67.4665L139.106 66.4719L137.728 67.4559L139.096 68.4537L139.816 67.4665ZM299.63 65.7515L298.53 66.284L299.411 68.1048L300.613 66.4775L299.63 65.7515ZM320.073 64.1461L321.004 63.3542L319.973 62.1429L319.068 63.4507L320.073 64.1461ZM298.537 95.2655L297.532 94.5701L297.009 95.3254L297.59 96.0375L298.537 95.2655ZM295.234 56.6693L294.051 56.9767L294.081 57.0933L294.134 57.2017L295.234 56.6693ZM294.359 54.7936L293.368 55.5092V55.5092L294.359 54.7936ZM310.122 109.482L311.07 108.71V108.71L310.122 109.482ZM239.444 147.841L239.371 149.061L239.389 149.062L239.407 149.063L239.444 147.841ZM255.241 123.725L256.046 122.806L256.015 122.779L255.982 122.753L255.241 123.725ZM245.025 115.932L244.162 116.797L244.219 116.855L244.284 116.904L245.025 115.932ZM246.658 114.195L245.948 115.189L245.948 115.19L246.658 114.195ZM252.344 118.249L251.635 119.244L251.678 119.275L251.723 119.301L252.344 118.249ZM248.515 145.884L249.323 144.968L248.703 144.421L247.965 144.793L248.515 145.884ZM262.424 108.672L261.582 109.558V109.558L262.424 108.672ZM259.691 127.629L260.757 128.226L261.24 127.363L260.497 126.711L259.691 127.629ZM93.13 140.786L91.9455 140.485L91.7656 141.193L92.3043 141.687L93.13 140.786ZM108.189 140.786L108.806 141.841L112.705 139.564H108.189V140.786ZM95.6574 148.105L95.0411 147.049L94.3697 147.442L94.4404 148.216L95.6574 148.105ZM96.7106 159.636L96.0164 160.642L98.165 162.125L97.9276 159.525L96.7106 159.636ZM87.022 152.949L87.7162 151.943L87.1082 151.524L86.4541 151.867L87.022 152.949ZM74.2794 159.636L73.231 159.008L70.9957 162.74L74.8472 160.718L74.2794 159.636ZM80.9666 148.473L81.7812 147.562L81.7748 147.557L81.7682 147.551L80.9666 148.473ZM72.1205 140.786V139.564H68.8512L71.3189 141.708L72.1205 140.786ZM94.9729 116.195L95.878 115.374L94.3428 113.682L93.7875 115.898L94.9729 116.195ZM98.4136 119.988L99.598 120.289L99.7596 119.653L99.3186 119.166L98.4136 119.988ZM98.9917 146.157L99.608 147.213V147.213L98.9917 146.157ZM58.3848 144.156L57.3303 143.538L56.2176 145.438L58.4184 145.377L58.3848 144.156ZM103.002 110.856L103.463 109.724L102.556 109.355L101.998 110.159L103.002 110.856ZM93.0624 65.3829L94.0327 64.6401L93.6659 64.1609H93.0624V65.3829ZM65.8922 65.3829V64.1609H62.7736L65.0619 66.2797L65.8922 65.3829ZM105.594 170.536L104.473 170.051L104.055 171.017L104.948 171.573L105.594 170.536ZM294.472 131.202L294.15 130.023L291.956 130.623L293.667 132.121L294.472 131.202ZM291.049 146.766L290.691 145.598L288.604 146.237L290.24 147.682L291.049 146.766ZM295.73 134.874L296.553 133.97L294.827 135.697L295.73 134.874ZM299.904 119.044L300.725 118.139L298.951 119.809L299.904 119.044ZM298.421 115.184L298.067 114.014L295.97 114.649L297.612 116.1L298.421 115.184ZM178.274 89.0605L177.07 89.2679L177.141 89.6801L177.449 89.9623L178.274 89.0605ZM172.885 57.7817L174.09 57.5743L174.088 57.5653L174.087 57.5564L172.885 57.7817ZM171.425 54.9563L172.307 54.1109V54.1109L171.425 54.9563ZM135.219 97.3515L134.624 98.4192V98.4192L135.219 97.3515ZM171.258 131.202L170.936 130.023L168.742 130.623L170.453 132.121L171.258 131.202ZM167.836 146.766L167.478 145.598L165.39 146.237L167.027 147.682L167.836 146.766ZM172.517 134.874L173.339 133.97L171.614 135.697L172.517 134.874ZM176.69 119.044L177.511 118.139L175.737 119.809L176.69 119.044ZM175.207 115.184L174.853 114.014L172.756 114.649L174.398 116.1L175.207 115.184ZM199.629 86.1292L200.818 86.4115L200.82 86.4L199.629 86.1292ZM200.682 81.4955V80.2734H199.706L199.49 81.2247L200.682 81.4955ZM205.316 81.4955L206.536 81.423L206.467 80.2734H205.316V81.4955ZM205.895 91.2367L207.116 91.1774L207.115 91.1642L205.895 91.2367ZM195.623 94.1326L194.731 93.2976L193.855 94.2343L194.833 95.0643L195.623 94.1326ZM224.007 78.0961L223.268 77.1232L222.067 78.0365L223.21 79.0217L224.007 78.0961ZM209.843 96.673L210.691 95.7932L210.491 95.6006L210.228 95.5132L209.843 96.673ZM215.298 101.932L214.45 102.811L215.901 104.21L216.471 102.277L215.298 101.932ZM229.687 55.2783L228.761 56.0763V56.0763L229.687 55.2783ZM245.018 86.1292L246.207 86.4115L246.209 86.4L245.018 86.1292ZM246.071 81.4955V80.2734H245.095L244.879 81.2247L246.071 81.4955ZM250.705 81.4955L251.925 81.423L251.856 80.2734H250.705V81.4955ZM251.284 91.2367L252.505 91.1774L252.504 91.1642L251.284 91.2367ZM241.012 94.1326L240.12 93.2976L239.244 94.2343L240.222 95.0643L241.012 94.1326ZM269.396 78.0961L268.657 77.1232L267.455 78.0365L268.599 79.0217L269.396 78.0961ZM255.232 96.673L256.08 95.7932L255.88 95.6006L255.617 95.5132L255.232 96.673ZM260.687 101.932L259.839 102.811L261.29 104.21L261.859 102.277L260.687 101.932ZM275.076 55.2783L274.15 56.0763V56.0763L275.076 55.2783ZM193.837 135.836L195.026 136.118L195.028 136.107L193.837 135.836ZM194.89 131.202V129.98H193.914L193.698 130.931L194.89 131.202ZM199.524 131.202L200.743 131.13L200.675 129.98H199.524V131.202ZM200.103 140.943L201.323 140.884L201.323 140.871L200.103 140.943ZM189.831 143.839L188.939 143.004L188.062 143.941L189.04 144.771L189.831 143.839ZM218.215 127.803L217.476 126.83L216.274 127.743L217.417 128.728L218.215 127.803ZM204.051 146.38L204.899 145.5L204.699 145.307L204.436 145.22L204.051 146.38ZM209.506 151.638L208.658 152.518L210.109 153.917L210.678 151.984L209.506 151.638ZM223.895 104.985L222.969 105.783V105.783L223.895 104.985ZM124.054 91.3955L125.237 91.7018L130.976 69.5331L129.793 69.2268L128.61 68.9205L122.871 91.0893L124.054 91.3955ZM139.816 67.4665L140.526 68.461C143.135 66.5985 144.791 63.7008 145.374 60.8701C145.948 58.0787 145.522 55.0469 143.509 53.1693L142.675 54.0631L141.842 54.9568C142.99 56.0274 143.462 58.0353 142.98 60.3776C142.506 62.6805 141.153 65.0104 139.106 66.4719L139.816 67.4665ZM139.816 67.4665L139.096 68.4537L151.996 77.8657L152.717 76.8784L153.437 75.8911L140.536 66.4792L139.816 67.4665ZM129.793 69.2268L129.072 70.2131L141.954 79.6384L142.675 78.6521L143.397 77.6658L130.515 68.2406L129.793 69.2268ZM124.054 91.3955L123.332 92.3818L136.214 101.807L136.936 100.821L137.657 99.8346L124.776 90.4093L124.054 91.3955ZM295.234 56.6693L294.134 57.2017L298.53 66.284L299.63 65.7515L300.73 65.2191L296.334 56.1369L295.234 56.6693ZM299.63 65.7515L300.613 66.4775L303.101 63.1076L302.118 62.3816L301.135 61.6556L298.647 65.0255L299.63 65.7515ZM320.073 64.1461L319.142 64.938L330.953 78.8204L331.884 78.0285L332.815 77.2366L321.004 63.3542L320.073 64.1461ZM295.234 56.6693L296.417 56.3619C296.194 55.5062 295.829 54.7416 295.35 54.0779L294.359 54.7936L293.368 55.5092C293.669 55.9247 293.904 56.4119 294.051 56.9767L295.234 56.6693ZM310.122 109.482L311.07 108.71L299.484 94.4935L298.537 95.2655L297.59 96.0375L309.175 110.254L310.122 109.482ZM310.122 109.482L309.175 110.254L309.401 110.531L310.348 109.759L311.295 108.987L311.07 108.71L310.122 109.482ZM294.359 54.7936L295.35 54.0779C294.894 53.4466 294.34 52.9153 293.722 52.4853L293.024 53.4883L292.326 54.4914C292.73 54.7724 293.082 55.1125 293.368 55.5092L294.359 54.7936ZM223.279 141.681L222.52 142.638C225.481 144.984 227.943 146.507 230.577 147.482C233.209 148.457 235.934 148.857 239.371 149.061L239.444 147.841L239.516 146.621C236.183 146.423 233.732 146.044 231.426 145.19C229.122 144.337 226.887 142.98 224.037 140.723L223.279 141.681ZM245.025 115.932L245.889 115.067C245.918 115.096 245.944 115.13 245.966 115.168C245.988 115.205 246.002 115.242 246.012 115.274C246.03 115.338 246.026 115.38 246.025 115.387C246.025 115.394 246.025 115.381 246.038 115.353C246.051 115.325 246.069 115.294 246.093 115.265C246.117 115.236 246.139 115.218 246.152 115.209C246.165 115.2 246.162 115.205 246.138 115.212C246.111 115.218 246.069 115.223 246.02 115.214C245.971 115.205 245.946 115.188 245.948 115.189L246.658 114.195L247.368 113.2C246.791 112.789 246.131 112.688 245.524 112.846C244.957 112.993 244.51 113.342 244.204 113.715C243.898 114.087 243.663 114.568 243.599 115.089C243.534 115.625 243.648 116.284 244.162 116.797L245.025 115.932ZM252.344 118.249L251.723 119.301C252.126 119.539 252.534 119.734 252.946 119.888L253.373 118.743L253.799 117.598C253.528 117.496 253.25 117.364 252.966 117.197L252.344 118.249ZM253.373 118.743L252.564 119.659L267.097 132.492L267.906 131.576L268.715 130.66L254.181 117.827L253.373 118.743ZM239.444 147.841L239.407 149.063C243.036 149.171 246.287 148.375 249.065 146.975L248.515 145.884L247.965 144.793C245.547 146.011 242.698 146.716 239.48 146.62L239.444 147.841ZM248.515 145.884L247.706 146.8L262.358 159.728L263.167 158.811L263.975 157.895L249.323 144.968L248.515 145.884ZM262.424 108.672L261.582 109.558C261.859 109.822 262.083 110.419 261.886 111.496C261.697 112.531 261.151 113.751 260.322 114.863C258.614 117.15 256.155 118.475 253.799 117.598L253.373 118.743L252.946 119.888C256.809 121.328 260.303 118.974 262.28 116.325C263.293 114.968 264.022 113.405 264.291 111.936C264.552 110.508 264.416 108.879 263.265 107.786L262.424 108.672ZM262.424 108.672L263.265 107.786C263.201 107.725 263.135 107.667 263.066 107.611L262.297 108.56L261.527 109.51C261.547 109.526 261.565 109.542 261.582 109.558L262.424 108.672ZM259.691 127.629L260.497 126.711L256.046 122.806L255.241 123.725L254.435 124.644L258.885 128.548L259.691 127.629ZM259.731 128.833L260.594 127.968C260.644 128.018 260.682 128.079 260.706 128.141C260.728 128.2 260.732 128.245 260.732 128.268C260.732 128.306 260.724 128.286 260.757 128.226L259.691 127.629L258.624 127.032C258.277 127.653 257.993 128.825 258.867 129.698L259.731 128.833ZM93.13 140.786V142.008H108.189V140.786V139.564H93.13V140.786ZM95.6574 148.105L94.4404 148.216L95.4936 159.747L96.7106 159.636L97.9276 159.525L96.8745 147.994L95.6574 148.105ZM96.7106 159.636L97.4048 158.63L87.7162 151.943L87.022 152.949L86.3278 153.955L96.0164 160.642L96.7106 159.636ZM74.2794 159.636L75.3277 160.264L82.015 149.101L80.9666 148.473L79.9182 147.845L73.231 159.008L74.2794 159.636ZM80.9666 148.473L81.7682 147.551L72.9221 139.863L72.1205 140.786L71.3189 141.708L80.165 149.396L80.9666 148.473ZM72.1205 140.786V142.008H88.8123V140.786V139.564H72.1205V140.786ZM88.8123 140.786L89.9977 141.083L96.1584 116.492L94.9729 116.195L93.7875 115.898L87.6268 140.489L88.8123 140.786ZM93.6421 179.593L92.4753 179.956C92.3368 179.511 92.6584 179.298 92.4838 179.464C92.3445 179.597 92.0541 179.794 91.5687 180.042C90.6165 180.528 89.2732 181.033 87.8599 181.555C86.4951 182.06 85.0466 182.585 84.0315 183.083C83.5467 183.321 83.0167 183.618 82.6533 183.989C82.47 184.176 82.2174 184.492 82.1382 184.937C82.0458 185.456 82.2274 185.917 82.5136 186.243L83.4328 185.438L84.352 184.633C84.4768 184.775 84.6017 185.045 84.5445 185.365C84.5006 185.612 84.3753 185.724 84.3984 185.7C84.448 185.65 84.6478 185.503 85.1075 185.277C85.9814 184.849 87.281 184.375 88.7067 183.848C90.0838 183.34 91.5734 182.783 92.6797 182.219C93.2235 181.941 93.7688 181.616 94.1695 181.234C94.5349 180.886 95.1008 180.167 94.809 179.229L93.6421 179.593ZM98.4136 119.988L97.2291 119.687L91.9455 140.485L93.13 140.786L94.3145 141.086L99.598 120.289L98.4136 119.988ZM94.9729 116.195L94.0679 117.017L97.5085 120.809L98.4136 119.988L99.3186 119.166L95.878 115.374L94.9729 116.195ZM96.7106 147.49L96.0943 146.434L95.0411 147.049L95.6574 148.105L96.2738 149.16L97.3269 148.545L96.7106 147.49ZM88.8123 140.786L88.0214 141.717L95.9198 148.421L96.7106 147.49L97.5014 146.558L89.6031 139.854L88.8123 140.786ZM108.189 140.786L107.573 139.73L98.3754 145.102L98.9917 146.157L99.608 147.213L108.806 141.841L108.189 140.786ZM98.9917 146.157L98.3754 145.102L96.0943 146.434L96.7106 147.49L97.3269 148.545L99.608 147.213L98.9917 146.157ZM93.13 140.786L92.3043 141.687L98.166 147.058L98.9917 146.157L99.8174 145.256L93.9557 139.885L93.13 140.786ZM87.022 152.949L86.4541 151.867L85.7922 152.214L86.3601 153.296L86.928 154.378L87.5899 154.031L87.022 152.949ZM86.3601 153.296L85.7922 152.214L73.7115 158.554L74.2794 159.636L74.8472 160.718L86.928 154.378L86.3601 153.296ZM80.9666 148.473L80.152 149.384L85.5455 154.207L86.3601 153.296L87.1747 152.385L81.7812 147.562L80.9666 148.473ZM103.002 110.856L101.998 110.159C101.779 110.474 101.637 110.866 101.661 111.306C101.684 111.731 101.856 112.079 102.042 112.335C102.388 112.81 102.923 113.162 103.392 113.424C104.364 113.966 105.762 114.492 107.013 114.982C108.337 115.499 109.525 115.986 110.306 116.48C110.703 116.732 110.871 116.91 110.923 116.992C110.928 117 110.883 116.876 110.93 116.777L112.034 117.3L113.139 117.824C113.504 117.052 113.371 116.285 112.984 115.678C112.644 115.144 112.115 114.733 111.613 114.415C110.596 113.772 109.177 113.203 107.904 112.705C106.558 112.179 105.369 111.728 104.583 111.289C104.396 111.185 104.255 111.093 104.153 111.016C104.047 110.935 104.016 110.894 104.019 110.897C104.024 110.904 104.092 111.001 104.101 111.173C104.111 111.36 104.045 111.496 104.006 111.552L103.002 110.856ZM121.286 118.301L121.747 117.169L103.463 109.724L103.002 110.856L102.541 111.988L120.826 119.433L121.286 118.301ZM110.273 68.7532L111.156 67.9084C110.976 67.72 110.782 67.5432 110.575 67.3794L109.817 68.3384L109.06 69.2975C109.176 69.3896 109.286 69.4898 109.39 69.598L110.273 68.7532ZM58.3848 144.156L58.4184 145.377L83.3553 144.692L83.3217 143.47L83.2882 142.249L58.3513 142.934L58.3848 144.156ZM67.3294 128.885L66.2749 128.267L57.3303 143.538L58.3848 144.156L59.4393 144.773L68.3839 129.502L67.3294 128.885ZM93.0624 65.3829L92.092 66.1258L105.414 83.5267L106.384 82.7839L107.355 82.041L94.0327 64.6401L93.0624 65.3829ZM85.7959 83.8124L86.6262 82.9157L66.7225 64.4862L65.8922 65.3829L65.0619 66.2797L84.9656 84.7091L85.7959 83.8124ZM65.8922 65.3829V66.605H93.0624V65.3829V64.1609H65.8922V65.3829ZM105.594 170.536L104.948 171.573L124.388 183.684L125.034 182.647L125.68 181.609L106.241 169.499L105.594 170.536ZM105.594 170.536L106.716 171.021L135.75 103.886L134.629 103.4L133.507 102.915L104.473 170.051L105.594 170.536ZM294.472 131.202L293.667 132.121L310.148 146.557L310.953 145.638L311.758 144.719L295.277 130.282L294.472 131.202ZM291.049 146.766L290.24 147.682L306.616 162.141L307.425 161.225L308.234 160.309L291.858 145.85L291.049 146.766ZM308.064 146.104L308.886 145.2L296.553 133.97L295.73 134.874L294.908 135.778L307.241 147.007L308.064 146.104ZM295.73 134.874L294.827 135.697C295.881 136.853 296.219 138.869 295.53 140.929C294.856 142.944 293.245 144.815 290.691 145.598L291.049 146.766L291.407 147.935C294.784 146.9 296.947 144.397 297.848 141.705C298.733 139.059 298.446 136.038 296.633 134.05L295.73 134.874ZM312.217 130.218L313.038 129.313L300.725 118.139L299.904 119.044L299.082 119.949L311.395 131.123L312.217 130.218ZM299.904 119.044L298.951 119.809C299.932 121.03 300.121 123.161 299.252 125.333C298.403 127.459 296.635 129.343 294.15 130.023L294.472 131.202L294.794 132.381C298.137 131.467 300.437 128.954 301.522 126.24C302.588 123.573 302.578 120.422 300.856 118.278L299.904 119.044ZM303.921 102.731L302.985 103.518C303.882 104.584 304.101 106.715 303.215 109.013C302.355 111.242 300.576 113.255 298.067 114.014L298.421 115.184L298.775 116.354C302.151 115.332 304.424 112.669 305.495 109.892C306.54 107.184 306.566 103.979 304.856 101.945L303.921 102.731ZM298.421 115.184L297.612 116.1L314.146 130.71L314.955 129.794L315.764 128.879L299.23 114.268L298.421 115.184ZM178.274 89.0605L179.478 88.853L174.09 57.5743L172.885 57.7817L171.681 57.9892L177.07 89.2679L178.274 89.0605ZM145.891 95.5156L146.713 96.4203C147.334 95.8565 147.904 95.2147 148.404 94.4956L147.4 93.7981L146.397 93.1006C146.006 93.6635 145.558 94.1671 145.07 94.6109L145.891 95.5156ZM145.891 95.5156L145.074 96.4246L161.185 110.901L162.002 109.992L162.819 109.083L146.708 94.6066L145.891 95.5156ZM178.274 89.0605L177.449 89.9623L193.402 104.55L194.227 103.648L195.051 102.746L179.099 88.1586L178.274 89.0605ZM172.885 57.7817L174.087 57.5564C173.831 56.1966 173.199 55.0416 172.307 54.1109L171.425 54.9563L170.542 55.8018C171.125 56.41 171.522 57.1406 171.684 58.0071L172.885 57.7817ZM135.219 97.3515L134.624 98.4192C138.127 100.37 143.272 99.5445 146.713 96.4203L145.891 95.5156L145.07 94.6109C142.262 97.1609 138.241 97.6359 135.813 96.2839L135.219 97.3515ZM133.236 95.5156L132.209 96.1786C132.831 97.1405 133.666 97.8854 134.624 98.4192L135.219 97.3515L135.813 96.2839C135.176 95.9287 134.649 95.4511 134.263 94.8526L133.236 95.5156ZM171.425 54.9563L172.307 54.1109C172.076 53.8695 171.828 53.6444 171.567 53.4352L170.803 54.3892L170.04 55.3431C170.221 55.4883 170.389 55.6413 170.542 55.8018L171.425 54.9563ZM178.43 109.282L177.252 109.609C177.592 110.834 178.206 111.847 179.025 112.636L179.873 111.757L180.722 110.877C180.226 110.399 179.834 109.771 179.607 108.955L178.43 109.282ZM171.258 131.202L170.453 132.121L186.934 146.557L187.739 145.638L188.545 144.719L172.063 130.282L171.258 131.202ZM167.836 146.766L167.027 147.682L183.403 162.141L184.211 161.225L185.02 160.309L168.644 145.85L167.836 146.766ZM184.85 146.104L185.673 145.2L173.339 133.97L172.517 134.874L171.694 135.778L184.027 147.007L184.85 146.104ZM172.517 134.874L171.614 135.697C172.667 136.853 173.005 138.869 172.316 140.929C171.642 142.944 170.031 144.815 167.478 145.598L167.836 146.766L168.194 147.935C171.571 146.9 173.733 144.397 174.634 141.705C175.519 139.059 175.232 136.038 173.42 134.05L172.517 134.874ZM189.003 130.218L189.824 129.313L177.511 118.139L176.69 119.044L175.869 119.949L188.182 131.123L189.003 130.218ZM176.69 119.044L175.737 119.809C176.718 121.03 176.907 123.161 176.039 125.333C175.189 127.459 173.421 129.343 170.936 130.023L171.258 131.202L171.58 132.381C174.924 131.467 177.223 128.954 178.308 126.24C179.374 123.573 179.364 120.422 177.643 118.278L176.69 119.044ZM180.707 102.731L179.772 103.518C180.668 104.584 180.887 106.715 180.001 109.013C179.142 111.242 177.362 113.255 174.853 114.014L175.207 115.184L175.561 116.354C178.937 115.332 181.211 112.669 182.282 109.892C183.326 107.184 183.353 103.979 181.643 101.945L180.707 102.731ZM175.207 115.184L174.398 116.1L190.932 130.71L191.741 129.794L192.55 128.879L176.017 114.268L175.207 115.184ZM199.629 86.1292L200.82 86.4L201.874 81.7663L200.682 81.4955L199.49 81.2247L198.437 85.8583L199.629 86.1292ZM200.682 81.4955V82.7176H205.316V81.4955V80.2734H200.682V81.4955ZM205.316 81.4955L204.096 81.568L204.675 91.3093L205.895 91.2367L207.115 91.1642L206.536 81.423L205.316 81.4955ZM195.623 94.1326L196.516 94.9676C198.397 92.9565 199.935 90.1287 200.818 86.4115L199.629 86.1292L198.44 85.8468C197.64 89.2135 196.281 91.6414 194.731 93.2976L195.623 94.1326ZM195.623 94.1326L194.833 95.0643L211.335 109.071L212.126 108.139L212.917 107.207L196.414 93.2009L195.623 94.1326ZM224.007 78.0961L223.21 79.0217L239.691 93.2269L240.489 92.3012L241.286 91.3755L224.805 77.1704L224.007 78.0961ZM205.895 91.2367L204.674 91.2961C204.843 94.7588 206.812 96.9547 209.458 97.8329L209.843 96.673L210.228 95.5132C208.508 94.9423 207.233 93.598 207.115 91.1774L205.895 91.2367ZM221.887 105.822L220.666 105.882C220.767 107.947 221.512 109.607 222.734 110.797L223.586 109.921L224.439 109.045C223.707 108.333 223.181 107.28 223.108 105.763L221.887 105.822ZM209.843 96.673L208.995 97.5529L214.45 102.811L215.298 101.932L216.146 101.052L210.691 95.7932L209.843 96.673ZM224.007 78.0961L224.747 79.0689C234.624 71.5603 235.788 60.4825 230.612 54.4802L229.687 55.2783L228.761 56.0763C232.755 60.7081 232.369 70.2039 223.268 77.1232L224.007 78.0961ZM229.687 55.2783L230.612 54.4802C230.023 53.7969 229.353 53.185 228.609 52.6594L227.904 53.6578L227.199 54.6563C227.777 55.0642 228.299 55.5407 228.761 56.0763L229.687 55.2783ZM215.298 101.932L216.471 102.277C216.592 101.863 216.706 101.436 216.81 100.997L215.621 100.715L214.432 100.432C214.338 100.83 214.235 101.215 214.126 101.586L215.298 101.932ZM245.018 86.1292L246.209 86.4L247.263 81.7663L246.071 81.4955L244.879 81.2247L243.826 85.8583L245.018 86.1292ZM246.071 81.4955V82.7176H250.705V81.4955V80.2734H246.071V81.4955ZM250.705 81.4955L249.485 81.568L250.064 91.3093L251.284 91.2367L252.504 91.1642L251.925 81.423L250.705 81.4955ZM241.012 94.1326L241.905 94.9676C243.786 92.9565 245.324 90.1287 246.207 86.4115L245.018 86.1292L243.829 85.8468C243.029 89.2135 241.67 91.6414 240.12 93.2976L241.012 94.1326ZM241.012 94.1326L240.222 95.0643L256.724 109.071L257.515 108.139L258.306 107.207L241.803 93.2009L241.012 94.1326ZM269.396 78.0961L268.599 79.0217L285.08 93.2269L285.878 92.3012L286.675 91.3755L270.194 77.1704L269.396 78.0961ZM251.284 91.2367L250.063 91.2961C250.232 94.7588 252.201 96.9547 254.847 97.8329L255.232 96.673L255.617 95.5132C253.897 94.9423 252.622 93.598 252.504 91.1774L251.284 91.2367ZM267.276 105.822L266.055 105.882C266.156 107.947 266.901 109.607 268.123 110.797L268.975 109.921L269.828 109.045C269.096 108.333 268.57 107.28 268.497 105.763L267.276 105.822ZM255.232 96.673L254.384 97.5529L259.839 102.811L260.687 101.932L261.535 101.052L256.08 95.7932L255.232 96.673ZM269.396 78.0961L270.136 79.0689C280.013 71.5603 281.177 60.4825 276.001 54.4802L275.076 55.2783L274.15 56.0763C278.144 60.7081 277.758 70.2039 268.657 77.1232L269.396 78.0961ZM275.076 55.2783L276.001 54.4802C275.412 53.7969 274.742 53.185 273.998 52.6594L273.293 53.6578L272.588 54.6563C273.166 55.0642 273.688 55.5407 274.15 56.0763L275.076 55.2783ZM260.687 101.932L261.859 102.277C261.981 101.863 262.095 101.436 262.199 100.997L261.01 100.715L259.821 100.432C259.727 100.83 259.624 101.215 259.515 101.586L260.687 101.932ZM193.837 135.836L195.028 136.107L196.082 131.473L194.89 131.202L193.698 130.931L192.645 135.565L193.837 135.836ZM194.89 131.202V132.424H199.524V131.202V129.98H194.89V131.202ZM199.524 131.202L198.304 131.275L198.883 141.016L200.103 140.943L201.323 140.871L200.743 131.13L199.524 131.202ZM189.831 143.839L190.724 144.674C192.605 142.663 194.143 139.835 195.026 136.118L193.837 135.836L192.648 135.554C191.848 138.92 190.489 141.348 188.939 143.004L189.831 143.839ZM189.831 143.839L189.04 144.771L205.543 158.777L206.334 157.846L207.125 156.914L190.622 142.908L189.831 143.839ZM218.215 127.803L217.417 128.728L233.899 142.934L234.697 142.008L235.494 141.082L219.013 126.877L218.215 127.803ZM200.103 140.943L198.882 141.003C199.051 144.466 201.02 146.661 203.666 147.54L204.051 146.38L204.436 145.22C202.716 144.649 201.441 143.305 201.323 140.884L200.103 140.943ZM216.095 155.529L214.874 155.588C214.975 157.654 215.72 159.314 216.942 160.503L217.794 159.628L218.647 158.752C217.915 158.04 217.389 156.987 217.316 155.47L216.095 155.529ZM204.051 146.38L203.203 147.26L208.658 152.518L209.506 151.638L210.354 150.758L204.899 145.5L204.051 146.38ZM218.215 127.803L218.955 128.776C228.832 121.267 229.996 110.189 224.82 104.187L223.895 104.985L222.969 105.783C226.963 110.415 226.577 119.911 217.476 126.83L218.215 127.803ZM223.895 104.985L224.82 104.187C224.231 103.504 223.561 102.892 222.817 102.366L222.112 103.365L221.407 104.363C221.985 104.771 222.507 105.247 222.969 105.783L223.895 104.985ZM209.506 151.638L210.678 151.984C210.8 151.569 210.914 151.143 211.018 150.704L209.829 150.421L208.64 150.139C208.546 150.537 208.443 150.921 208.334 151.293L209.506 151.638ZM320.073 64.1461L319.068 63.4507L297.532 94.5701L298.537 95.2655L299.542 95.9609L321.078 64.8416L320.073 64.1461ZM255.241 123.725L255.982 122.753L245.767 114.961L245.025 115.932L244.284 116.904L254.499 124.697L255.241 123.725ZM246.658 114.195L245.948 115.19L251.635 119.244L252.344 118.249L253.054 117.254L247.367 113.199L246.658 114.195ZM109.205 69.2268L111.574 69.8289L112.348 66.7827H109.205V69.2268ZM103.571 91.3955L101.202 90.7935L101.192 90.8334L101.183 90.8736L103.571 91.3955ZM108.468 52.7456V50.3015H108.383L108.298 50.3074L108.468 52.7456ZM136.936 100.821L139.283 101.503L139.293 101.468L139.302 101.433L136.936 100.821ZM142.675 78.6521V76.208H140.783L140.309 78.0395L142.675 78.6521ZM104.608 96.1864L102.715 97.7327L102.905 97.9651L103.145 98.1447L104.608 96.1864ZM119.138 107.038L117.676 108.996L117.757 109.057L117.844 109.111L119.138 107.038ZM142.675 54.0631L141.008 55.8506L141.114 55.9487L141.23 56.0338L142.675 54.0631ZM155.665 63.5927L157.39 61.8609L157.26 61.7309L157.111 61.6219L155.665 63.5927ZM152.717 76.8784L151.292 74.8927L152.717 76.8784ZM331.884 78.0285L333.894 79.4193L333.96 79.3242L334.016 79.2233L331.884 78.0285ZM310.348 109.148L308.338 107.757L308.304 107.806L308.273 107.856L310.348 109.148ZM306.804 56.0372L308.77 57.4892L308.828 57.4102L308.88 57.3268L306.804 56.0372ZM286.291 87.6831L288.504 88.721L288.508 88.7119L288.513 88.7029L286.291 87.6831ZM281.213 61.6713L278.771 61.7785L278.792 62.2363L278.976 62.6558L281.213 61.6713ZM289.543 80.6004L291.764 81.6201L292.223 80.6216L291.78 79.6159L289.543 80.6004ZM299.494 109.759L297.639 111.35L297.755 111.486L297.89 111.603L299.494 109.759ZM287.061 95.2655L288.916 93.6741L288.897 93.6523L288.878 93.6309L287.061 95.2655ZM319.902 53.4828L321.757 51.8913L321.628 51.7414L321.477 51.6141L319.902 53.4828ZM332.404 68.0532L334.27 66.4748L334.264 66.4682L334.258 66.4617L332.404 68.0532ZM293.024 53.4883L294.733 51.7408L294.588 51.5985L294.421 51.4822L293.024 53.4883ZM302.118 62.3816L300.41 64.1291L302.417 66.0919L304.085 63.8336L302.118 62.3816ZM294.359 54.7936L296.068 53.0461V53.0461L294.359 54.7936ZM310.122 109.482L312.095 110.925V110.925L310.122 109.482ZM277.001 121.461L275.389 123.298L275.425 123.33L275.463 123.36L277.001 121.461ZM237.984 154.581L236.372 156.418L236.418 156.459L236.466 156.497L237.984 154.581ZM254.149 160.742L254.004 163.182L254.04 163.184L254.076 163.185L254.149 160.742ZM269.946 136.626L271.56 134.79L271.557 134.788L269.946 136.626ZM261.363 127.095L259.943 129.085L259.944 129.085L261.363 127.095ZM267.05 131.15L265.631 133.14L265.716 133.201L265.807 133.254L267.05 131.15ZM262.297 108.56L260.499 110.217L260.587 110.312L260.685 110.398L262.297 108.56ZM245.605 101.294L245.504 98.8519V98.8519L245.605 101.294ZM233.81 127.148L232.418 129.157L232.453 129.181L232.489 129.204L233.81 127.148ZM240.286 131.308L241.927 129.496L241.777 129.36L241.607 129.251L240.286 131.308ZM238.233 134.098L239.469 131.99L239.406 131.953L239.34 131.919L238.233 134.098ZM231.914 130.886L233.021 128.707L233.019 128.706L231.914 130.886ZM223.279 141.681L224.89 139.843L224.844 139.803L224.796 139.765L223.279 141.681ZM267.906 131.576L266.982 133.839V133.839L267.906 131.576ZM263.167 158.811L264.259 160.998V160.998L263.167 158.811ZM262.424 108.672L264.036 106.835L264.035 106.834L262.424 108.672ZM259.691 127.629L257.558 126.435L256.592 128.162L258.079 129.466L259.691 127.629ZM47.0038 52.7456V50.3015H47.0038L47.0038 52.7456ZM31.1019 77.9676L33.1853 76.6895L33.1795 76.6801L31.1019 77.9676ZM43.0547 97.4502V99.8943H47.4217L45.138 96.172L43.0547 97.4502ZM64.538 165.692L62.1879 166.364L62.1958 166.391L62.2044 166.419L64.538 165.692ZM124.182 184.28L122.015 183.149L122.006 183.166L121.998 183.182L124.182 184.28ZM152.458 130.097L154.625 131.227L154.63 131.218L152.458 130.097ZM85.7959 83.8124V81.3682H81.344L83.7337 85.1244L85.7959 83.8124ZM24.9789 141.914L23.3401 143.727L23.458 143.833L23.5887 143.924L24.9789 141.914ZM7.33934 125.972L5.63629 127.725L5.66786 127.755L5.70052 127.785L7.33934 125.972ZM83.4328 185.438L85.2712 183.827L85.1773 183.72L85.0717 183.625L83.4328 185.438ZM68.3447 171.8L66.6479 173.559L66.6764 173.587L66.7058 173.614L68.3447 171.8ZM93.6416 53.6156L95.2867 51.8081L95.1759 51.7072L95.0537 51.6207L93.6416 53.6156ZM110.273 68.7532L112.039 67.0636L111.981 67.0025L111.918 66.9456L110.273 68.7532ZM134.629 103.4L132.839 105.065L132.958 105.193L133.094 105.302L134.629 103.4ZM151.46 118.986L153.412 117.515L153.367 117.456L153.319 117.4L151.46 118.986ZM120.428 188.313L119.051 186.294L120.428 188.313ZM58.3848 144.156L60.7349 143.484L60.2285 141.711H58.3848V144.156ZM103.002 110.856L100.94 112.168L102.914 115.271L105.01 112.249L103.002 110.856ZM109.817 68.3384L108.172 70.146L108.172 70.146L109.817 68.3384ZM106.384 82.7839L107.54 84.9376L106.384 82.7839ZM125.034 182.647L127.201 183.777H127.201L125.034 182.647ZM265.099 110.087L262.788 109.293L262.755 109.388L262.73 109.485L265.099 110.087ZM257.938 138.258L255.569 137.656L255.564 137.678L255.558 137.7L257.938 138.258ZM275.788 101.399V98.9551H275.567L275.349 98.9949L275.788 101.399ZM312.217 130.218V127.774H305.887L310.574 132.028L312.217 130.218ZM303.213 102.085L304.859 100.279L304.737 100.168L304.601 100.074L303.213 102.085ZM319.9 117.301L321.762 115.718L321.662 115.6L321.547 115.495L319.9 117.301ZM315.376 133.086L313.733 134.895L313.748 134.909L313.763 134.922L315.376 133.086ZM310.953 145.638L311.737 147.953L310.953 145.638ZM311.518 149.249L313.214 147.49L313.189 147.465L313.163 147.441L311.518 149.249ZM307.425 161.225L308.242 163.529V163.529L307.425 161.225ZM259.045 145.261L257.205 146.87L257.295 146.973L257.396 147.065L259.045 145.261ZM275.63 160.422L273.981 162.226L274.028 162.269L274.078 162.31L275.63 160.422ZM308.064 146.104L308.06 143.66L301.758 143.668L306.418 147.911L308.064 146.104ZM303.921 102.731L302.274 104.537L302.274 104.537L303.921 102.731ZM314.955 129.794L315.715 132.117V132.117L314.955 129.794ZM133.236 87.5848L131.212 86.2149L131.058 86.4422L130.958 86.6979L133.236 87.5848ZM153.405 57.7817L155.43 59.1516L155.441 59.1346L155.452 59.1173L153.405 57.7817ZM163.393 108.384L165.399 109.779L165.404 109.773L163.393 108.384ZM194.227 103.648L191.817 104.06L191.834 104.156L191.858 104.25L194.227 103.648ZM188.878 72.3673L191.287 71.9553L191.284 71.936L191.28 71.9166L188.878 72.3673ZM133.236 95.5156L131.183 96.8415L131.35 97.1L131.575 97.3091L133.236 95.5156ZM149.924 110.967L151.661 109.247L151.624 109.209L151.585 109.174L149.924 110.967ZM170.803 54.3892L172.451 52.5839L172.393 52.5306L172.331 52.4812L170.803 54.3892ZM187.487 69.6164L189.281 67.9558L189.211 67.8804L189.135 67.8112L187.487 69.6164ZM162.002 109.992L160.331 108.208V108.208L162.002 109.992ZM171.425 54.9563L169.777 56.7616L169.777 56.7616L171.425 54.9563ZM135.219 97.3515L133.558 99.145V99.145L135.219 97.3515ZM179.873 111.757L181.57 109.998L181.546 109.974L181.52 109.951L179.873 111.757ZM168.332 101.231L169.979 99.4252L167.911 97.5393L166.321 99.8422L168.332 101.231ZM141.885 110.087L139.574 109.293L139.541 109.388L139.517 109.485L141.885 110.087ZM134.724 138.258L132.356 137.656L132.35 137.678L132.345 137.7L134.724 138.258ZM152.575 101.399V98.9551H152.353L152.135 98.9949L152.575 101.399ZM189.003 130.218V127.774H182.673L187.36 132.028L189.003 130.218ZM179.999 102.085L181.646 100.279L181.524 100.168L181.387 100.074L179.999 102.085ZM196.686 117.301L198.549 115.718L198.448 115.6L198.333 115.495L196.686 117.301ZM192.162 133.086L190.52 134.895L190.534 134.909L190.549 134.922L192.162 133.086ZM187.739 145.638L188.523 147.953L187.739 145.638ZM188.304 149.249L190.001 147.49L189.975 147.465L189.949 147.441L188.304 149.249ZM184.211 161.225L185.029 163.529V163.529L184.211 161.225ZM135.831 145.261L133.991 146.87L134.081 146.973L134.182 147.065L135.831 145.261ZM152.417 160.422L150.768 162.226L150.815 162.269L150.864 162.31L152.417 160.422ZM184.85 146.104L184.847 143.66L178.544 143.668L183.204 147.911L184.85 146.104ZM180.707 102.731L179.06 104.537L179.06 104.537L180.707 102.731ZM191.741 129.794L192.502 132.117V132.117L191.741 129.794ZM189.571 60.5386L191.943 61.1294L191.951 61.0979L191.958 61.0661L189.571 60.5386ZM182.305 89.7097L179.933 89.119L179.925 89.1525L179.918 89.1863L182.305 89.7097ZM238.632 101.083L236.188 101.136L236.188 101.155L236.189 101.174L238.632 101.083ZM238.474 93.7642L237.124 91.7262L236.001 92.4699L236.03 93.8169L238.474 93.7642ZM183.779 95.7307L182.058 97.4669L182.095 97.5033L182.133 97.5382L183.779 95.7307ZM200.365 110.828L198.72 112.636L198.806 112.714L198.9 112.785L200.365 110.828ZM212.126 108.139L210.247 106.577L212.126 108.139ZM245.439 69.5952L247.232 67.9339L247.161 67.857L247.083 67.7865L245.439 69.5952ZM227.904 53.6578L229.548 51.8491L229.436 51.7478L229.313 51.6609L227.904 53.6578ZM240.489 92.3012L242.012 94.2128L240.489 92.3012ZM223.586 109.921L225.291 108.17L225.282 108.161L223.586 109.921ZM215.298 101.932L216.994 100.172L214.092 97.3742L212.954 101.241L215.298 101.932ZM229.687 55.2783L228.043 57.087V57.087L229.687 55.2783ZM234.96 60.5386L237.332 61.1294L237.34 61.0979L237.347 61.0661L234.96 60.5386ZM227.694 89.7097L225.322 89.119L225.314 89.1525L225.307 89.1863L227.694 89.7097ZM284.021 101.083L281.577 101.136L281.577 101.155L281.578 101.174L284.021 101.083ZM283.863 93.7642L282.513 91.7262L281.39 92.4699L281.419 93.8169L283.863 93.7642ZM229.168 95.7307L227.447 97.4669L227.484 97.5033L227.522 97.5382L229.168 95.7307ZM245.754 110.828L244.109 112.636L244.195 112.714L244.289 112.785L245.754 110.828ZM257.515 108.139L255.636 106.577L257.515 108.139ZM290.828 69.5952L292.621 67.9339L292.549 67.857L292.472 67.7865L290.828 69.5952ZM273.293 53.6578L274.937 51.8491L274.825 51.7478L274.702 51.6609L273.293 53.6578ZM285.878 92.3012L287.401 94.2128L285.878 92.3012ZM268.975 109.921L270.68 108.17L270.671 108.161L268.975 109.921ZM260.687 101.932L262.383 100.172L259.481 97.3742L258.343 101.241L260.687 101.932ZM275.076 55.2783L273.432 57.087V57.087L275.076 55.2783ZM183.779 110.245L186.151 110.836L186.159 110.805L186.166 110.773L183.779 110.245ZM176.513 139.416L174.141 138.826L174.133 138.859L174.126 138.893L176.513 139.416ZM232.839 150.79L230.396 150.843L230.396 150.862L230.397 150.88L232.839 150.79ZM232.682 143.471L231.332 141.433L230.209 142.177L230.238 143.524L232.682 143.471ZM177.987 145.437L176.266 147.174L176.303 147.21L176.341 147.245L177.987 145.437ZM194.573 160.535L192.928 162.342L193.014 162.421L193.108 162.491L194.573 160.535ZM206.334 157.846L204.455 156.283L206.334 157.846ZM239.647 119.302L241.44 117.641L241.368 117.564L241.291 117.493L239.647 119.302ZM222.112 103.365L223.756 101.556L223.644 101.455L223.521 101.368L222.112 103.365ZM234.697 142.008L236.22 143.919L234.697 142.008ZM217.794 159.628L219.499 157.877L219.49 157.868L217.794 159.628ZM209.506 151.638L211.202 149.879L208.3 147.081L207.161 150.948L209.506 151.638ZM223.895 104.985L222.251 106.794L222.251 106.794L223.895 104.985ZM109.205 69.2268L106.836 68.6248L101.202 90.7935L103.571 91.3955L105.94 91.9976L111.574 69.8289L109.205 69.2268ZM138.955 52.7456V50.3015H108.468V52.7456V55.1898H138.955V52.7456ZM108.468 52.7456L108.298 50.3074C100.753 50.8336 96.3518 55.7871 95.4691 60.9069C95.036 63.4186 95.4425 66.0747 96.902 68.1732C98.4145 70.3478 100.889 71.671 103.992 71.671V69.2268V66.7827C102.383 66.7827 101.455 66.1577 100.915 65.3821C100.323 64.5304 100.028 63.2342 100.286 61.7375C100.786 58.8408 103.335 55.5537 108.638 55.1839L108.468 52.7456ZM103.992 69.2268V71.671H109.205V69.2268V66.7827H103.992V69.2268ZM136.936 100.821L139.302 101.433L145.041 79.2647L142.675 78.6521L140.309 78.0395L134.57 100.208L136.936 100.821ZM142.675 78.6521V81.0963H147.151V78.6521V76.208H142.675V78.6521ZM103.571 91.3955L101.183 90.8736C100.605 93.5203 101.214 95.8959 102.715 97.7327L104.608 96.1864L106.501 94.6401C105.975 93.997 105.688 93.1555 105.959 91.9175L103.571 91.3955ZM119.138 107.038L117.844 109.111C121.097 111.142 125.711 111.537 129.749 110.423C133.859 109.289 137.847 106.448 139.283 101.503L136.936 100.821L134.589 100.139C133.747 103.037 131.39 104.899 128.449 105.711C125.434 106.542 122.289 106.124 120.433 104.965L119.138 107.038ZM104.608 96.1864L103.145 98.1447L117.676 108.996L119.138 107.038L120.601 105.079L106.07 94.228L104.608 96.1864ZM142.675 54.0631L144.342 52.2755C142.95 50.9771 141.096 50.3015 138.955 50.3015V52.7456V55.1898C140.032 55.1898 140.64 55.5074 141.008 55.8506L142.675 54.0631ZM142.675 54.0631L141.23 56.0338L154.22 65.5634L155.665 63.5927L157.111 61.6219L144.121 52.0923L142.675 54.0631ZM147.151 78.6521V81.0963C149.867 81.0963 152.231 80.2355 154.142 78.8641L152.717 76.8784L151.292 74.8927C150.166 75.7003 148.79 76.208 147.151 76.208V78.6521ZM152.717 76.8784L154.142 78.8641C156.988 76.8217 158.78 73.6927 159.433 70.6385C160.068 67.6595 159.711 64.1724 157.39 61.8609L155.665 63.5927L153.941 65.3244C154.637 66.0178 155.098 67.528 154.652 69.6179C154.222 71.6326 153.032 73.644 151.292 74.8927L152.717 76.8784ZM331.884 78.0285L329.874 76.6376L308.338 107.757L310.348 109.148L312.358 110.539L333.894 79.4193L331.884 78.0285ZM286.291 87.6831L288.513 88.7029L291.764 81.6201L289.543 80.6004L287.322 79.5806L284.07 86.6634L286.291 87.6831ZM281.213 61.6713L278.976 62.6558L287.306 81.5848L289.543 80.6004L291.78 79.6159L283.45 60.6869L281.213 61.6713ZM287.061 95.2655L288.878 93.6309C287.945 92.5943 287.418 91.0369 288.504 88.721L286.291 87.6831L284.078 86.6453C282.189 90.6729 282.948 94.3485 285.243 96.9001L287.061 95.2655ZM299.494 109.759L301.349 108.167L288.916 93.6741L287.061 95.2655L285.206 96.8569L297.639 111.35L299.494 109.759ZM306.804 56.0372L308.88 57.3268C309.889 55.7018 311.638 54.6718 313.557 54.3483C315.515 54.0182 317.29 54.4778 318.327 55.3515L319.902 53.4828L321.477 51.6141C319.092 49.6033 315.759 49.0198 312.744 49.528C309.691 50.0427 306.601 51.7321 304.728 54.7476L306.804 56.0372ZM332.404 68.0532L330.537 69.6316C331.343 70.5846 332.061 72.7128 329.752 76.8336L331.884 78.0285L334.016 79.2233C336.867 74.1371 336.907 69.5927 334.27 66.4748L332.404 68.0532ZM319.902 53.4828L318.047 55.0744L330.549 69.6448L332.404 68.0532L334.258 66.4617L321.757 51.8913L319.902 53.4828ZM293.024 53.4883L294.421 51.4822C291.511 49.4574 287.47 49.3776 284.265 51.0896C280.894 52.89 278.543 56.5781 278.771 61.7785L281.213 61.6713L283.655 61.5641C283.503 58.1013 284.978 56.2504 286.568 55.4014C288.323 54.4639 290.378 54.6243 291.628 55.4945L293.024 53.4883ZM302.118 62.3816L304.085 63.8336L308.77 57.4892L306.804 56.0372L304.838 54.5852L300.152 60.9296L302.118 62.3816ZM294.359 54.7936L296.068 53.0461L294.733 51.7408L293.024 53.4883L291.315 55.2358L292.65 56.541L294.359 54.7936ZM299.494 109.759L297.89 111.603C299.866 113.322 302.515 114.245 305.055 114.25C307.607 114.254 310.347 113.314 312.095 110.925L310.122 109.482L308.15 108.039C307.553 108.854 306.487 109.364 305.064 109.361C303.63 109.359 302.136 108.818 301.098 107.915L299.494 109.759ZM310.348 109.148L308.273 107.856C308.233 107.92 308.192 107.981 308.15 108.039L310.122 109.482L312.095 110.925C312.21 110.768 312.319 110.607 312.423 110.44L310.348 109.148ZM294.359 54.7936L292.65 56.541L300.41 64.1291L302.118 62.3816L303.827 60.6341L296.068 53.0461L294.359 54.7936ZM237.984 154.581L236.466 156.497C239.482 158.887 242.059 160.492 244.857 161.529C247.652 162.564 250.515 162.974 254.004 163.182L254.149 160.742L254.294 158.302C251.013 158.107 248.698 157.738 246.555 156.945C244.417 156.153 242.296 154.879 239.501 152.665L237.984 154.581ZM261.363 127.095L259.944 129.085L265.631 133.14L267.05 131.15L268.469 129.159L262.782 125.105L261.363 127.095ZM262.297 108.56L264.094 106.904C260.03 102.494 252.897 98.5473 245.504 98.8519L245.605 101.294L245.705 103.736C251.365 103.503 257.186 106.621 260.499 110.217L262.297 108.56ZM245.605 101.294L245.504 98.8519C238.172 99.1539 231.282 103.939 227.956 109.889C226.269 112.905 225.409 116.379 226.025 119.855C226.65 123.379 228.743 126.612 232.418 129.157L233.81 127.148L235.201 125.138C232.451 123.234 231.206 121.076 230.838 119.001C230.462 116.877 230.954 114.543 232.222 112.274C234.806 107.653 240.24 103.961 245.705 103.736L245.605 101.294ZM233.81 127.148L232.489 129.204L238.965 133.364L240.286 131.308L241.607 129.251L235.131 125.091L233.81 127.148ZM240.286 131.308L238.645 133.119C238.234 132.747 238.197 132.3 238.205 132.151C238.212 132.024 238.243 132.009 238.217 132.048C238.188 132.091 238.229 131.998 238.436 131.914C238.553 131.867 238.726 131.824 238.936 131.835C239.153 131.847 239.337 131.912 239.469 131.99L238.233 134.098L236.996 136.206C238.09 136.848 239.28 136.845 240.268 136.446C241.175 136.079 241.841 135.419 242.273 134.778C242.707 134.132 243.035 133.314 243.085 132.431C243.137 131.525 242.89 130.368 241.927 129.496L240.286 131.308ZM238.233 134.098L239.34 131.919L233.021 128.707L231.914 130.886L230.806 133.065L237.125 136.277L238.233 134.098ZM231.914 130.886L233.019 128.706C227.966 126.145 223.281 128.577 220.901 131.934C218.645 135.115 217.717 140.393 221.761 143.596L223.279 141.681L224.796 139.765C223.677 138.878 223.38 136.89 224.889 134.761C226.273 132.809 228.487 131.889 230.809 133.066L231.914 130.886ZM267.05 131.15L265.807 133.254C266.191 133.481 266.583 133.676 266.982 133.839L267.906 131.576L268.829 129.313C268.658 129.243 268.479 129.155 268.293 129.045L267.05 131.15ZM267.906 131.576L266.982 133.839C271.711 135.768 275.854 132.809 277.998 129.911C279.119 128.396 279.947 126.611 280.227 124.882C280.495 123.232 280.325 121.008 278.539 119.562L277.001 121.461L275.463 123.36C275.263 123.199 275.547 123.207 275.402 124.1C275.27 124.915 274.821 125.986 274.068 127.004C272.465 129.171 270.474 129.984 268.829 129.313L267.906 131.576ZM254.149 160.742L254.076 163.185C257.884 163.299 261.316 162.469 264.259 160.998L263.167 158.811L262.074 156.625C259.845 157.739 257.214 158.388 254.222 158.299L254.149 160.742ZM263.167 158.811L264.259 160.998C269.598 158.329 273.269 153.587 274.741 148.684C276.203 143.816 275.581 138.326 271.56 134.79L269.946 136.626L268.332 138.461C270.465 140.337 271.168 143.584 270.059 147.278C268.96 150.937 266.164 154.581 262.074 156.625L263.167 158.811ZM223.279 141.681L221.667 143.518L236.372 156.418L237.984 154.581L239.595 152.744L224.89 139.843L223.279 141.681ZM277.001 121.461L278.613 119.624L264.036 106.835L262.424 108.672L260.812 110.509L275.389 123.298L277.001 121.461ZM262.297 108.56L260.685 110.398L260.812 110.509L262.424 108.672L264.035 106.834L263.908 106.723L262.297 108.56ZM269.946 136.626L271.557 134.788L261.303 125.792L259.691 127.629L258.079 129.466L268.334 138.463L269.946 136.626ZM259.691 127.629L261.823 128.823C261.765 128.928 261.629 129.115 261.317 129.24C261.142 129.311 260.902 129.362 260.624 129.334C260.338 129.304 260.104 129.199 259.943 129.085L261.363 127.095L262.783 125.106C261.731 124.355 260.506 124.297 259.493 124.705C258.587 125.069 257.939 125.754 257.558 126.435L259.691 127.629ZM90.6552 52.7456V50.3015H47.0038V52.7456V55.1898H90.6552V52.7456ZM47.0038 52.7456L47.0038 50.3015C31.1581 50.3017 20.8908 66.1306 29.0244 79.2551L31.1019 77.9676L33.1795 76.6801C27.4119 67.3734 34.3102 55.19 47.0039 55.1898L47.0038 52.7456ZM31.1019 77.9676L29.0186 79.2458L40.9714 98.7283L43.0547 97.4502L45.138 96.172L33.1852 76.6895L31.1019 77.9676ZM43.0547 97.4502V95.006H16.4637V97.4502V99.8943H43.0547V97.4502ZM85.7959 83.8124V86.2565H102.224V83.8124V81.3682H85.7959V83.8124ZM24.9789 141.914L23.5887 143.924C26.0365 145.617 29.0193 146.6 32.456 146.6V144.156V141.711C29.9919 141.711 27.9829 141.019 26.3691 139.903L24.9789 141.914ZM16.4637 97.4502V95.006C7.5032 95.006 2.27906 101.093 0.613292 107.992C-1.01458 114.735 0.578098 122.811 5.63629 127.725L7.33934 125.972L9.04239 124.218C5.46796 120.746 4.056 114.562 5.36505 109.14C6.63621 103.875 10.2906 99.8943 16.4637 99.8943V97.4502ZM24.9789 141.914L26.6177 140.1L8.97816 124.158L7.33934 125.972L5.70052 127.785L23.3401 143.727L24.9789 141.914ZM64.538 165.692L62.2044 166.419C63.0864 169.252 64.644 171.627 66.6479 173.559L68.3447 171.8L70.0416 170.041C68.5795 168.631 67.4899 166.951 66.8717 164.966L64.538 165.692ZM83.4328 185.438L85.0717 183.625L69.9837 169.987L68.3447 171.8L66.7058 173.614L81.7939 187.251L83.4328 185.438ZM93.6416 53.6156L95.0537 51.6207C93.8161 50.7447 92.3173 50.3015 90.6552 50.3015V52.7456V55.1898C91.4278 55.1898 91.9121 55.3859 92.2294 55.6106L93.6416 53.6156ZM152.458 130.097L154.63 131.218C157.137 126.36 156.283 121.326 153.412 117.515L151.46 118.986L149.508 120.457C151.366 122.924 151.846 125.954 150.286 128.975L152.458 130.097ZM134.629 103.4L133.094 105.302C142.085 112.559 147.892 118.57 149.6 120.572L151.46 118.986L153.319 117.4C151.375 115.12 145.336 108.901 136.164 101.498L134.629 103.4ZM83.4328 185.438L81.5944 187.049C86.2938 192.413 94.082 194.768 101.509 195.104C108.954 195.441 116.743 193.786 121.806 190.332L120.428 188.313L119.051 186.294C115.133 188.967 108.5 190.527 101.73 190.221C94.9424 189.913 88.7232 187.767 85.2712 183.827L83.4328 185.438ZM120.428 188.313L121.806 190.332C123.728 189.021 125.361 187.378 126.366 185.377L124.182 184.28L121.998 183.182C121.463 184.247 120.494 185.309 119.051 186.294L120.428 188.313ZM32.456 144.156V146.6H58.3848V144.156V141.711H32.456V144.156ZM58.3848 144.156L56.0347 144.827L62.1879 166.364L64.538 165.692L66.8881 165.021L60.7349 143.484L58.3848 144.156ZM134.629 103.4L136.418 101.736C128.918 93.6718 112.541 92.814 100.993 109.463L103.002 110.856L105.01 112.249C115.13 97.6592 127.863 99.715 132.839 105.065L134.629 103.4ZM103.002 110.856L105.064 109.544L87.8581 82.5004L85.7959 83.8124L83.7337 85.1244L100.94 112.168L103.002 110.856ZM110.273 68.7532L111.918 66.9456L111.462 66.5309L109.817 68.3384L108.172 70.146L108.628 70.5607L110.273 68.7532ZM109.817 68.3384L111.462 66.5309L95.2867 51.8081L93.6416 53.6156L91.9964 55.4232L108.172 70.146L109.817 68.3384ZM102.224 83.8124V86.2565C104.198 86.2565 105.986 85.7712 107.54 84.9376L106.384 82.7839L105.229 80.6301C104.371 81.0905 103.375 81.3682 102.224 81.3682V83.8124ZM106.384 82.7839L107.54 84.9376C110.912 83.1281 113.016 79.7878 113.848 76.5307C114.655 73.3684 114.418 69.5503 112.039 67.0636L110.273 68.7532L108.507 70.4428C109.244 71.213 109.706 72.9921 109.111 75.3218C108.541 77.5568 107.143 79.6033 105.229 80.6301L106.384 82.7839ZM124.182 184.28L126.349 185.41L127.201 183.777L125.034 182.647L122.867 181.516L122.015 183.149L124.182 184.28ZM125.034 182.647L127.201 183.777L154.625 131.227L152.458 130.097L150.291 128.966L122.867 181.516L125.034 182.647ZM265.099 110.087L262.73 109.485L255.569 137.656L257.938 138.258L260.307 138.86L267.468 110.69L265.099 110.087ZM300.8 101.399V98.9551H275.788V101.399V103.843H300.8V101.399ZM275.788 101.399L275.349 98.9949C272.16 99.5778 269.499 100.374 267.366 102.057C265.191 103.772 263.862 106.167 262.788 109.293L265.099 110.087L267.411 110.882C268.344 108.165 269.27 106.781 270.393 105.895C271.558 104.976 273.238 104.35 276.228 103.804L275.788 101.399ZM280.091 161.795V164.239H303.944V161.795V159.351H280.091V161.795ZM303.213 102.085L304.601 100.074C303.512 99.3222 302.211 98.9551 300.8 98.9551V101.399V103.843C301.349 103.843 301.652 103.978 301.824 104.097L303.213 102.085ZM310.953 145.638L311.737 147.953C315.483 146.685 317.933 143.622 318.934 140.485C319.903 137.45 319.688 133.621 316.989 131.25L315.376 133.086L313.763 134.922C314.448 135.524 314.918 136.991 314.277 138.998C313.669 140.904 312.215 142.63 310.169 143.323L310.953 145.638ZM303.944 161.795V164.239C305.504 164.239 306.942 163.99 308.242 163.529L307.425 161.225L306.608 158.922C305.861 159.187 304.978 159.351 303.944 159.351V161.795ZM307.425 161.225L308.242 163.529C311.927 162.221 314.24 159.317 315.127 156.268C315.988 153.308 315.592 149.783 313.214 147.49L311.518 149.249L309.821 151.008C310.519 151.682 310.95 153.125 310.434 154.902C309.942 156.589 308.671 158.19 306.608 158.922L307.425 161.225ZM257.938 138.258L255.558 137.7C254.798 140.942 255.048 144.404 257.205 146.87L259.045 145.261L260.885 143.652C260.175 142.841 259.747 141.25 260.318 138.816L257.938 138.258ZM275.63 160.422L274.078 162.31C275.669 163.619 277.741 164.239 280.091 164.239V161.795V159.351C278.594 159.351 277.706 158.965 277.183 158.535L275.63 160.422ZM311.518 149.249L313.163 147.441L309.709 144.296L308.064 146.104L306.418 147.911L309.872 151.056L311.518 149.249ZM308.064 146.104L308.067 148.548C309.375 148.546 310.604 148.336 311.737 147.953L310.953 145.638L310.169 143.323C309.546 143.534 308.845 143.659 308.06 143.66L308.064 146.104ZM315.376 133.086L317.019 131.276L313.859 128.408L312.217 130.218L310.574 132.028L313.733 134.895L315.376 133.086ZM319.9 117.301L321.547 115.495L305.568 100.925L303.921 102.731L302.274 104.537L318.253 119.107L319.9 117.301ZM303.213 102.085L301.566 103.891L302.274 104.537L303.921 102.731L305.568 100.925L304.859 100.279L303.213 102.085ZM312.217 130.218V132.662C313.462 132.662 314.633 132.472 315.715 132.117L314.955 129.794L314.194 127.472C313.614 127.661 312.958 127.774 312.217 127.774V130.218ZM314.955 129.794L315.715 132.117C319.461 130.891 321.826 127.842 322.862 124.78C323.856 121.844 323.842 118.165 321.762 115.718L319.9 117.301L318.038 118.884C318.565 119.504 318.935 121.137 318.232 123.213C317.572 125.164 316.16 126.828 314.194 127.472L314.955 129.794ZM153.405 57.7817L151.381 56.4119L131.212 86.2149L133.236 87.5848L135.26 88.9547L155.43 59.1516L153.405 57.7817ZM194.227 103.648L196.636 103.236L191.287 71.9553L188.878 72.3673L186.469 72.7792L191.817 104.06L194.227 103.648ZM133.236 87.5848L130.958 86.6979C129.413 90.667 129.471 94.1911 131.183 96.8415L133.236 95.5156L135.289 94.1897C134.718 93.3049 134.311 91.5592 135.514 88.4716L133.236 87.5848ZM170.803 54.3892L172.331 52.4812C169.489 50.2055 165.309 49.5942 161.531 50.2143C157.703 50.8426 153.723 52.8219 151.358 56.4462L153.405 57.7817L155.452 59.1173C156.879 56.9311 159.466 55.5069 162.323 55.038C165.23 54.5609 167.854 55.1586 169.276 56.2971L170.803 54.3892ZM188.878 72.3673L191.28 71.9166C190.989 70.363 190.276 69.0312 189.281 67.9558L187.487 69.6164L185.694 71.2771C186.097 71.7127 186.363 72.2167 186.475 72.818L188.878 72.3673ZM149.924 110.967L148.188 112.687C150.213 114.731 153.108 115.449 155.835 115.24C158.587 115.029 161.442 113.867 163.673 111.775L162.002 109.992L160.331 108.208C158.943 109.509 157.148 110.237 155.461 110.366C153.748 110.498 152.415 110.008 151.661 109.247L149.924 110.967ZM162.002 109.992L163.673 111.775C164.304 111.184 164.885 110.519 165.399 109.779L163.393 108.384L161.386 106.989C161.073 107.439 160.718 107.845 160.331 108.208L162.002 109.992ZM171.425 54.9563L173.072 53.1511L172.451 52.5839L170.803 54.3892L169.156 56.1944L169.777 56.7616L171.425 54.9563ZM133.236 95.5156L131.575 97.3091L133.558 99.145L135.219 97.3515L136.879 95.5581L134.896 93.7221L133.236 95.5156ZM171.425 54.9563L169.777 56.7616L185.84 71.4217L187.487 69.6164L189.135 67.8112L173.072 53.1511L171.425 54.9563ZM135.219 97.3515L133.558 99.145L148.264 112.761L149.924 110.967L151.585 109.174L136.879 95.5581L135.219 97.3515ZM179.873 111.757L178.176 113.516C179.851 115.132 182.073 115.816 184.21 115.907C186.355 115.999 188.596 115.508 190.57 114.564C194.467 112.7 198.008 108.605 196.595 103.046L194.227 103.648L191.858 104.25C192.49 106.737 191.119 108.883 188.461 110.154C187.157 110.778 185.709 111.078 184.419 111.023C183.12 110.968 182.161 110.567 181.57 109.998L179.873 111.757ZM168.332 101.231L166.685 103.037L178.226 113.563L179.873 111.757L181.52 109.951L169.979 99.4252L168.332 101.231ZM163.393 108.384L165.404 109.773L170.343 102.62L168.332 101.231L166.321 99.8422L161.381 106.995L163.393 108.384ZM141.885 110.087L139.517 109.485L132.356 137.656L134.724 138.258L137.093 138.86L144.254 110.69L141.885 110.087ZM177.586 101.399V98.9551H152.575V101.399V103.843H177.586V101.399ZM152.575 101.399L152.135 98.9949C148.946 99.5778 146.286 100.374 144.152 102.057C141.977 103.772 140.648 106.167 139.574 109.293L141.885 110.087L144.197 110.882C145.13 108.165 146.057 106.781 147.179 105.895C148.344 104.976 150.024 104.35 153.014 103.804L152.575 101.399ZM156.877 161.795V164.239H180.73V161.795V159.351H156.877V161.795ZM179.999 102.085L181.387 100.074C180.299 99.3222 178.998 98.9551 177.586 98.9551V101.399V103.843C178.136 103.843 178.439 103.978 178.61 104.097L179.999 102.085ZM187.739 145.638L188.523 147.953C192.27 146.685 194.719 143.622 195.72 140.485C196.689 137.45 196.475 133.621 193.776 131.25L192.162 133.086L190.549 134.922C191.234 135.524 191.704 136.991 191.064 138.998C190.455 140.904 189.002 142.63 186.956 143.323L187.739 145.638ZM180.73 161.795V164.239C182.29 164.239 183.728 163.99 185.029 163.529L184.211 161.225L183.394 158.922C182.647 159.187 181.764 159.351 180.73 159.351V161.795ZM184.211 161.225L185.029 163.529C188.713 162.221 191.026 159.317 191.913 156.268C192.775 153.308 192.378 149.783 190.001 147.49L188.304 149.249L186.607 151.008C187.306 151.682 187.737 153.125 187.22 154.902C186.729 156.589 185.458 158.19 183.394 158.922L184.211 161.225ZM134.724 138.258L132.345 137.7C131.585 140.942 131.835 144.404 133.991 146.87L135.831 145.261L137.671 143.652C136.961 142.841 136.533 141.25 137.104 138.816L134.724 138.258ZM152.417 160.422L150.864 162.31C152.456 163.619 154.527 164.239 156.877 164.239V161.795V159.351C155.38 159.351 154.492 158.965 153.969 158.535L152.417 160.422ZM188.304 149.249L189.949 147.441L186.495 144.296L184.85 146.104L183.204 147.911L186.658 151.056L188.304 149.249ZM184.85 146.104L184.853 148.548C186.161 148.546 187.39 148.336 188.523 147.953L187.739 145.638L186.956 143.323C186.332 143.534 185.631 143.659 184.847 143.66L184.85 146.104ZM192.162 133.086L193.805 131.276L190.646 128.408L189.003 130.218L187.36 132.028L190.52 134.895L192.162 133.086ZM196.686 117.301L198.333 115.495L182.354 100.925L180.707 102.731L179.06 104.537L195.04 119.107L196.686 117.301ZM179.999 102.085L178.352 103.891L179.06 104.537L180.707 102.731L182.354 100.925L181.646 100.279L179.999 102.085ZM189.003 130.218V132.662C190.249 132.662 191.419 132.472 192.502 132.117L191.741 129.794L190.981 127.472C190.4 127.661 189.744 127.774 189.003 127.774V130.218ZM191.741 129.794L192.502 132.117C196.248 130.891 198.612 127.842 199.648 124.78C200.642 121.844 200.628 118.165 198.549 115.718L196.686 117.301L194.824 118.884C195.351 119.504 195.721 121.137 195.018 123.213C194.358 125.164 192.947 126.828 190.981 127.472L191.741 129.794ZM189.571 60.5386L187.2 59.9478L179.933 89.119L182.305 89.7097L184.677 90.3005L191.943 61.1294L189.571 60.5386ZM221.744 51.7979V49.3537H198.681V51.7979V54.242H221.744V51.7979ZM198.681 51.7979V49.3537C196.025 49.3537 193.456 50.6537 191.472 52.5053C189.46 54.3824 187.851 56.9988 187.185 60.0111L189.571 60.5386L191.958 61.0661C192.398 59.0761 193.474 57.3222 194.806 56.0794C196.166 54.8113 197.599 54.242 198.681 54.242V51.7979ZM238.632 101.083L241.075 101.031L240.917 93.7115L238.474 93.7642L236.03 93.8169L236.188 101.136L238.632 101.083ZM182.305 89.7097L179.918 89.1863C179.192 92.4943 180.023 95.4506 182.058 97.4669L183.779 95.7307L185.499 93.9945C184.796 93.2982 184.28 92.1122 184.692 90.2332L182.305 89.7097ZM183.779 95.7307L182.133 97.5382L198.72 112.636L200.365 110.828L202.01 109.021L185.424 93.9232L183.779 95.7307ZM200.365 110.828L198.9 112.785C203.103 115.932 209.697 114.885 214.006 109.701L212.126 108.139L210.247 106.577C207.204 110.236 203.486 110.112 201.83 108.872L200.365 110.828ZM227.904 53.6578L229.313 51.6609C227.214 50.1793 224.636 49.3537 221.744 49.3537V51.7979V54.242C223.68 54.242 225.263 54.7854 226.495 55.6547L227.904 53.6578ZM238.474 93.7642L239.823 95.8022C240.594 95.2914 241.324 94.7607 242.012 94.2128L240.489 92.3012L238.966 90.3896C238.392 90.8463 237.779 91.2928 237.124 91.7262L238.474 93.7642ZM240.489 92.3012L242.012 94.2128C251.957 86.2886 253.243 74.4206 247.232 67.9339L245.439 69.5952L243.646 71.2565C247.167 75.0553 247.386 83.681 238.966 90.3896L240.489 92.3012ZM223.586 109.921L221.881 111.672C225.057 114.765 230.136 114.598 233.927 112.766C237.906 110.843 241.288 106.767 241.074 100.993L238.632 101.083L236.189 101.174C236.319 104.682 234.346 107.135 231.8 108.365C229.066 109.686 226.449 109.298 225.291 108.17L223.586 109.921ZM215.298 101.932L213.602 103.691L221.89 111.681L223.586 109.921L225.282 108.161L216.994 100.172L215.298 101.932ZM229.687 55.2783L231.331 53.4696L229.548 51.8491L227.904 53.6578L226.26 55.4665L228.043 57.087L229.687 55.2783ZM245.439 69.5952L247.083 67.7865L231.331 53.4696L229.687 55.2783L228.043 57.087L243.795 71.4039L245.439 69.5952ZM212.126 108.139L214.006 109.701C215.537 107.859 216.795 105.503 217.643 102.622L215.298 101.932L212.954 101.241C212.271 103.558 211.306 105.303 210.247 106.577L212.126 108.139ZM234.96 60.5386L232.589 59.9478L225.322 89.119L227.694 89.7097L230.066 90.3005L237.332 61.1294L234.96 60.5386ZM267.133 51.7979V49.3537H244.07V51.7979V54.242H267.133V51.7979ZM244.07 51.7979V49.3537C241.414 49.3537 238.845 50.6537 236.861 52.5053C234.849 54.3824 233.24 56.9988 232.574 60.0111L234.96 60.5386L237.347 61.0661C237.787 59.0761 238.863 57.3222 240.195 56.0794C241.555 54.8113 242.988 54.242 244.07 54.242V51.7979ZM284.021 101.083L286.464 101.031L286.306 93.7115L283.863 93.7642L281.419 93.8169L281.577 101.136L284.021 101.083ZM227.694 89.7097L225.307 89.1863C224.581 92.4943 225.412 95.4506 227.447 97.4669L229.168 95.7307L230.888 93.9945C230.185 93.2982 229.669 92.1122 230.081 90.2332L227.694 89.7097ZM229.168 95.7307L227.522 97.5382L244.109 112.636L245.754 110.828L247.399 109.021L230.813 93.9232L229.168 95.7307ZM245.754 110.828L244.289 112.785C248.492 115.932 255.086 114.885 259.395 109.701L257.515 108.139L255.636 106.577C252.593 110.236 248.875 110.112 247.219 108.872L245.754 110.828ZM273.293 53.6578L274.702 51.6609C272.603 50.1793 270.025 49.3537 267.133 49.3537V51.7979V54.242C269.069 54.242 270.652 54.7854 271.884 55.6547L273.293 53.6578ZM283.863 93.7642L285.212 95.8022C285.983 95.2914 286.713 94.7607 287.401 94.2128L285.878 92.3012L284.355 90.3896C283.781 90.8463 283.168 91.2928 282.513 91.7262L283.863 93.7642ZM285.878 92.3012L287.401 94.2128C297.346 86.2886 298.632 74.4206 292.621 67.9339L290.828 69.5952L289.035 71.2565C292.556 75.0553 292.774 83.681 284.355 90.3896L285.878 92.3012ZM268.975 109.921L267.27 111.672C270.446 114.765 275.525 114.598 279.316 112.766C283.295 110.843 286.677 106.767 286.463 100.993L284.021 101.083L281.578 101.174C281.708 104.682 279.735 107.135 277.189 108.365C274.455 109.686 271.838 109.298 270.68 108.17L268.975 109.921ZM260.687 101.932L258.991 103.691L267.279 111.681L268.975 109.921L270.671 108.161L262.383 100.172L260.687 101.932ZM275.076 55.2783L276.72 53.4696L274.937 51.8491L273.293 53.6578L271.649 55.4665L273.432 57.087L275.076 55.2783ZM290.828 69.5952L292.472 67.7865L276.72 53.4696L275.076 55.2783L273.432 57.087L289.184 71.4039L290.828 69.5952ZM257.515 108.139L259.395 109.701C260.926 107.859 262.184 105.503 263.032 102.622L260.687 101.932L258.343 101.241C257.66 103.558 256.695 105.303 255.636 106.577L257.515 108.139ZM183.779 110.245L181.408 109.655L174.141 138.826L176.513 139.416L178.885 140.007L186.151 110.836L183.779 110.245ZM215.952 101.505V99.0604H192.889V101.505V103.949H215.952V101.505ZM192.889 101.505V99.0604C190.233 99.0604 187.664 100.36 185.679 102.212C183.668 104.089 182.059 106.706 181.393 109.718L183.779 110.245L186.166 110.773C186.606 108.783 187.682 107.029 189.014 105.786C190.373 104.518 191.807 103.949 192.889 103.949V101.505ZM232.839 150.79L235.283 150.737L235.125 143.418L232.682 143.471L230.238 143.524L230.396 150.843L232.839 150.79ZM176.513 139.416L174.126 138.893C173.4 142.201 174.231 145.157 176.266 147.174L177.987 145.437L179.707 143.701C179.004 143.005 178.488 141.819 178.9 139.94L176.513 139.416ZM177.987 145.437L176.341 147.245L192.928 162.342L194.573 160.535L196.218 158.727L179.632 143.63L177.987 145.437ZM194.573 160.535L193.108 162.491C197.311 165.639 203.905 164.592 208.214 159.408L206.334 157.846L204.455 156.283C201.412 159.943 197.694 159.818 196.038 158.578L194.573 160.535ZM222.112 103.365L223.521 101.368C221.422 99.886 218.844 99.0604 215.952 99.0604V101.505V103.949C217.888 103.949 219.471 104.492 220.702 105.361L222.112 103.365ZM232.682 143.471L234.031 145.509C234.802 144.998 235.532 144.467 236.22 143.919L234.697 142.008L233.173 140.096C232.6 140.553 231.987 140.999 231.332 141.433L232.682 143.471ZM234.697 142.008L236.22 143.919C246.165 135.995 247.451 124.127 241.44 117.641L239.647 119.302L237.854 120.963C241.374 124.762 241.593 133.388 233.173 140.096L234.697 142.008ZM217.794 159.628L216.089 161.379C219.265 164.472 224.344 164.305 228.135 162.473C232.114 160.55 235.496 156.474 235.282 150.7L232.839 150.79L230.397 150.88C230.527 154.389 228.553 156.841 226.008 158.072C223.273 159.393 220.657 159.004 219.499 157.877L217.794 159.628ZM209.506 151.638L207.81 153.398L216.098 161.387L217.794 159.628L219.49 157.868L211.202 149.879L209.506 151.638ZM223.895 104.985L225.539 103.176L223.756 101.556L222.112 103.365L220.468 105.173L222.251 106.794L223.895 104.985ZM239.647 119.302L241.291 117.493L225.539 103.176L223.895 104.985L222.251 106.794L238.003 121.111L239.647 119.302ZM206.334 157.846L208.214 159.408C209.745 157.565 211.002 155.21 211.851 152.329L209.506 151.638L207.161 150.948C206.479 153.265 205.513 155.009 204.455 156.283L206.334 157.846ZM259.045 145.261L257.396 147.065L273.981 162.226L275.63 160.422L277.279 158.618L260.694 143.457L259.045 145.261ZM135.831 145.261L134.182 147.065L150.768 162.226L152.417 160.422L154.066 158.618L137.48 143.457L135.831 145.261Z" fill="white" mask="url(#path-3-outside-1_2_270)"/>
<path d="M90.6552 52.5869H47.0039C32.7342 52.5871 24.1513 66.5932 31.1019 77.8088L43.0547 97.2913H16.4637C-2.65023 97.2913 -1.80781 129.411 16.4637 129.411H54.2177L64.538 165.534C69.7509 182.279 102.661 180.541 108.189 169.535L136.465 115.352C143.995 100.767 114.508 84.9181 98.9221 117.827L93.13 140.627H108.189L95.6575 147.946L96.7106 159.477L87.022 152.79L74.2794 159.477L80.9666 148.314L72.1205 140.627H88.8123L94.9729 116.037C96.1839 111.193 94.7239 108.47 92.1822 104.242L69.8037 69.068H86.2321C96.4999 69.068 99.3959 52.5869 90.6552 52.5869Z" fill="white"/>
<path d="M109.19 69.068L103.556 91.2368C101.449 100.873 120.827 102.294 124.039 91.2368L129.778 69.068H134.254C144.943 69.068 148.208 52.5869 138.94 52.5869H108.453C95.6047 53.4828 94.5516 69.068 103.977 69.068H109.19Z" fill="white"/>
<path fill-rule="evenodd" clip-rule="evenodd" d="M189.489 60.5387L182.223 89.7098C180.064 99.5563 195.808 101.873 199.547 86.1292L200.6 81.4955H205.233L205.813 91.2368C206.286 100.978 222.978 97.8713 222.557 86.4978L222.399 79.1787C237.511 69.1741 233.825 51.7979 221.662 51.7979H198.599C194.86 51.7979 190.595 55.5364 189.489 60.5387ZM204.391 65.4356C203.7 66.3756 203.691 67.0505 203.601 68.2263H210.815C212.342 67.5945 212.5 65.5409 210.815 65.4356H204.391Z" fill="white"/>
<path fill-rule="evenodd" clip-rule="evenodd" d="M235.036 60.5387L227.77 89.7098C225.611 99.5563 241.355 101.873 245.093 86.1292L246.147 81.4955H250.78L251.359 91.2368C251.833 100.978 268.525 97.8713 268.104 86.4978L267.946 79.1787C283.058 69.1741 279.372 51.7979 267.209 51.7979H244.146C240.407 51.7979 236.142 55.5364 235.036 60.5387ZM249.938 65.4356C249.247 66.3756 249.238 67.0505 249.148 68.2263H256.362C257.889 67.5945 258.047 65.5409 256.362 65.4356H249.938Z" fill="white"/>
<path d="M299.63 65.7515L306.804 56.0372C311.611 48.2971 327.302 51.2456 320.073 64.1461L298.537 95.2655C294.865 101.163 282.093 96.6348 286.291 87.6831L289.543 80.6004L281.213 61.6713C280.737 50.827 293.442 49.7736 295.234 56.6693L299.63 65.7515Z" fill="white"/>
<path fill-rule="evenodd" clip-rule="evenodd" d="M184.007 110.522L176.741 139.693C174.582 149.54 190.326 151.857 194.065 136.113L195.118 131.479H199.751L200.331 141.22C200.804 150.961 217.496 147.855 217.075 136.481L216.917 129.162C232.029 119.158 228.343 101.781 216.18 101.781H193.117C189.378 101.781 185.113 105.52 184.007 110.522ZM198.909 115.419C198.218 116.359 198.21 117.034 198.119 118.21H205.333C206.86 117.578 207.018 115.524 205.333 115.419H198.909Z" fill="white"/>
<path d="M141.886 110.102L134.724 138.272C133.564 143.223 135.459 147.224 140.885 147.224H164.738C175.372 147.224 176.846 133.323 168.634 133.323H152.417L152.733 131.533H168.845C178.531 131.533 181.269 117.316 172.584 117.316H156.418L156.682 115.578H172.584C182.217 115.578 184.955 101.414 177.586 101.414H152.575C146.396 102.543 143.893 104.259 141.886 110.102Z" fill="white"/>
<path d="M262.15 108.364C258.462 104.361 251.986 100.829 245.459 101.098C232.661 101.625 220.814 118.053 233.664 126.951L240.141 131.111C241.244 132.111 239.611 134.796 238.087 133.902L231.768 130.69C224.394 126.951 217.97 137.394 223.133 141.484C228.944 146.088 232.528 147.242 239.298 147.645C255.095 148.118 262.938 130.426 255.095 123.529L244.879 115.736C244.14 114.998 245.404 113.207 246.512 113.998L252.199 118.053C258.883 122.001 265.465 111.049 262.15 108.364Z" fill="white"/>
<path d="M265.202 110.102L258.041 138.272C256.88 143.223 258.776 147.224 264.202 147.224H288.054C298.688 147.224 300.163 133.323 291.951 133.323H275.733L276.049 131.533H292.162C301.848 131.533 304.586 117.316 295.9 117.316H279.735L279.998 115.578H295.9C305.534 115.578 308.272 101.414 300.902 101.414H275.891C269.713 102.543 267.209 104.259 265.202 110.102Z" fill="white"/>
<path fill-rule="evenodd" clip-rule="evenodd" d="M133.153 87.548C128.519 99.4477 142.157 101.185 147.317 93.7613L154.728 83.0225H159.901L162.355 94.6597C164.59 102.716 180.492 98.2399 178.151 89.0256L172.802 57.745C171.489 50.7412 158.064 50.4779 153.322 57.745L133.153 87.548ZM161.098 72.0777H158.302L160.356 68.9711L161.098 72.0777Z" fill="white"/>
</svg>
